Paribartan-VF.ttx.ufo
<glyph name="dollar" format="2">
  <advance width="512"/>
  <unicode hex="0024"/>
  <outline>
    <contour>
      <point x="60" y="57" type="line"/>
      <point x="63" y="54"/>
      <point x="78" y="45"/>
      <point x="81" y="42" type="qcurve"/>
      <point x="135" y="-7"/>
      <point x="202" y="-6" type="qcurve"/>
      <point x="227" y="-6"/>
      <point x="253" y="0" type="qcurve"/>
      <point x="253" y="-182" type="line"/>
      <point x="332" y="-182" type="line"/>
      <point x="332" y="32" type="line"/>
      <point x="397" y="71"/>
      <point x="432" y="130" type="qcurve"/>
      <point x="462" y="181"/>
      <point x="465" y="269"/>
      <point x="416" y="339"/>
      <point x="383" y="366" type="qcurve"/>
      <point x="361" y="383"/>
      <point x="332" y="401" type="qcurve"/>
      <point x="332" y="616" type="line"/>
      <point x="358" y="615"/>
      <point x="382" y="602" type="qcurve"/>
      <point x="392" y="597"/>
      <point x="404" y="587" type="qcurve"/>
      <point x="479" y="712" type="line"/>
      <point x="476" y="715"/>
      <point x="461" y="724"/>
      <point x="458" y="727" type="qcurve"/>
      <point x="403" y="777"/>
      <point x="332" y="774" type="qcurve"/>
      <point x="332" y="1030" type="line"/>
      <point x="253" y="1030" type="line"/>
      <point x="253" y="758" type="line"/>
      <point x="157" y="723"/>
      <point x="106" y="639" type="qcurve"/>
      <point x="75" y="588"/>
      <point x="69" y="490"/>
      <point x="111" y="408"/>
      <point x="183" y="342"/>
      <point x="232" y="315" type="qcurve"/>
      <point x="243" y="313"/>
      <point x="253" y="310" type="qcurve"/>
      <point x="253" y="160" type="line"/>
      <point x="246" y="157"/>
      <point x="238" y="155" type="qcurve"/>
      <point x="195" y="145"/>
      <point x="157" y="167" type="qcurve"/>
      <point x="143" y="176"/>
      <point x="135" y="182" type="qcurve"/>
    </contour>
    <contour>
      <point x="253" y="586" type="qcurve"/>
      <point x="253" y="443" type="line"/>
      <point x="241" y="456"/>
      <point x="232" y="475" type="qcurve"/>
      <point x="212" y="524"/>
      <point x="237" y="565" type="qcurve"/>
      <point x="244" y="577"/>
    </contour>
  </outline>
</glyph>
<glyph name="percent" format="2">
  <advance width="691"/>
  <unicode hex="0025"/>
  <outline>
    <contour>
      <point x="204" y="483" type="qcurve"/>
      <point x="206" y="483" type="line"/>
      <point x="260" y="483"/>
      <point x="335" y="558"/>
      <point x="335" y="611" type="qcurve"/>
      <point x="335" y="665"/>
      <point x="260" y="740"/>
      <point x="206" y="740" type="qcurve"/>
      <point x="204" y="740"/>
      <point x="204" y="740" type="qcurve"/>
      <point x="202" y="740"/>
      <point x="202" y="740" type="qcurve"/>
      <point x="195" y="740" type="line"/>
      <point x="145" y="736"/>
      <point x="75" y="662"/>
      <point x="75" y="560"/>
      <point x="144" y="487"/>
      <point x="195" y="483" type="qcurve"/>
      <point x="202" y="483"/>
      <point x="202" y="483" type="qcurve"/>
      <point x="204" y="483"/>
    </contour>
    <contour>
      <point x="205" y="665" type="qcurve"/>
      <point x="209" y="665"/>
      <point x="217" y="663" type="qcurve"/>
      <point x="217" y="664" type="line"/>
      <point x="236" y="660"/>
      <point x="259" y="631"/>
      <point x="259" y="611" type="qcurve"/>
      <point x="259" y="592"/>
      <point x="236" y="563"/>
      <point x="217" y="559" type="qcurve"/>
      <point x="217" y="560" type="line"/>
      <point x="209" y="558"/>
      <point x="201" y="558"/>
      <point x="193" y="560" type="qcurve"/>
      <point x="193" y="559" type="line"/>
      <point x="174" y="563"/>
      <point x="151" y="592"/>
      <point x="151" y="611" type="qcurve"/>
      <point x="151" y="631"/>
      <point x="174" y="660"/>
      <point x="193" y="664" type="qcurve"/>
      <point x="193" y="663" type="line"/>
      <point x="201" y="665"/>
    </contour>
    <contour>
      <point x="509" y="82" type="line"/>
      <point x="511" y="82" type="line"/>
      <point x="565" y="82"/>
      <point x="640" y="157"/>
      <point x="640" y="210" type="qcurve"/>
      <point x="640" y="264"/>
      <point x="565" y="339"/>
      <point x="511" y="339" type="qcurve"/>
      <point x="509" y="339" type="line"/>
      <point x="507" y="339" type="line"/>
      <point x="500" y="339" type="line"/>
      <point x="450" y="335"/>
      <point x="380" y="261"/>
      <point x="380" y="159"/>
      <point x="449" y="86"/>
      <point x="500" y="82" type="qcurve"/>
      <point x="507" y="82" type="line"/>
    </contour>
    <contour>
      <point x="510" y="264" type="qcurve"/>
      <point x="514" y="264"/>
      <point x="522" y="262" type="qcurve"/>
      <point x="522" y="263" type="line"/>
      <point x="541" y="259"/>
      <point x="564" y="230"/>
      <point x="564" y="210" type="qcurve"/>
      <point x="564" y="191"/>
      <point x="541" y="162"/>
      <point x="522" y="158" type="qcurve"/>
      <point x="522" y="159" type="line"/>
      <point x="514" y="157"/>
      <point x="506" y="157"/>
      <point x="498" y="159" type="qcurve"/>
      <point x="498" y="158" type="line"/>
      <point x="479" y="162"/>
      <point x="456" y="191"/>
      <point x="456" y="210" type="qcurve"/>
      <point x="456" y="230"/>
      <point x="479" y="259"/>
      <point x="498" y="263" type="qcurve"/>
      <point x="498" y="262" type="line"/>
      <point x="506" y="264"/>
    </contour>
    <contour>
      <point x="535" y="818" type="line"/>
      <point x="50" y="-22" type="line"/>
      <point x="156" y="-83" type="line"/>
      <point x="641" y="757" type="line"/>
    </contour>
  </outline>
</glyph>
<glyph name="parenleft" format="2">
  <advance width="555"/>
  <unicode hex="0028"/>
  <outline>
    <contour>
      <point x="432" y="744" type="qcurve"/>
      <point x="505" y="766" type="line"/>
      <point x="471" y="773"/>
      <point x="432" y="773" type="qcurve"/>
      <point x="274" y="773"/>
      <point x="50" y="543"/>
      <point x="50" y="217"/>
      <point x="274" y="-14"/>
      <point x="432" y="-14" type="qcurve"/>
      <point x="471" y="-14"/>
      <point x="505" y="-7" type="qcurve"/>
      <point x="432" y="11" type="line"/>
      <point x="332" y="11"/>
      <point x="154" y="232"/>
      <point x="154" y="378" type="qcurve"/>
      <point x="154" y="523"/>
      <point x="332" y="744"/>
    </contour>
  </outline>
</glyph>
<glyph name="zero" format="2">
  <advance width="864"/>
  <unicode hex="0030"/>
  <outline>
    <contour>
      <point x="738" y="380" type="qcurve"/>
      <point x="738" y="487"/>
      <point x="656" y="668"/>
      <point x="516" y="773"/>
      <point x="349" y="773"/>
      <point x="208" y="668"/>
      <point x="126" y="487"/>
      <point x="126" y="380" type="qcurve"/>
      <point x="126" y="273"/>
      <point x="208" y="91"/>
      <point x="349" y="-14"/>
      <point x="516" y="-14"/>
      <point x="656" y="91"/>
      <point x="738" y="273"/>
    </contour>
    <contour>
      <point x="616" y="378" type="qcurve"/>
      <point x="616" y="280"/>
      <point x="509" y="143"/>
      <point x="356" y="143"/>
      <point x="248" y="280"/>
      <point x="248" y="378" type="qcurve"/>
      <point x="248" y="475"/>
      <point x="356" y="612"/>
      <point x="509" y="612"/>
      <point x="616" y="475"/>
    </contour>
  </outline>
</glyph>
<glyph name="three" format="2">
  <advance width="435"/>
  <unicode hex="0033"/>
  <outline>
    <contour>
      <point x="50" y="-5" type="line"/>
      <point x="63" y="-6"/>
      <point x="76" y="-6" type="qcurve"/>
      <point x="204" y="-6"/>
      <point x="385" y="116"/>
      <point x="385" y="288"/>
      <point x="310" y="349" type="qcurve"/>
      <point x="385" y="410"/>
      <point x="385" y="496" type="qcurve"/>
      <point x="385" y="583"/>
      <point x="208" y="705"/>
      <point x="82" y="705" type="qcurve"/>
      <point x="69" y="705"/>
      <point x="56" y="704" type="qcurve"/>
      <point x="56" y="580" type="line"/>
      <point x="69" y="583"/>
      <point x="82" y="583" type="qcurve"/>
      <point x="146" y="583"/>
      <point x="234" y="533"/>
      <point x="234" y="496" type="qcurve"/>
      <point x="234" y="463"/>
      <point x="180" y="414"/>
      <point x="140" y="411" type="qcurve"/>
      <point x="133" y="411"/>
      <point x="121" y="411"/>
      <point x="115" y="411" type="qcurve"/>
      <point x="108" y="411"/>
      <point x="101" y="413" type="qcurve"/>
      <point x="101" y="410" type="line"/>
      <point x="101" y="289" type="line"/>
      <point x="101" y="286" type="line"/>
      <point x="108" y="288"/>
      <point x="115" y="288" type="qcurve"/>
      <point x="121" y="288"/>
      <point x="133" y="288"/>
      <point x="140" y="288" type="qcurve"/>
      <point x="180" y="284"/>
      <point x="234" y="236"/>
      <point x="234" y="202" type="qcurve"/>
      <point x="234" y="166"/>
      <point x="142" y="116"/>
      <point x="76" y="116" type="qcurve"/>
      <point x="63" y="116"/>
      <point x="50" y="119" type="qcurve"/>
    </contour>
  </outline>
</glyph>
<glyph name="five" format="2">
  <advance width="384"/>
  <unicode hex="0035"/>
  <outline>
    <contour>
      <point x="50" y="4" type="line"/>
      <point x="59" y="3"/>
      <point x="76" y="3" type="qcurve"/>
      <point x="183" y="3"/>
      <point x="334" y="153"/>
      <point x="334" y="260" type="qcurve"/>
      <point x="334" y="332"/>
      <point x="262" y="451"/>
      <point x="202" y="485" type="qcurve"/>
      <point x="202" y="622" type="line"/>
      <point x="367" y="622" type="line"/>
      <point x="368" y="774" type="line"/>
      <point x="51" y="774" type="line"/>
      <point x="51" y="773" type="line"/>
      <point x="50" y="773" type="line"/>
      <point x="50" y="517" type="line"/>
      <point x="50" y="397" type="line"/>
      <point x="50" y="364" type="line"/>
      <point x="62" y="367"/>
      <point x="76" y="367" type="qcurve"/>
      <point x="121" y="367"/>
      <point x="183" y="305"/>
      <point x="183" y="260" type="qcurve"/>
      <point x="183" y="216"/>
      <point x="121" y="154"/>
      <point x="76" y="154" type="qcurve"/>
      <point x="62" y="154"/>
      <point x="50" y="157" type="qcurve"/>
    </contour>
  </outline>
</glyph>
<glyph name="eight" format="2">
  <advance width="616"/>
  <unicode hex="0038"/>
  <outline>
    <contour>
      <point x="310" y="367" type="qcurve"/>
      <point x="322" y="367"/>
      <point x="334" y="364" type="qcurve"/>
      <point x="334" y="365" type="line"/>
      <point x="371" y="357"/>
      <point x="419" y="299"/>
      <point x="419" y="260" type="qcurve"/>
      <point x="419" y="222"/>
      <point x="371" y="164"/>
      <point x="334" y="156" type="qcurve"/>
      <point x="334" y="157" type="line"/>
      <point x="322" y="154"/>
      <point x="310" y="154" type="qcurve"/>
      <point x="297" y="154"/>
      <point x="286" y="157" type="qcurve"/>
      <point x="286" y="156" type="line"/>
      <point x="249" y="164"/>
      <point x="201" y="222"/>
      <point x="201" y="260" type="qcurve"/>
      <point x="201" y="299"/>
      <point x="249" y="357"/>
      <point x="286" y="365" type="qcurve"/>
      <point x="286" y="364" type="line"/>
      <point x="297" y="367"/>
    </contour>
    <contour>
      <point x="310" y="672" type="qcurve"/>
      <point x="322" y="672"/>
      <point x="334" y="669" type="qcurve"/>
      <point x="334" y="670" type="line"/>
      <point x="371" y="662"/>
      <point x="419" y="604"/>
      <point x="419" y="565" type="qcurve"/>
      <point x="419" y="527"/>
      <point x="371" y="469"/>
      <point x="334" y="461" type="qcurve"/>
      <point x="334" y="462" type="line"/>
      <point x="322" y="459"/>
      <point x="310" y="459" type="qcurve"/>
      <point x="297" y="459"/>
      <point x="286" y="462" type="qcurve"/>
      <point x="286" y="461" type="line"/>
      <point x="249" y="469"/>
      <point x="201" y="527"/>
      <point x="201" y="565" type="qcurve"/>
      <point x="201" y="604"/>
      <point x="249" y="662"/>
      <point x="286" y="670" type="qcurve"/>
      <point x="286" y="669" type="line"/>
      <point x="297" y="672"/>
    </contour>
    <contour>
      <point x="309" y="3" type="qcurve"/>
      <point x="309" y="3"/>
      <point x="311" y="3"/>
      <point x="312" y="3" type="qcurve"/>
      <point x="419" y="3"/>
      <point x="570" y="153"/>
      <point x="570" y="260" type="qcurve"/>
      <point x="570" y="345"/>
      <point x="520" y="413" type="qcurve"/>
      <point x="570" y="481"/>
      <point x="570" y="565" type="qcurve"/>
      <point x="570" y="672"/>
      <point x="419" y="823"/>
      <point x="312" y="823" type="qcurve"/>
      <point x="310" y="823"/>
      <point x="309" y="823" type="qcurve"/>
      <point x="308" y="823"/>
      <point x="308" y="823" type="qcurve"/>
      <point x="306" y="823"/>
      <point x="304" y="823" type="qcurve"/>
      <point x="296" y="823"/>
      <point x="290" y="822" type="qcurve"/>
      <point x="189" y="816"/>
      <point x="50" y="667"/>
      <point x="50" y="565" type="qcurve"/>
      <point x="50" y="481"/>
      <point x="100" y="413" type="qcurve"/>
      <point x="50" y="345"/>
      <point x="50" y="260" type="qcurve"/>
      <point x="50" y="158"/>
      <point x="189" y="10"/>
      <point x="290" y="4" type="qcurve"/>
      <point x="296" y="3"/>
      <point x="304" y="3" type="qcurve"/>
      <point x="306" y="3"/>
      <point x="308" y="3" type="qcurve"/>
      <point x="309" y="3"/>
    </contour>
  </outline>
</glyph>
<glyph name="B" format="2">
  <advance width="512"/>
  <unicode hex="0042"/>
  <outline>
    <contour>
      <point x="202" y="780" type="qcurve"/>
      <point x="50" y="780" type="line"/>
      <point x="50" y="4" type="line"/>
      <point x="202" y="4" type="line"/>
      <point x="210" y="3"/>
      <point x="226" y="3" type="qcurve"/>
      <point x="333" y="3"/>
      <point x="484" y="153"/>
      <point x="484" y="260" type="qcurve"/>
      <point x="484" y="285"/>
      <point x="458" y="330"/>
      <point x="397" y="394"/>
      <point x="395" y="396" type="qcurve"/>
      <point x="401" y="403"/>
      <point x="450" y="455"/>
      <point x="478" y="499"/>
      <point x="478" y="522" type="qcurve"/>
      <point x="478" y="629"/>
      <point x="327" y="780"/>
      <point x="220" y="780" type="qcurve"/>
      <point x="208" y="780"/>
    </contour>
    <contour>
      <point x="202" y="136" type="qcurve"/>
      <point x="202" y="343" type="line"/>
      <point x="214" y="346"/>
      <point x="226" y="346" type="qcurve"/>
      <point x="271" y="346"/>
      <point x="333" y="284"/>
      <point x="333" y="239" type="qcurve"/>
      <point x="333" y="195"/>
      <point x="271" y="133"/>
      <point x="226" y="133" type="qcurve"/>
      <point x="214" y="133"/>
    </contour>
    <contour>
      <point x="202" y="454" type="qcurve"/>
      <point x="202" y="661" type="line"/>
      <point x="214" y="664"/>
      <point x="226" y="664" type="qcurve"/>
      <point x="271" y="664"/>
      <point x="333" y="602"/>
      <point x="333" y="557" type="qcurve"/>
      <point x="333" y="513"/>
      <point x="271" y="451"/>
      <point x="226" y="451" type="qcurve"/>
      <point x="214" y="451"/>
    </contour>
  </outline>
</glyph>
<glyph name="O" format="2">
  <advance width="864"/>
  <unicode hex="004F"/>
  <outline>
    <contour>
      <point x="814" y="380" type="qcurve"/>
      <point x="814" y="543"/>
      <point x="590" y="773"/>
      <point x="274" y="773"/>
      <point x="50" y="543"/>
      <point x="50" y="217"/>
      <point x="274" y="-14"/>
      <point x="590" y="-14"/>
      <point x="814" y="217"/>
    </contour>
    <contour>
      <point x="661" y="378" type="qcurve"/>
      <point x="661" y="280"/>
      <point x="527" y="143"/>
      <point x="337" y="143"/>
      <point x="203" y="280"/>
      <point x="203" y="378" type="qcurve"/>
      <point x="203" y="475"/>
      <point x="337" y="612"/>
      <point x="527" y="612"/>
      <point x="661" y="475"/>
    </contour>
  </outline>
</glyph>
<glyph name="Q" format="2">
  <advance width="864"/>
  <unicode hex="0051"/>
  <outline>
    <contour>
      <point x="661" y="378" type="qcurve"/>
      <point x="661" y="280"/>
      <point x="527" y="143"/>
      <point x="337" y="143"/>
      <point x="203" y="280"/>
      <point x="203" y="378" type="qcurve"/>
      <point x="203" y="475"/>
      <point x="337" y="612"/>
      <point x="527" y="612"/>
      <point x="661" y="475"/>
    </contour>
    <contour>
      <point x="814" y="380" type="qcurve"/>
      <point x="814" y="543"/>
      <point x="590" y="773"/>
      <point x="274" y="773"/>
      <point x="50" y="543"/>
      <point x="50" y="217"/>
      <point x="274" y="-14"/>
      <point x="432" y="-14" type="qcurve"/>
      <point x="467" y="-14"/>
      <point x="501" y="-8" type="qcurve"/>
      <point x="684" y="-191" type="line"/>
      <point x="822" y="-52" type="line"/>
      <point x="685" y="85" type="line"/>
      <point x="746" y="140"/>
      <point x="814" y="293"/>
    </contour>
  </outline>
</glyph>
<glyph name="S" format="2">
  <advance width="512"/>
  <unicode hex="0053"/>
  <outline>
    <contour>
      <point x="55" y="57" type="line"/>
      <point x="58" y="54"/>
      <point x="73" y="45"/>
      <point x="76" y="42" type="qcurve"/>
      <point x="170" y="-9"/>
      <point x="375" y="42"/>
      <point x="427" y="130" type="qcurve"/>
      <point x="458" y="180"/>
      <point x="461" y="268"/>
      <point x="412" y="339"/>
      <point x="345" y="392"/>
      <point x="296" y="418" type="qcurve"/>
      <point x="248" y="426"/>
      <point x="207" y="524"/>
      <point x="232" y="565" type="qcurve"/>
      <point x="254" y="602"/>
      <point x="339" y="623"/>
      <point x="377" y="602" type="qcurve"/>
      <point x="387" y="597"/>
      <point x="399" y="587" type="qcurve"/>
      <point x="474" y="712" type="line"/>
      <point x="471" y="715"/>
      <point x="456" y="724"/>
      <point x="453" y="727" type="qcurve"/>
      <point x="359" y="777"/>
      <point x="153" y="726"/>
      <point x="101" y="639" type="qcurve"/>
      <point x="58" y="570"/>
      <point x="79" y="445"/>
      <point x="160" y="351"/>
      <point x="227" y="315" type="qcurve"/>
      <point x="270" y="308"/>
      <point x="319" y="241"/>
      <point x="297" y="202" type="qcurve"/>
      <point x="274" y="166"/>
      <point x="190" y="145"/>
      <point x="152" y="167" type="qcurve"/>
      <point x="142" y="172"/>
      <point x="130" y="182" type="qcurve"/>
    </contour>
  </outline>
</glyph>
<glyph name="b" format="2">
  <advance width="512"/>
  <unicode hex="0062"/>
  <outline>
    <contour>
      <point x="202" y="780" type="line"/>
      <point x="50" y="780" type="line"/>
      <point x="50" y="4" type="line"/>
      <point x="202" y="4" type="line"/>
      <point x="210" y="3"/>
      <point x="226" y="3" type="qcurve"/>
      <point x="333" y="3"/>
      <point x="484" y="153"/>
      <point x="484" y="367"/>
      <point x="333" y="518"/>
      <point x="226" y="518" type="qcurve"/>
      <point x="210" y="518"/>
      <point x="202" y="517" type="qcurve"/>
    </contour>
    <contour>
      <point x="202" y="157" type="qcurve"/>
      <point x="202" y="364" type="line"/>
      <point x="214" y="367"/>
      <point x="226" y="367" type="qcurve"/>
      <point x="271" y="367"/>
      <point x="333" y="305"/>
      <point x="333" y="260" type="qcurve"/>
      <point x="333" y="216"/>
      <point x="271" y="154"/>
      <point x="226" y="154" type="qcurve"/>
      <point x="214" y="154"/>
    </contour>
  </outline>
</glyph>
<glyph name="n" format="2">
  <advance width="597"/>
  <unicode hex="006E"/>
  <outline>
    <contour>
      <point x="50" y="522" type="line"/>
      <point x="50" y="6" type="line"/>
      <point x="219" y="6" type="line"/>
      <point x="219" y="338" type="line"/>
      <point x="251" y="373"/>
      <point x="299" y="373" type="qcurve"/>
      <point x="348" y="373"/>
      <point x="380" y="336" type="qcurve"/>
      <point x="380" y="6" type="line"/>
      <point x="547" y="6" type="line"/>
      <point x="544" y="337" type="line"/>
      <point x="520" y="420"/>
      <point x="386" y="524"/>
      <point x="299" y="524" type="qcurve"/>
      <point x="258" y="524"/>
      <point x="219" y="512" type="qcurve"/>
      <point x="219" y="522" type="line"/>
    </contour>
  </outline>
</glyph>
<glyph name="s" format="2">
  <advance width="508"/>
  <unicode hex="0073"/>
  <outline>
    <contour>
      <point x="68" y="47" type="line"/>
      <point x="82" y="36"/>
      <point x="90" y="34" type="qcurve"/>
      <point x="185" y="-7"/>
      <point x="385" y="18"/>
      <point x="432" y="75" type="qcurve"/>
      <point x="454" y="101"/>
      <point x="459" y="150"/>
      <point x="436" y="189"/>
      <point x="383" y="229"/>
      <point x="325" y="258"/>
      <point x="286" y="275" type="qcurve"/>
      <point x="239" y="283"/>
      <point x="230" y="302"/>
      <point x="255" y="328" type="qcurve"/>
      <point x="275" y="352"/>
      <point x="315" y="360"/>
      <point x="356" y="344" type="qcurve"/>
      <point x="364" y="341"/>
      <point x="378" y="332" type="qcurve"/>
      <point x="445" y="462" type="line"/>
      <point x="441" y="465"/>
      <point x="423" y="473" type="qcurve"/>
      <point x="327" y="514"/>
      <point x="127" y="491"/>
      <point x="80" y="434" type="qcurve"/>
      <point x="42" y="390"/>
      <point x="58" y="306"/>
      <point x="138" y="237"/>
      <point x="204" y="211" type="qcurve"/>
      <point x="246" y="204"/>
      <point x="258" y="201" type="qcurve"/>
      <point x="303" y="189"/>
      <point x="280" y="162" type="qcurve"/>
      <point x="260" y="138"/>
      <point x="197" y="130"/>
      <point x="157" y="147" type="qcurve"/>
      <point x="142" y="152"/>
      <point x="135" y="159" type="qcurve"/>
    </contour>
  </outline>
</glyph>
<glyph name="u" format="2">
  <advance width="598"/>
  <unicode hex="0075"/>
  <outline>
    <contour>
      <point x="548" y="2" type="line"/>
      <point x="548" y="518" type="line"/>
      <point x="379" y="518" type="line"/>
      <point x="379" y="186" type="line"/>
      <point x="347" y="151"/>
      <point x="299" y="151" type="qcurve"/>
      <point x="250" y="151"/>
      <point x="218" y="188" type="qcurve"/>
      <point x="218" y="518" type="line"/>
      <point x="51" y="518" type="line"/>
      <point x="54" y="187" type="line"/>
      <point x="78" y="104"/>
      <point x="212" y="0"/>
      <point x="299" y="0" type="qcurve"/>
      <point x="340" y="0"/>
      <point x="379" y="12" type="qcurve"/>
      <point x="379" y="2" type="line"/>
    </contour>
  </outline>
</glyph>
<glyph name="braceright" format="2">
  <advance width="419"/>
  <unicode hex="007D"/>
  <outline>
    <contour>
      <point x="179" y="-85" type="line"/>
      <point x="194" y="-92"/>
      <point x="216" y="-92" type="qcurve"/>
      <point x="260" y="-92"/>
      <point x="329" y="-8"/>
      <point x="341" y="58" type="qcurve"/>
      <point x="342" y="228" type="line"/>
      <point x="451" y="358" type="line"/>
      <point x="342" y="485" type="line"/>
      <point x="341" y="655" type="line"/>
      <point x="329" y="721"/>
      <point x="260" y="805"/>
      <point x="216" y="805" type="qcurve"/>
      <point x="194" y="805"/>
      <point x="179" y="798" type="qcurve"/>
      <point x="179" y="663" type="line"/>
      <point x="195" y="684"/>
      <point x="216" y="684" type="qcurve"/>
      <point x="240" y="684"/>
      <point x="257" y="654" type="qcurve"/>
      <point x="256" y="470" type="line"/>
      <point x="338" y="369" type="line"/>
      <point x="257" y="228" type="line"/>
      <point x="257" y="58" type="line"/>
      <point x="241" y="29"/>
      <point x="216" y="29" type="qcurve"/>
      <point x="195" y="29"/>
      <point x="179" y="50" type="qcurve"/>
    </contour>
  </outline>
</glyph>
<glyph name="yen" format="2">
  <advance width="612"/>
  <unicode hex="00A5"/>
  <outline>
    <contour>
      <point x="580" y="396" type="line"/>
      <point x="36" y="396" type="line"/>
      <point x="36" y="334" type="line"/>
      <point x="580" y="334" type="line"/>
    </contour>
    <contour>
      <point x="580" y="258" type="line"/>
      <point x="36" y="258" type="line"/>
      <point x="36" y="196" type="line"/>
      <point x="580" y="196" type="line"/>
    </contour>
    <contour>
      <point x="229" y="451" type="line"/>
      <point x="229" y="1" type="line"/>
      <point x="381" y="1" type="line"/>
      <point x="381" y="450" type="line"/>
      <point x="382" y="450" type="line"/>
      <point x="582" y="765" type="line"/>
      <point x="430" y="765" type="line"/>
      <point x="306" y="594" type="line"/>
      <point x="182" y="765" type="line"/>
      <point x="30" y="765" type="line"/>
    </contour>
  </outline>
</glyph>
<glyph name="copyright" format="2">
  <advance width="864"/>
  <unicode hex="00A9"/>
  <outline>
    <contour>
      <point x="492" y="196" type="qcurve"/>
      <point x="492" y="291" type="line"/>
      <point x="484" y="289"/>
      <point x="476" y="289" type="qcurve"/>
      <point x="448" y="289"/>
      <point x="409" y="328"/>
      <point x="409" y="355" type="qcurve"/>
      <point x="409" y="384"/>
      <point x="448" y="422"/>
      <point x="476" y="422" type="qcurve"/>
      <point x="484" y="422"/>
      <point x="492" y="420" type="qcurve"/>
      <point x="492" y="516" type="line"/>
      <point x="484" y="517"/>
      <point x="476" y="517" type="qcurve"/>
      <point x="409" y="517"/>
      <point x="315" y="422"/>
      <point x="315" y="355" type="qcurve"/>
      <point x="315" y="289"/>
      <point x="409" y="195"/>
      <point x="476" y="195" type="qcurve"/>
      <point x="484" y="195"/>
    </contour>
    <contour>
      <point x="779" y="380" type="qcurve"/>
      <point x="779" y="477"/>
      <point x="686" y="642"/>
      <point x="526" y="738"/>
      <point x="336" y="738"/>
      <point x="176" y="642"/>
      <point x="83" y="477"/>
      <point x="83" y="380" type="qcurve"/>
      <point x="83" y="282"/>
      <point x="176" y="117"/>
      <point x="336" y="21"/>
      <point x="526" y="21"/>
      <point x="686" y="117"/>
      <point x="779" y="282"/>
    </contour>
    <contour>
      <point x="724" y="378" type="qcurve"/>
      <point x="724" y="253"/>
      <point x="553" y="77"/>
      <point x="309" y="77"/>
      <point x="138" y="253"/>
      <point x="138" y="378" type="qcurve"/>
      <point x="138" y="502"/>
      <point x="309" y="678"/>
      <point x="553" y="678"/>
      <point x="724" y="502"/>
    </contour>
  </outline>
</glyph>
<glyph name="paragraph" format="2">
  <advance width="776"/>
  <unicode hex="00B6"/>
  <outline>
    <contour>
      <point x="550" y="774" type="line"/>
      <point x="550" y="-2" type="line"/>
      <point x="702" y="-2" type="line"/>
      <point x="702" y="774" type="line"/>
    </contour>
    <contour>
      <point x="332" y="3" type="line"/>
      <point x="484" y="3" type="line"/>
      <point x="484" y="779" type="line"/>
      <point x="332" y="779" type="line"/>
      <point x="324" y="780"/>
      <point x="308" y="780" type="qcurve"/>
      <point x="201" y="780"/>
      <point x="50" y="630"/>
      <point x="50" y="416"/>
      <point x="201" y="265"/>
      <point x="308" y="265" type="qcurve"/>
      <point x="324" y="265"/>
      <point x="332" y="266" type="qcurve"/>
    </contour>
  </outline>
</glyph>
<glyph name="questiondown" format="2">
  <advance width="384"/>
  <unicode hex="00BF"/>
  <outline>
    <contour>
      <point x="334" y="829" type="line"/>
      <point x="182" y="829" type="line"/>
      <point x="182" y="687" type="line"/>
      <point x="334" y="687" type="line"/>
    </contour>
    <contour>
      <point x="334" y="-1" type="qcurve"/>
      <point x="334" y="152" type="line"/>
      <point x="322" y="149"/>
      <point x="308" y="149" type="qcurve"/>
      <point x="263" y="149"/>
      <point x="201" y="211"/>
      <point x="201" y="255" type="qcurve"/>
      <point x="201" y="300"/>
      <point x="263" y="362"/>
      <point x="308" y="362" type="qcurve"/>
      <point x="322" y="362"/>
      <point x="334" y="359" type="qcurve"/>
      <point x="334" y="387" type="line"/>
      <point x="334" y="512" type="line"/>
      <point x="334" y="597" type="line"/>
      <point x="182" y="597" type="line"/>
      <point x="182" y="480" type="line"/>
      <point x="122" y="447"/>
      <point x="50" y="327"/>
      <point x="50" y="255" type="qcurve"/>
      <point x="50" y="148"/>
      <point x="201" y="-2"/>
      <point x="308" y="-2" type="qcurve"/>
      <point x="325" y="-2"/>
    </contour>
  </outline>
</glyph>
<glyph name="germandbls" format="2">
  <advance width="771"/>
  <unicode hex="00DF"/>
  <outline>
    <contour>
      <point x="239" y="47" type="line"/>
      <point x="253" y="36"/>
      <point x="261" y="34" type="qcurve"/>
      <point x="356" y="-7"/>
      <point x="556" y="18"/>
      <point x="603" y="75" type="qcurve"/>
      <point x="625" y="101"/>
      <point x="630" y="150"/>
      <point x="607" y="189"/>
      <point x="554" y="229"/>
      <point x="496" y="258"/>
      <point x="457" y="275" type="qcurve"/>
      <point x="410" y="283"/>
      <point x="401" y="302"/>
      <point x="426" y="328" type="qcurve"/>
      <point x="446" y="352"/>
      <point x="486" y="360"/>
      <point x="527" y="344" type="qcurve"/>
      <point x="535" y="341"/>
      <point x="549" y="332" type="qcurve"/>
      <point x="560" y="327" type="line"/>
      <point x="573" y="326"/>
      <point x="586" y="326" type="qcurve"/>
      <point x="628" y="326"/>
      <point x="686" y="354"/>
      <point x="719" y="396"/>
      <point x="737" y="468"/>
      <point x="742" y="535"/>
      <point x="742" y="584" type="qcurve"/>
      <point x="742" y="686"/>
      <point x="541" y="841"/>
      <point x="428" y="841" type="qcurve"/>
      <point x="254" y="871" type="line"/>
      <point x="167" y="871"/>
      <point x="33" y="767"/>
      <point x="9" y="684" type="qcurve"/>
      <point x="6" y="2" type="line"/>
      <point x="173" y="2" type="line"/>
      <point x="173" y="683" type="line"/>
      <point x="205" y="720"/>
      <point x="254" y="720" type="qcurve"/>
      <point x="428" y="697" type="line"/>
      <point x="477" y="697"/>
      <point x="591" y="626"/>
      <point x="591" y="584" type="qcurve"/>
      <point x="591" y="539"/>
      <point x="529" y="477"/>
      <point x="484" y="477" type="qcurve"/>
      <point x="483" y="477"/>
      <point x="482" y="477" type="qcurve"/>
      <point x="420" y="501"/>
      <point x="339" y="506"/>
      <point x="283" y="473"/>
      <point x="251" y="434" type="qcurve"/>
      <point x="213" y="390"/>
      <point x="229" y="306"/>
      <point x="309" y="237"/>
      <point x="375" y="211" type="qcurve"/>
      <point x="417" y="204"/>
      <point x="429" y="201" type="qcurve"/>
      <point x="474" y="189"/>
      <point x="451" y="162" type="qcurve"/>
      <point x="431" y="138"/>
      <point x="368" y="130"/>
      <point x="328" y="147" type="qcurve"/>
      <point x="313" y="152"/>
      <point x="306" y="159" type="qcurve"/>
    </contour>
  </outline>
</glyph>
<glyph name="tildecomb" format="2">
  <unicode hex="0303"/>
  <outline>
    <contour>
      <point x="126" y="919" type="line"/>
      <point x="116" y="909" type="line"/>
      <point x="107" y="899"/>
      <point x="73" y="879"/>
      <point x="58" y="879" type="qcurve"/>
      <point x="36" y="879"/>
      <point x="13" y="879" type="qcurve"/>
      <point x="-3" y="879"/>
      <point x="-50" y="906"/>
      <point x="-67" y="906" type="qcurve"/>
      <point x="-92" y="906"/>
      <point x="-124" y="878" type="qcurve"/>
      <point x="-124" y="802" type="line"/>
      <point x="-115" y="809" type="line"/>
      <point x="-106" y="816"/>
      <point x="-76" y="830"/>
      <point x="-65" y="830" type="qcurve"/>
      <point x="-49" y="830"/>
      <point x="-4" y="802"/>
      <point x="12" y="802" type="qcurve"/>
      <point x="62" y="802" type="line"/>
      <point x="78" y="802"/>
      <point x="110" y="823"/>
      <point x="125" y="841"/>
      <point x="126" y="843" type="qcurve"/>
    </contour>
  </outline>
</glyph>
<glyph name="uni0306" format="2">
  <unicode hex="0306"/>
  <outline>
    <contour>
      <point x="-183" y="999" type="qcurve"/>
      <point x="-194" y="1035" type="line"/>
      <point x="-197" y="1018"/>
      <point x="-197" y="999" type="qcurve"/>
      <point x="-197" y="920"/>
      <point x="-82" y="808"/>
      <point x="-1" y="808" type="qcurve"/>
      <point x="81" y="808"/>
      <point x="196" y="920"/>
      <point x="196" y="999" type="qcurve"/>
      <point x="196" y="1018"/>
      <point x="193" y="1035" type="qcurve"/>
      <point x="184" y="999" type="line"/>
      <point x="184" y="949"/>
      <point x="73" y="860"/>
      <point x="0" y="860" type="qcurve"/>
      <point x="-72" y="860"/>
      <point x="-183" y="949"/>
    </contour>
  </outline>
</glyph>
<glyph name="uni0326" format="2">
  <unicode hex="0326"/>
  <outline>
    <contour>
      <point x="-76" y="98" type="line"/>
      <point x="-33" y="98" type="line"/>
      <point x="-42" y="-30" type="line"/>
      <point x="16" y="-34" type="line"/>
      <point x="76" y="98" type="line"/>
      <point x="76" y="240" type="line"/>
      <point x="-76" y="240" type="line"/>
    </contour>
  </outline>
</glyph>
<glyph name="uni0987" format="2">
  <advance width="689"/>
  <unicode hex="0987"/>
  <outline>
    <contour>
      <point x="544" y="802" type="line"/>
      <point x="516" y="801" type="line"/>
      <point x="489" y="801"/>
      <point x="413" y="820"/>
      <point x="391" y="842" type="qcurve"/>
      <point x="360" y="873"/>
      <point x="328" y="905" type="qcurve"/>
      <point x="305" y="928"/>
      <point x="277" y="1034"/>
      <point x="254" y="1057" type="qcurve"/>
      <point x="238" y="1073"/>
      <point x="173" y="1094"/>
      <point x="143" y="1097"/>
      <point x="134" y="1098" type="qcurve"/>
      <point x="45" y="1010" type="line"/>
      <point x="68" y="1007" type="line"/>
      <point x="91" y="1004"/>
      <point x="152" y="982"/>
      <point x="168" y="966" type="qcurve"/>
      <point x="191" y="943"/>
      <point x="214" y="841"/>
      <point x="237" y="818" type="qcurve"/>
      <point x="308" y="747" type="line"/>
      <point x="322" y="733"/>
      <point x="362" y="717"/>
      <point x="400" y="713"/>
      <point x="435" y="713"/>
      <point x="455" y="715"/>
      <point x="455" y="714" type="qcurve"/>
    </contour>
    <contour>
      <point x="236" y="472" type="line"/>
      <point x="270" y="505"/>
      <point x="356" y="505"/>
      <point x="388" y="473" type="qcurve"/>
      <point x="420" y="441"/>
      <point x="419" y="355"/>
      <point x="386" y="321" type="qcurve"/>
      <point x="352" y="288"/>
      <point x="266" y="287"/>
      <point x="234" y="319" type="qcurve"/>
      <point x="234" y="319"/>
      <point x="233" y="320" type="qcurve"/>
      <point x="131" y="217" type="line"/>
      <point x="178" y="169"/>
      <point x="297" y="126"/>
      <point x="435" y="156"/>
      <point x="492" y="214" type="qcurve"/>
      <point x="569" y="291"/>
      <point x="571" y="503"/>
      <point x="495" y="580" type="qcurve"/>
      <point x="418" y="657"/>
      <point x="205" y="655"/>
      <point x="128" y="578" type="qcurve"/>
    </contour>
    <contour>
      <point x="689" y="803" type="line"/>
      <point x="0" y="803" type="line"/>
      <point x="0" y="671" type="line"/>
      <point x="689" y="671" type="line"/>
    </contour>
    <contour>
      <point x="434" y="-1" type="line"/>
      <point x="593" y="-1" type="line"/>
      <point x="338" y="221" type="line"/>
      <point x="137" y="219" type="line"/>
    </contour>
  </outline>
</glyph>
<glyph name="uni0989" format="2">
  <advance width="612"/>
  <unicode hex="0989"/>
  <outline>
    <contour>
      <point x="544" y="802" type="line"/>
      <point x="516" y="801" type="line"/>
      <point x="489" y="801"/>
      <point x="413" y="820"/>
      <point x="391" y="842" type="qcurve"/>
      <point x="360" y="873"/>
      <point x="328" y="905" type="qcurve"/>
      <point x="305" y="928"/>
      <point x="277" y="1034"/>
      <point x="254" y="1057" type="qcurve"/>
      <point x="238" y="1073"/>
      <point x="173" y="1094"/>
      <point x="143" y="1097"/>
      <point x="134" y="1098" type="qcurve"/>
      <point x="45" y="1010" type="line"/>
      <point x="68" y="1007" type="line"/>
      <point x="91" y="1004"/>
      <point x="152" y="982"/>
      <point x="168" y="966" type="qcurve"/>
      <point x="191" y="943"/>
      <point x="214" y="841"/>
      <point x="237" y="818" type="qcurve"/>
      <point x="308" y="747" type="line"/>
      <point x="322" y="733"/>
      <point x="362" y="717"/>
      <point x="400" y="713"/>
      <point x="435" y="713"/>
      <point x="455" y="715"/>
      <point x="455" y="714" type="qcurve"/>
    </contour>
    <contour>
      <point x="304" y="751" type="line"/>
      <point x="304" y="366" type="line"/>
      <point x="436" y="366" type="line"/>
      <point x="436" y="751" type="line"/>
    </contour>
    <contour>
      <point x="611" y="803" type="line"/>
      <point x="-5" y="803" type="line"/>
      <point x="-5" y="671" type="line"/>
      <point x="611" y="671" type="line"/>
    </contour>
    <contour>
      <point x="306" y="367" type="qcurve"/>
      <point x="353" y="366"/>
      <point x="414" y="306"/>
      <point x="414" y="260" type="qcurve"/>
      <point x="414" y="215"/>
      <point x="352" y="155"/>
      <point x="305" y="154" type="qcurve"/>
      <point x="258" y="155"/>
      <point x="196" y="215"/>
      <point x="196" y="260" type="qcurve"/>
      <point x="196" y="261"/>
      <point x="196" y="261" type="qcurve"/>
      <point x="51" y="261" type="line"/>
      <point x="51" y="212"/>
      <point x="83" y="121"/>
      <point x="144" y="47"/>
      <point x="242" y="3"/>
      <point x="304" y="3" type="qcurve"/>
      <point x="412" y="3"/>
      <point x="562" y="151"/>
      <point x="565" y="260" type="qcurve"/>
      <point x="568" y="368"/>
      <point x="414" y="518"/>
      <point x="304" y="518" type="qcurve"/>
      <point x="305" y="518"/>
    </contour>
  </outline>
</glyph>
<glyph name="uni098F" format="2">
  <advance width="680"/>
  <unicode hex="098F"/>
  <outline>
    <contour>
      <point x="12" y="318" type="qcurve"/>
      <point x="180" y="318" type="line"/>
      <point x="154" y="288"/>
      <point x="154" y="248" type="qcurve"/>
      <point x="153" y="198"/>
      <point x="190" y="166" type="qcurve"/>
      <point x="554" y="166" type="line"/>
      <point x="554" y="0" type="line"/>
      <point x="190" y="2" type="line"/>
      <point x="107" y="26"/>
      <point x="2" y="160"/>
      <point x="2" y="248" type="qcurve"/>
      <point x="2" y="284"/>
    </contour>
    <contour>
      <point x="305" y="752" type="line"/>
      <point x="340" y="761"/>
      <point x="376" y="761" type="qcurve"/>
      <point x="463" y="761"/>
      <point x="597" y="657"/>
      <point x="621" y="574" type="qcurve"/>
      <point x="624" y="-3" type="line"/>
      <point x="457" y="-3" type="line"/>
      <point x="457" y="573" type="line"/>
      <point x="425" y="610"/>
      <point x="376" y="610" type="qcurve"/>
      <point x="336" y="610"/>
      <point x="305" y="584" type="qcurve"/>
    </contour>
  </outline>
</glyph>
<glyph name="uni0995" format="2">
  <advance width="1095"/>
  <unicode hex="0995"/>
  <outline>
    <contour>
      <point x="525" y="218" type="qcurve"/>
      <point x="678" y="218" type="line"/>
      <point x="674" y="231"/>
      <point x="674" y="244" type="qcurve"/>
      <point x="674" y="289"/>
      <point x="736" y="352"/>
      <point x="780" y="352" type="qcurve"/>
      <point x="826" y="352"/>
      <point x="888" y="290"/>
      <point x="888" y="244" type="qcurve"/>
      <point x="888" y="231"/>
      <point x="884" y="218" type="qcurve"/>
      <point x="1037" y="218" type="line"/>
      <point x="1038" y="231"/>
      <point x="1038" y="244" type="qcurve"/>
      <point x="1038" y="352"/>
      <point x="888" y="502"/>
      <point x="780" y="502" type="qcurve"/>
      <point x="674" y="502"/>
      <point x="524" y="352"/>
      <point x="524" y="244" type="qcurve"/>
      <point x="524" y="231"/>
    </contour>
    <contour>
      <point x="582" y="626" type="line"/>
      <point x="70" y="426" type="line"/>
      <point x="70" y="274" type="line"/>
      <point x="582" y="74" type="line"/>
      <point x="582" y="226" type="line"/>
      <point x="214" y="350" type="line"/>
      <point x="582" y="474" type="line"/>
    </contour>
    <contour>
      <point x="1088" y="803" type="line"/>
      <point x="0" y="803" type="line"/>
      <point x="0" y="671" type="line"/>
      <point x="1088" y="671" type="line"/>
    </contour>
    <contour>
      <point x="524" y="777" type="line"/>
      <point x="524" y="1" type="line"/>
      <point x="670" y="1" type="line"/>
      <point x="670" y="777" type="line"/>
    </contour>
  </outline>
</glyph>
<glyph name="uni099F" format="2">
  <advance width="642"/>
  <unicode hex="099F"/>
  <outline>
    <contour>
      <point x="544" y="802" type="line"/>
      <point x="516" y="801" type="line"/>
      <point x="489" y="801"/>
      <point x="413" y="820"/>
      <point x="391" y="842" type="qcurve"/>
      <point x="360" y="873"/>
      <point x="328" y="905" type="qcurve"/>
      <point x="305" y="928"/>
      <point x="277" y="1034"/>
      <point x="254" y="1057" type="qcurve"/>
      <point x="238" y="1073"/>
      <point x="173" y="1094"/>
      <point x="143" y="1097"/>
      <point x="134" y="1098" type="qcurve"/>
      <point x="45" y="1010" type="line"/>
      <point x="68" y="1007" type="line"/>
      <point x="91" y="1004"/>
      <point x="152" y="982"/>
      <point x="168" y="966" type="qcurve"/>
      <point x="191" y="943"/>
      <point x="214" y="841"/>
      <point x="237" y="818" type="qcurve"/>
      <point x="308" y="747" type="line"/>
      <point x="322" y="733"/>
      <point x="362" y="717"/>
      <point x="400" y="713"/>
      <point x="435" y="713"/>
      <point x="455" y="715"/>
      <point x="455" y="714" type="qcurve"/>
    </contour>
    <contour>
      <point x="639" y="803" type="line"/>
      <point x="0" y="803" type="line"/>
      <point x="0" y="671" type="line"/>
      <point x="639" y="671" type="line"/>
    </contour>
    <contour>
      <point x="616" y="184" type="qcurve"/>
      <point x="619" y="373" type="line"/>
      <point x="452" y="373" type="line"/>
      <point x="452" y="185" type="line"/>
      <point x="424" y="151"/>
      <point x="246" y="152"/>
      <point x="217" y="185" type="qcurve"/>
      <point x="217" y="761" type="line"/>
      <point x="50" y="761" type="line"/>
      <point x="53" y="184" type="line"/>
      <point x="70" y="125"/>
      <point x="158" y="41"/>
      <point x="271" y="3"/>
      <point x="399" y="4"/>
      <point x="511" y="43"/>
      <point x="600" y="126"/>
    </contour>
  </outline>
</glyph>
<glyph name="uni09B9" format="2">
  <advance width="689"/>
  <unicode hex="09B9"/>
  <outline>
    <contour>
      <point x="236" y="472" type="qcurve"/>
      <point x="270" y="505"/>
      <point x="356" y="505"/>
      <point x="388" y="473" type="qcurve"/>
      <point x="420" y="441"/>
      <point x="419" y="355"/>
      <point x="386" y="321" type="qcurve"/>
      <point x="352" y="288"/>
      <point x="266" y="287"/>
      <point x="234" y="319" type="qcurve"/>
      <point x="234" y="319"/>
      <point x="233" y="320" type="qcurve"/>
      <point x="131" y="217" type="line"/>
      <point x="178" y="169"/>
      <point x="297" y="126"/>
      <point x="435" y="156"/>
      <point x="492" y="214" type="qcurve"/>
      <point x="569" y="291"/>
      <point x="571" y="503"/>
      <point x="495" y="580" type="qcurve"/>
      <point x="418" y="657"/>
      <point x="205" y="655"/>
      <point x="128" y="578" type="qcurve"/>
      <point x="236" y="472"/>
    </contour>
    <contour>
      <point x="689" y="803" type="line"/>
      <point x="0" y="803" type="line"/>
      <point x="0" y="671" type="line"/>
      <point x="689" y="671" type="line"/>
    </contour>
    <contour>
      <point x="434" y="-1" type="line"/>
      <point x="593" y="-1" type="line"/>
      <point x="338" y="221" type="line"/>
      <point x="137" y="219" type="line"/>
    </contour>
  </outline>
</glyph>
<glyph name="uni09BE" format="2">
  <advance width="436"/>
  <unicode hex="09BE"/>
  <outline>
    <contour>
      <point x="434" y="803" type="line"/>
      <point x="273" y="803" type="line"/>
      <point x="273" y="671" type="line"/>
      <point x="434" y="671" type="line"/>
    </contour>
    <contour>
      <point x="232" y="487" type="line"/>
      <point x="340" y="594" type="line"/>
      <point x="128" y="782" type="line"/>
      <point x="-73" y="785" type="line"/>
    </contour>
    <contour>
      <point x="234" y="847" type="line"/>
      <point x="234" y="-2" type="line"/>
      <point x="386" y="-2" type="line"/>
      <point x="386" y="847" type="line"/>
    </contour>
  </outline>
</glyph>
<glyph name="A.0" format="2">
  <advance width="752"/>
  <outline>
    <contour>
      <point x="560" y="0" type="line"/>
      <point x="471" y="228" type="line"/>
      <point x="471" y="227" type="line"/>
      <point x="271" y="227" type="line"/>
      <point x="212" y="0" type="line"/>
      <point x="60" y="0" type="line"/>
      <point x="260" y="769" type="line"/>
      <point x="412" y="769" type="line"/>
      <point x="712" y="0" type="line"/>
    </contour>
    <contour>
      <point x="417" y="367" type="line"/>
      <point x="351" y="535" type="line"/>
      <point x="307" y="367" type="line"/>
    </contour>
  </outline>
</glyph>
<glyph name="Aacute.0" format="2">
  <advance width="752"/>
  <outline>
    <contour>
      <point x="346" y="833" type="line"/>
      <point x="238" y="940" type="line"/>
      <point x="420" y="1122" type="line"/>
      <point x="528" y="1015" type="line"/>
    </contour>
    <contour>
      <point x="560" y="0" type="line"/>
      <point x="471" y="228" type="line"/>
      <point x="471" y="227" type="line"/>
      <point x="271" y="227" type="line"/>
      <point x="212" y="0" type="line"/>
      <point x="60" y="0" type="line"/>
      <point x="260" y="769" type="line"/>
      <point x="412" y="769" type="line"/>
      <point x="712" y="0" type="line"/>
    </contour>
    <contour>
      <point x="417" y="367" type="line"/>
      <point x="351" y="535" type="line"/>
      <point x="307" y="367" type="line"/>
    </contour>
  </outline>
</glyph>
<glyph name="Aacute.1" format="2">
  <advance width="752"/>
  <outline>
    <contour>
      <point x="526" y="833" type="line"/>
      <point x="418" y="940" type="line"/>
      <point x="600" y="1122" type="line"/>
      <point x="708" y="1015" type="line"/>
    </contour>
    <contour>
      <point x="650" y="0" type="line"/>
      <point x="561" y="228" type="line"/>
      <point x="561" y="227" type="line"/>
      <point x="361" y="227" type="line"/>
      <point x="302" y="0" type="line"/>
      <point x="150" y="0" type="line"/>
      <point x="350" y="769" type="line"/>
      <point x="502" y="769" type="line"/>
      <point x="802" y="0" type="line"/>
    </contour>
    <contour>
      <point x="507" y="367" type="line"/>
      <point x="441" y="535" type="line"/>
      <point x="397" y="367" type="line"/>
    </contour>
  </outline>
</glyph>
<glyph name="Abreve.0" format="2">
  <advance width="752"/>
  <outline>
    <contour>
      <point x="163" y="1024" type="line"/>
      <point x="163" y="974"/>
      <point x="219" y="930" type="qcurve"/>
      <point x="274" y="885"/>
      <point x="346" y="885" type="qcurve"/>
      <point x="419" y="885"/>
      <point x="475" y="930" type="qcurve"/>
      <point x="530" y="974"/>
      <point x="530" y="1024" type="qcurve"/>
      <point x="539" y="1060" type="line"/>
      <point x="542" y="1043"/>
      <point x="542" y="1024" type="qcurve"/>
      <point x="542" y="945"/>
      <point x="485" y="889" type="qcurve"/>
      <point x="427" y="833"/>
      <point x="345" y="833" type="qcurve"/>
      <point x="264" y="833"/>
      <point x="207" y="889" type="qcurve"/>
      <point x="149" y="945"/>
      <point x="149" y="1024" type="qcurve"/>
      <point x="149" y="1043"/>
      <point x="152" y="1060" type="qcurve"/>
    </contour>
    <contour>
      <point x="560" y="0" type="line"/>
      <point x="471" y="228" type="line"/>
      <point x="471" y="227" type="line"/>
      <point x="271" y="227" type="line"/>
      <point x="212" y="0" type="line"/>
      <point x="60" y="0" type="line"/>
      <point x="260" y="769" type="line"/>
      <point x="412" y="769" type="line"/>
      <point x="712" y="0" type="line"/>
    </contour>
    <contour>
      <point x="417" y="367" type="line"/>
      <point x="351" y="535" type="line"/>
      <point x="307" y="367" type="line"/>
    </contour>
  </outline>
</glyph>
<glyph name="Abreve.1" format="2">
  <advance width="752"/>
  <outline>
    <contour>
      <point x="343" y="1024" type="line"/>
      <point x="343" y="974"/>
      <point x="399" y="930" type="qcurve"/>
      <point x="454" y="885"/>
      <point x="526" y="885" type="qcurve"/>
      <point x="599" y="885"/>
      <point x="655" y="930" type="qcurve"/>
      <point x="710" y="974"/>
      <point x="710" y="1024" type="qcurve"/>
      <point x="719" y="1060" type="line"/>
      <point x="722" y="1043"/>
      <point x="722" y="1024" type="qcurve"/>
      <point x="722" y="945"/>
      <point x="665" y="889" type="qcurve"/>
      <point x="607" y="833"/>
      <point x="525" y="833" type="qcurve"/>
      <point x="444" y="833"/>
      <point x="387" y="889" type="qcurve"/>
      <point x="329" y="945"/>
      <point x="329" y="1024" type="qcurve"/>
      <point x="329" y="1043"/>
      <point x="332" y="1060" type="qcurve"/>
    </contour>
    <contour>
      <point x="650" y="0" type="line"/>
      <point x="561" y="228" type="line"/>
      <point x="561" y="227" type="line"/>
      <point x="361" y="227" type="line"/>
      <point x="302" y="0" type="line"/>
      <point x="150" y="0" type="line"/>
      <point x="350" y="769" type="line"/>
      <point x="502" y="769" type="line"/>
      <point x="802" y="0" type="line"/>
    </contour>
    <contour>
      <point x="507" y="367" type="line"/>
      <point x="441" y="535" type="line"/>
      <point x="397" y="367" type="line"/>
    </contour>
  </outline>
</glyph>
<glyph name="Acircumflex.0" format="2">
  <advance width="752"/>
  <outline>
    <contour>
      <point x="246" y="832" type="line"/>
      <point x="317" y="1000" type="line"/>
      <point x="318" y="1000" type="line"/>
      <point x="393" y="1000" type="line"/>
      <point x="394" y="1000" type="line"/>
      <point x="446" y="832" type="line"/>
      <point x="370" y="832" type="line"/>
      <point x="350" y="940" type="line"/>
      <point x="322" y="832" type="line"/>
    </contour>
    <contour>
      <point x="560" y="0" type="line"/>
      <point x="471" y="228" type="line"/>
      <point x="471" y="227" type="line"/>
      <point x="271" y="227" type="line"/>
      <point x="212" y="0" type="line"/>
      <point x="60" y="0" type="line"/>
      <point x="260" y="769" type="line"/>
      <point x="412" y="769" type="line"/>
      <point x="712" y="0" type="line"/>
    </contour>
    <contour>
      <point x="417" y="367" type="line"/>
      <point x="351" y="535" type="line"/>
      <point x="307" y="367" type="line"/>
    </contour>
  </outline>
</glyph>
<glyph name="Acircumflex.1" format="2">
  <advance width="752"/>
  <outline>
    <contour>
      <point x="426" y="832" type="line"/>
      <point x="497" y="1000" type="line"/>
      <point x="498" y="1000" type="line"/>
      <point x="573" y="1000" type="line"/>
      <point x="574" y="1000" type="line"/>
      <point x="626" y="832" type="line"/>
      <point x="550" y="832" type="line"/>
      <point x="530" y="940" type="line"/>
      <point x="502" y="832" type="line"/>
    </contour>
    <contour>
      <point x="650" y="0" type="line"/>
      <point x="561" y="228" type="line"/>
      <point x="561" y="227" type="line"/>
      <point x="361" y="227" type="line"/>
      <point x="302" y="0" type="line"/>
      <point x="150" y="0" type="line"/>
      <point x="350" y="769" type="line"/>
      <point x="502" y="769" type="line"/>
      <point x="802" y="0" type="line"/>
    </contour>
    <contour>
      <point x="507" y="367" type="line"/>
      <point x="441" y="535" type="line"/>
      <point x="397" y="367" type="line"/>
    </contour>
  </outline>
</glyph>
<glyph name="Adieresis.0" format="2">
  <advance width="752"/>
  <outline>
    <contour>
      <point x="370" y="833" type="line"/>
      <point x="370" y="975" type="line"/>
      <point x="522" y="975" type="line"/>
      <point x="522" y="833" type="line"/>
    </contour>
    <contour>
      <point x="170" y="833" type="line"/>
      <point x="170" y="975" type="line"/>
      <point x="322" y="975" type="line"/>
      <point x="322" y="833" type="line"/>
    </contour>
    <contour>
      <point x="560" y="0" type="line"/>
      <point x="471" y="228" type="line"/>
      <point x="471" y="227" type="line"/>
      <point x="271" y="227" type="line"/>
      <point x="212" y="0" type="line"/>
      <point x="60" y="0" type="line"/>
      <point x="260" y="769" type="line"/>
      <point x="412" y="769" type="line"/>
      <point x="712" y="0" type="line"/>
    </contour>
    <contour>
      <point x="417" y="367" type="line"/>
      <point x="351" y="535" type="line"/>
      <point x="307" y="367" type="line"/>
    </contour>
  </outline>
</glyph>
<glyph name="Adieresis.1" format="2">
  <advance width="752"/>
  <outline>
    <contour>
      <point x="550" y="833" type="line"/>
      <point x="550" y="975" type="line"/>
      <point x="702" y="975" type="line"/>
      <point x="702" y="833" type="line"/>
    </contour>
    <contour>
      <point x="350" y="833" type="line"/>
      <point x="350" y="975" type="line"/>
      <point x="502" y="975" type="line"/>
      <point x="502" y="833" type="line"/>
    </contour>
    <contour>
      <point x="650" y="0" type="line"/>
      <point x="561" y="228" type="line"/>
      <point x="561" y="227" type="line"/>
      <point x="361" y="227" type="line"/>
      <point x="302" y="0" type="line"/>
      <point x="150" y="0" type="line"/>
      <point x="350" y="769" type="line"/>
      <point x="502" y="769" type="line"/>
      <point x="802" y="0" type="line"/>
    </contour>
    <contour>
      <point x="507" y="367" type="line"/>
      <point x="441" y="535" type="line"/>
      <point x="397" y="367" type="line"/>
    </contour>
  </outline>
</glyph>
<glyph name="Agrave.0" format="2">
  <advance width="752"/>
  <outline>
    <contour>
      <point x="346" y="833" type="line"/>
      <point x="164" y="1015" type="line"/>
      <point x="272" y="1122" type="line"/>
      <point x="454" y="940" type="line"/>
    </contour>
    <contour>
      <point x="560" y="0" type="line"/>
      <point x="471" y="228" type="line"/>
      <point x="471" y="227" type="line"/>
      <point x="271" y="227" type="line"/>
      <point x="212" y="0" type="line"/>
      <point x="60" y="0" type="line"/>
      <point x="260" y="769" type="line"/>
      <point x="412" y="769" type="line"/>
      <point x="712" y="0" type="line"/>
    </contour>
    <contour>
      <point x="417" y="367" type="line"/>
      <point x="351" y="535" type="line"/>
      <point x="307" y="367" type="line"/>
    </contour>
  </outline>
</glyph>
<glyph name="Agrave.1" format="2">
  <advance width="752"/>
  <outline>
    <contour>
      <point x="526" y="833" type="line"/>
      <point x="344" y="1015" type="line"/>
      <point x="452" y="1122" type="line"/>
      <point x="634" y="940" type="line"/>
    </contour>
    <contour>
      <point x="650" y="0" type="line"/>
      <point x="561" y="228" type="line"/>
      <point x="561" y="227" type="line"/>
      <point x="361" y="227" type="line"/>
      <point x="302" y="0" type="line"/>
      <point x="150" y="0" type="line"/>
      <point x="350" y="769" type="line"/>
      <point x="502" y="769" type="line"/>
      <point x="802" y="0" type="line"/>
    </contour>
    <contour>
      <point x="507" y="367" type="line"/>
      <point x="441" y="535" type="line"/>
      <point x="397" y="367" type="line"/>
    </contour>
  </outline>
</glyph>
<glyph name="Amacron.1" format="2">
  <advance width="752"/>
  <outline>
    <contour>
      <point x="662" y="909" type="line"/>
      <point x="662" y="833" type="line"/>
      <point x="390" y="833" type="line"/>
      <point x="390" y="909" type="line"/>
    </contour>
    <contour>
      <point x="650" y="0" type="line"/>
      <point x="561" y="228" type="line"/>
      <point x="561" y="227" type="line"/>
      <point x="361" y="227" type="line"/>
      <point x="302" y="0" type="line"/>
      <point x="150" y="0" type="line"/>
      <point x="350" y="769" type="line"/>
      <point x="502" y="769" type="line"/>
      <point x="802" y="0" type="line"/>
    </contour>
    <contour>
      <point x="507" y="367" type="line"/>
      <point x="441" y="535" type="line"/>
      <point x="397" y="367" type="line"/>
    </contour>
  </outline>
</glyph>
<glyph name="Aogonek.0" format="2">
  <advance width="752"/>
  <outline>
    <contour>
      <point x="705" y="-252" type="line"/>
      <point x="705" y="-252"/>
      <point x="692" y="-252" type="qcurve"/>
      <point x="638" y="-252"/>
      <point x="601" y="-214" type="qcurve"/>
      <point x="563" y="-177"/>
      <point x="563" y="-124" type="qcurve"/>
      <point x="563" y="-70"/>
      <point x="601" y="-32" type="qcurve"/>
      <point x="638" y="5"/>
      <point x="692" y="5" type="qcurve"/>
      <point x="705" y="5" type="line"/>
      <point x="705" y="-72" type="line"/>
      <point x="697" y="-70"/>
      <point x="692" y="-70" type="qcurve"/>
      <point x="670" y="-70"/>
      <point x="654" y="-86" type="qcurve"/>
      <point x="638" y="-102"/>
      <point x="638" y="-124" type="qcurve"/>
      <point x="638" y="-146"/>
      <point x="654" y="-161" type="qcurve"/>
      <point x="669" y="-177"/>
      <point x="692" y="-177" type="qcurve"/>
      <point x="697" y="-177"/>
      <point x="705" y="-175" type="qcurve"/>
    </contour>
    <contour>
      <point x="560" y="0" type="line"/>
      <point x="471" y="228" type="line"/>
      <point x="471" y="227" type="line"/>
      <point x="271" y="227" type="line"/>
      <point x="212" y="0" type="line"/>
      <point x="60" y="0" type="line"/>
      <point x="260" y="769" type="line"/>
      <point x="412" y="769" type="line"/>
      <point x="712" y="0" type="line"/>
    </contour>
    <contour>
      <point x="417" y="367" type="line"/>
      <point x="351" y="535" type="line"/>
      <point x="307" y="367" type="line"/>
    </contour>
  </outline>
</glyph>
<glyph name="Aogonek.1" format="2">
  <advance width="752"/>
  <outline>
    <contour>
      <point x="885" y="-252" type="line"/>
      <point x="885" y="-252"/>
      <point x="872" y="-252" type="qcurve"/>
      <point x="818" y="-252"/>
      <point x="781" y="-214" type="qcurve"/>
      <point x="743" y="-177"/>
      <point x="743" y="-124" type="qcurve"/>
      <point x="743" y="-70"/>
      <point x="781" y="-32" type="qcurve"/>
      <point x="818" y="5"/>
      <point x="872" y="5" type="qcurve"/>
      <point x="885" y="5" type="line"/>
      <point x="885" y="-72" type="line"/>
      <point x="877" y="-70"/>
      <point x="872" y="-70" type="qcurve"/>
      <point x="850" y="-70"/>
      <point x="834" y="-86" type="qcurve"/>
      <point x="818" y="-102"/>
      <point x="818" y="-124" type="qcurve"/>
      <point x="818" y="-146"/>
      <point x="834" y="-161" type="qcurve"/>
      <point x="849" y="-177"/>
      <point x="872" y="-177" type="qcurve"/>
      <point x="877" y="-177"/>
      <point x="885" y="-175" type="qcurve"/>
    </contour>
    <contour>
      <point x="650" y="0" type="line"/>
      <point x="561" y="228" type="line"/>
      <point x="561" y="227" type="line"/>
      <point x="361" y="227" type="line"/>
      <point x="302" y="0" type="line"/>
      <point x="150" y="0" type="line"/>
      <point x="350" y="769" type="line"/>
      <point x="502" y="769" type="line"/>
      <point x="802" y="0" type="line"/>
    </contour>
    <contour>
      <point x="507" y="367" type="line"/>
      <point x="441" y="535" type="line"/>
      <point x="397" y="367" type="line"/>
    </contour>
  </outline>
</glyph>
<glyph name="Aring.0" format="2">
  <advance width="752"/>
  <outline>
    <contour>
      <point x="345" y="792" type="line"/>
      <point x="345" y="792"/>
      <point x="343" y="792" type="qcurve"/>
      <point x="343" y="792"/>
      <point x="336" y="792" type="qcurve"/>
      <point x="285" y="796"/>
      <point x="251" y="833" type="qcurve"/>
      <point x="216" y="869"/>
      <point x="216" y="920" type="qcurve"/>
      <point x="216" y="971"/>
      <point x="251" y="1008" type="qcurve"/>
      <point x="286" y="1045"/>
      <point x="336" y="1049" type="qcurve"/>
      <point x="343" y="1049" type="line"/>
      <point x="343" y="1049"/>
      <point x="345" y="1049" type="qcurve"/>
      <point x="345" y="1049"/>
      <point x="347" y="1049" type="qcurve"/>
      <point x="401" y="1049"/>
      <point x="439" y="1012" type="qcurve"/>
      <point x="476" y="974"/>
      <point x="476" y="920" type="qcurve"/>
      <point x="476" y="867"/>
      <point x="439" y="830" type="qcurve"/>
      <point x="401" y="792"/>
      <point x="347" y="792" type="qcurve"/>
    </contour>
    <contour>
      <point x="346" y="974" type="qcurve"/>
      <point x="342" y="974"/>
      <point x="334" y="972" type="qcurve"/>
      <point x="334" y="973" type="line"/>
      <point x="315" y="969"/>
      <point x="304" y="955" type="qcurve"/>
      <point x="292" y="940"/>
      <point x="292" y="920" type="qcurve"/>
      <point x="292" y="901"/>
      <point x="304" y="887" type="qcurve"/>
      <point x="315" y="872"/>
      <point x="334" y="868" type="qcurve"/>
      <point x="334" y="869" type="line"/>
      <point x="342" y="867"/>
      <point x="346" y="867" type="qcurve"/>
      <point x="350" y="867"/>
      <point x="358" y="869" type="qcurve"/>
      <point x="358" y="868" type="line"/>
      <point x="377" y="872"/>
      <point x="389" y="887" type="qcurve"/>
      <point x="400" y="901"/>
      <point x="400" y="920" type="qcurve"/>
      <point x="400" y="940"/>
      <point x="389" y="955" type="qcurve"/>
      <point x="377" y="969"/>
      <point x="358" y="973" type="qcurve"/>
      <point x="358" y="972" type="line"/>
      <point x="350" y="974"/>
    </contour>
    <contour>
      <point x="560" y="0" type="line"/>
      <point x="471" y="228" type="line"/>
      <point x="471" y="227" type="line"/>
      <point x="271" y="227" type="line"/>
      <point x="212" y="0" type="line"/>
      <point x="60" y="0" type="line"/>
      <point x="260" y="769" type="line"/>
      <point x="412" y="769" type="line"/>
      <point x="712" y="0" type="line"/>
    </contour>
    <contour>
      <point x="417" y="367" type="line"/>
      <point x="351" y="535" type="line"/>
      <point x="307" y="367" type="line"/>
    </contour>
  </outline>
</glyph>
<glyph name="Aring.1" format="2">
  <advance width="752"/>
  <outline>
    <contour>
      <point x="525" y="792" type="line"/>
      <point x="525" y="792"/>
      <point x="523" y="792" type="qcurve"/>
      <point x="523" y="792"/>
      <point x="516" y="792" type="qcurve"/>
      <point x="465" y="796"/>
      <point x="431" y="833" type="qcurve"/>
      <point x="396" y="869"/>
      <point x="396" y="920" type="qcurve"/>
      <point x="396" y="971"/>
      <point x="431" y="1008" type="qcurve"/>
      <point x="466" y="1045"/>
      <point x="516" y="1049" type="qcurve"/>
      <point x="523" y="1049" type="line"/>
      <point x="523" y="1049"/>
      <point x="525" y="1049" type="qcurve"/>
      <point x="525" y="1049"/>
      <point x="527" y="1049" type="qcurve"/>
      <point x="581" y="1049"/>
      <point x="619" y="1012" type="qcurve"/>
      <point x="656" y="974"/>
      <point x="656" y="920" type="qcurve"/>
      <point x="656" y="867"/>
      <point x="619" y="830" type="qcurve"/>
      <point x="581" y="792"/>
      <point x="527" y="792" type="qcurve"/>
    </contour>
    <contour>
      <point x="526" y="974" type="qcurve"/>
      <point x="522" y="974"/>
      <point x="514" y="972" type="qcurve"/>
      <point x="514" y="973" type="line"/>
      <point x="495" y="969"/>
      <point x="484" y="955" type="qcurve"/>
      <point x="472" y="940"/>
      <point x="472" y="920" type="qcurve"/>
      <point x="472" y="901"/>
      <point x="484" y="887" type="qcurve"/>
      <point x="495" y="872"/>
      <point x="514" y="868" type="qcurve"/>
      <point x="514" y="869" type="line"/>
      <point x="522" y="867"/>
      <point x="526" y="867" type="qcurve"/>
      <point x="530" y="867"/>
      <point x="538" y="869" type="qcurve"/>
      <point x="538" y="868" type="line"/>
      <point x="557" y="872"/>
      <point x="569" y="887" type="qcurve"/>
      <point x="580" y="901"/>
      <point x="580" y="920" type="qcurve"/>
      <point x="580" y="940"/>
      <point x="569" y="955" type="qcurve"/>
      <point x="557" y="969"/>
      <point x="538" y="973" type="qcurve"/>
      <point x="538" y="972" type="line"/>
      <point x="530" y="974"/>
    </contour>
    <contour>
      <point x="650" y="0" type="line"/>
      <point x="561" y="228" type="line"/>
      <point x="561" y="227" type="line"/>
      <point x="361" y="227" type="line"/>
      <point x="302" y="0" type="line"/>
      <point x="150" y="0" type="line"/>
      <point x="350" y="769" type="line"/>
      <point x="502" y="769" type="line"/>
      <point x="802" y="0" type="line"/>
    </contour>
    <contour>
      <point x="507" y="367" type="line"/>
      <point x="441" y="535" type="line"/>
      <point x="397" y="367" type="line"/>
    </contour>
  </outline>
</glyph>
<glyph name="Atilde.0" format="2">
  <advance width="752"/>
  <outline>
    <contour>
      <point x="471" y="950" type="line"/>
      <point x="471" y="874" type="line"/>
      <point x="470" y="872"/>
      <point x="463" y="863" type="qcurve"/>
      <point x="455" y="854"/>
      <point x="439" y="844" type="qcurve"/>
      <point x="423" y="833"/>
      <point x="407" y="833" type="qcurve"/>
      <point x="357" y="833" type="line"/>
      <point x="341" y="833"/>
      <point x="319" y="847" type="qcurve"/>
      <point x="296" y="861"/>
      <point x="280" y="861" type="qcurve"/>
      <point x="269" y="861"/>
      <point x="254" y="854" type="qcurve"/>
      <point x="239" y="847"/>
      <point x="230" y="840" type="qcurve"/>
      <point x="221" y="833" type="line"/>
      <point x="221" y="909" type="line"/>
      <point x="253" y="937"/>
      <point x="278" y="937" type="qcurve"/>
      <point x="295" y="937"/>
      <point x="319" y="924" type="qcurve"/>
      <point x="342" y="910"/>
      <point x="358" y="910" type="qcurve"/>
      <point x="381" y="910"/>
      <point x="403" y="910" type="qcurve"/>
      <point x="418" y="910"/>
      <point x="435" y="920" type="qcurve"/>
      <point x="452" y="930"/>
      <point x="461" y="940" type="qcurve"/>
    </contour>
    <contour>
      <point x="560" y="0" type="line"/>
      <point x="471" y="228" type="line"/>
      <point x="471" y="227" type="line"/>
      <point x="271" y="227" type="line"/>
      <point x="212" y="0" type="line"/>
      <point x="60" y="0" type="line"/>
      <point x="260" y="769" type="line"/>
      <point x="412" y="769" type="line"/>
      <point x="712" y="0" type="line"/>
    </contour>
    <contour>
      <point x="417" y="367" type="line"/>
      <point x="351" y="535" type="line"/>
      <point x="307" y="367" type="line"/>
    </contour>
  </outline>
</glyph>
<glyph name="Atilde.1" format="2">
  <advance width="752"/>
  <outline>
    <contour>
      <point x="651" y="950" type="line"/>
      <point x="651" y="874" type="line"/>
      <point x="650" y="872"/>
      <point x="643" y="863" type="qcurve"/>
      <point x="635" y="854"/>
      <point x="619" y="844" type="qcurve"/>
      <point x="603" y="833"/>
      <point x="587" y="833" type="qcurve"/>
      <point x="537" y="833" type="line"/>
      <point x="521" y="833"/>
      <point x="499" y="847" type="qcurve"/>
      <point x="476" y="861"/>
      <point x="460" y="861" type="qcurve"/>
      <point x="449" y="861"/>
      <point x="434" y="854" type="qcurve"/>
      <point x="419" y="847"/>
      <point x="410" y="840" type="qcurve"/>
      <point x="401" y="833" type="line"/>
      <point x="401" y="909" type="line"/>
      <point x="433" y="937"/>
      <point x="458" y="937" type="qcurve"/>
      <point x="475" y="937"/>
      <point x="499" y="924" type="qcurve"/>
      <point x="522" y="910"/>
      <point x="538" y="910" type="qcurve"/>
      <point x="561" y="910"/>
      <point x="583" y="910" type="qcurve"/>
      <point x="598" y="910"/>
      <point x="615" y="920" type="qcurve"/>
      <point x="632" y="930"/>
      <point x="641" y="940" type="qcurve"/>
    </contour>
    <contour>
      <point x="650" y="0" type="line"/>
      <point x="561" y="228" type="line"/>
      <point x="561" y="227" type="line"/>
      <point x="361" y="227" type="line"/>
      <point x="302" y="0" type="line"/>
      <point x="150" y="0" type="line"/>
      <point x="350" y="769" type="line"/>
      <point x="502" y="769" type="line"/>
      <point x="802" y="0" type="line"/>
    </contour>
    <contour>
      <point x="507" y="367" type="line"/>
      <point x="441" y="535" type="line"/>
      <point x="397" y="367" type="line"/>
    </contour>
  </outline>
</glyph>
<glyph name="B.0" format="2">
  <advance width="512"/>
  <outline>
    <contour>
      <point x="212" y="780" type="line"/>
      <point x="218" y="780"/>
      <point x="230" y="780" type="qcurve"/>
      <point x="337" y="780"/>
      <point x="413" y="705" type="qcurve"/>
      <point x="488" y="629"/>
      <point x="488" y="522" type="qcurve"/>
      <point x="488" y="499"/>
      <point x="474" y="477" type="qcurve"/>
      <point x="460" y="455"/>
      <point x="436" y="429" type="qcurve"/>
      <point x="411" y="403"/>
      <point x="405" y="396" type="qcurve"/>
      <point x="407" y="394"/>
      <point x="438" y="362" type="qcurve"/>
      <point x="468" y="330"/>
      <point x="481" y="308" type="qcurve"/>
      <point x="494" y="285"/>
      <point x="494" y="260" type="qcurve"/>
      <point x="494" y="153"/>
      <point x="419" y="78" type="qcurve"/>
      <point x="343" y="3"/>
      <point x="236" y="3" type="qcurve"/>
      <point x="220" y="3"/>
      <point x="212" y="4" type="qcurve"/>
      <point x="60" y="4" type="line"/>
      <point x="60" y="780" type="line"/>
    </contour>
    <contour>
      <point x="212" y="136" type="line"/>
      <point x="224" y="133"/>
      <point x="236" y="133" type="qcurve"/>
      <point x="281" y="133"/>
      <point x="312" y="164" type="qcurve"/>
      <point x="343" y="195"/>
      <point x="343" y="239" type="qcurve"/>
      <point x="343" y="284"/>
      <point x="312" y="315" type="qcurve"/>
      <point x="281" y="346"/>
      <point x="236" y="346" type="qcurve"/>
      <point x="224" y="346"/>
      <point x="212" y="343" type="qcurve"/>
    </contour>
    <contour>
      <point x="212" y="454" type="line"/>
      <point x="224" y="451"/>
      <point x="236" y="451" type="qcurve"/>
      <point x="281" y="451"/>
      <point x="312" y="482" type="qcurve"/>
      <point x="343" y="513"/>
      <point x="343" y="557" type="qcurve"/>
      <point x="343" y="602"/>
      <point x="312" y="633" type="qcurve"/>
      <point x="281" y="664"/>
      <point x="236" y="664" type="qcurve"/>
      <point x="224" y="664"/>
      <point x="212" y="661" type="qcurve"/>
    </contour>
  </outline>
</glyph>
<glyph name="Cacute.0" format="2">
  <advance width="555"/>
  <outline>
    <contour>
      <point x="452" y="833" type="line"/>
      <point x="344" y="940" type="line"/>
      <point x="526" y="1122" type="line"/>
      <point x="634" y="1015" type="line"/>
    </contour>
    <contour>
      <point x="442" y="612" type="qcurve"/>
      <point x="347" y="612"/>
      <point x="280" y="544" type="qcurve"/>
      <point x="213" y="475"/>
      <point x="213" y="378" type="qcurve"/>
      <point x="213" y="280"/>
      <point x="280" y="212" type="qcurve"/>
      <point x="347" y="143"/>
      <point x="442" y="143" type="qcurve"/>
      <point x="480" y="143"/>
      <point x="515" y="155" type="qcurve"/>
      <point x="515" y="-7" type="line"/>
      <point x="479" y="-14"/>
      <point x="442" y="-14" type="qcurve"/>
      <point x="284" y="-14"/>
      <point x="172" y="102" type="qcurve"/>
      <point x="60" y="217"/>
      <point x="60" y="380" type="qcurve"/>
      <point x="60" y="543"/>
      <point x="172" y="658" type="qcurve"/>
      <point x="284" y="773"/>
      <point x="442" y="773" type="qcurve"/>
      <point x="479" y="773"/>
      <point x="515" y="766" type="qcurve"/>
      <point x="515" y="600" type="line"/>
      <point x="480" y="612"/>
    </contour>
  </outline>
</glyph>
<glyph name="Ccaron.1" format="2">
  <advance width="555"/>
  <outline>
    <contour>
      <point x="532" y="1001" type="line"/>
      <point x="608" y="1001" type="line"/>
      <point x="636" y="893" type="line"/>
      <point x="656" y="1001" type="line"/>
      <point x="732" y="1001" type="line"/>
      <point x="680" y="833" type="line"/>
      <point x="679" y="833" type="line"/>
      <point x="604" y="833" type="line"/>
      <point x="603" y="833" type="line"/>
    </contour>
    <contour>
      <point x="532" y="612" type="qcurve"/>
      <point x="437" y="612"/>
      <point x="370" y="544" type="qcurve"/>
      <point x="303" y="475"/>
      <point x="303" y="378" type="qcurve"/>
      <point x="303" y="280"/>
      <point x="370" y="212" type="qcurve"/>
      <point x="437" y="143"/>
      <point x="532" y="143" type="qcurve"/>
      <point x="570" y="143"/>
      <point x="605" y="155" type="qcurve"/>
      <point x="605" y="-7" type="line"/>
      <point x="569" y="-14"/>
      <point x="532" y="-14" type="qcurve"/>
      <point x="374" y="-14"/>
      <point x="262" y="102" type="qcurve"/>
      <point x="150" y="217"/>
      <point x="150" y="380" type="qcurve"/>
      <point x="150" y="543"/>
      <point x="262" y="658" type="qcurve"/>
      <point x="374" y="773"/>
      <point x="532" y="773" type="qcurve"/>
      <point x="569" y="773"/>
      <point x="605" y="766" type="qcurve"/>
      <point x="605" y="600" type="line"/>
      <point x="570" y="612"/>
    </contour>
  </outline>
</glyph>
<glyph name="Ccedilla.0" format="2">
  <advance width="555"/>
  <outline>
    <contour>
      <point x="445" y="-262" type="line"/>
      <point x="445" y="-185" type="line"/>
      <point x="453" y="-187"/>
      <point x="458" y="-187" type="qcurve"/>
      <point x="481" y="-187"/>
      <point x="497" y="-171" type="qcurve"/>
      <point x="512" y="-156"/>
      <point x="512" y="-134" type="qcurve"/>
      <point x="512" y="-112"/>
      <point x="496" y="-96" type="qcurve"/>
      <point x="480" y="-80"/>
      <point x="458" y="-80" type="qcurve"/>
      <point x="453" y="-80"/>
      <point x="445" y="-82" type="qcurve"/>
      <point x="445" y="-5" type="line"/>
      <point x="458" y="-5" type="line"/>
      <point x="512" y="-5"/>
      <point x="550" y="-42" type="qcurve"/>
      <point x="587" y="-80"/>
      <point x="587" y="-134" type="qcurve"/>
      <point x="587" y="-187"/>
      <point x="550" y="-224" type="qcurve"/>
      <point x="512" y="-262"/>
      <point x="458" y="-262" type="qcurve"/>
    </contour>
    <contour>
      <point x="442" y="612" type="qcurve"/>
      <point x="347" y="612"/>
      <point x="280" y="544" type="qcurve"/>
      <point x="213" y="475"/>
      <point x="213" y="378" type="qcurve"/>
      <point x="213" y="280"/>
      <point x="280" y="212" type="qcurve"/>
      <point x="347" y="143"/>
      <point x="442" y="143" type="qcurve"/>
      <point x="480" y="143"/>
      <point x="515" y="155" type="qcurve"/>
      <point x="515" y="-7" type="line"/>
      <point x="479" y="-14"/>
      <point x="442" y="-14" type="qcurve"/>
      <point x="284" y="-14"/>
      <point x="172" y="102" type="qcurve"/>
      <point x="60" y="217"/>
      <point x="60" y="380" type="qcurve"/>
      <point x="60" y="543"/>
      <point x="172" y="658" type="qcurve"/>
      <point x="284" y="773"/>
      <point x="442" y="773" type="qcurve"/>
      <point x="479" y="773"/>
      <point x="515" y="766" type="qcurve"/>
      <point x="515" y="600" type="line"/>
      <point x="480" y="612"/>
    </contour>
  </outline>
</glyph>
<glyph name="Ccedilla.1" format="2">
  <advance width="555"/>
  <outline>
    <contour>
      <point x="625" y="-262" type="line"/>
      <point x="625" y="-185" type="line"/>
      <point x="633" y="-187"/>
      <point x="638" y="-187" type="qcurve"/>
      <point x="661" y="-187"/>
      <point x="677" y="-171" type="qcurve"/>
      <point x="692" y="-156"/>
      <point x="692" y="-134" type="qcurve"/>
      <point x="692" y="-112"/>
      <point x="676" y="-96" type="qcurve"/>
      <point x="660" y="-80"/>
      <point x="638" y="-80" type="qcurve"/>
      <point x="633" y="-80"/>
      <point x="625" y="-82" type="qcurve"/>
      <point x="625" y="-5" type="line"/>
      <point x="638" y="-5" type="line"/>
      <point x="692" y="-5"/>
      <point x="730" y="-42" type="qcurve"/>
      <point x="767" y="-80"/>
      <point x="767" y="-134" type="qcurve"/>
      <point x="767" y="-187"/>
      <point x="730" y="-224" type="qcurve"/>
      <point x="692" y="-262"/>
      <point x="638" y="-262" type="qcurve"/>
    </contour>
    <contour>
      <point x="532" y="612" type="qcurve"/>
      <point x="437" y="612"/>
      <point x="370" y="544" type="qcurve"/>
      <point x="303" y="475"/>
      <point x="303" y="378" type="qcurve"/>
      <point x="303" y="280"/>
      <point x="370" y="212" type="qcurve"/>
      <point x="437" y="143"/>
      <point x="532" y="143" type="qcurve"/>
      <point x="570" y="143"/>
      <point x="605" y="155" type="qcurve"/>
      <point x="605" y="-7" type="line"/>
      <point x="569" y="-14"/>
      <point x="532" y="-14" type="qcurve"/>
      <point x="374" y="-14"/>
      <point x="262" y="102" type="qcurve"/>
      <point x="150" y="217"/>
      <point x="150" y="380" type="qcurve"/>
      <point x="150" y="543"/>
      <point x="262" y="658" type="qcurve"/>
      <point x="374" y="773"/>
      <point x="532" y="773" type="qcurve"/>
      <point x="569" y="773"/>
      <point x="605" y="766" type="qcurve"/>
      <point x="605" y="600" type="line"/>
      <point x="570" y="612"/>
    </contour>
  </outline>
</glyph>
<glyph name="D.0" format="2">
  <advance width="630"/>
  <outline>
    <contour>
      <point x="60" y="768" type="line"/>
      <point x="75" y="763"/>
      <point x="134" y="768" type="qcurve"/>
      <point x="193" y="773"/>
      <point x="208" y="773" type="qcurve"/>
      <point x="366" y="773"/>
      <point x="478" y="658" type="qcurve"/>
      <point x="590" y="543"/>
      <point x="590" y="380" type="qcurve"/>
      <point x="590" y="273"/>
      <point x="540" y="183" type="qcurve"/>
      <point x="489" y="93"/>
      <point x="402" y="40" type="qcurve"/>
      <point x="315" y="-13"/>
      <point x="212" y="-14" type="qcurve"/>
      <point x="60" y="-14" type="line"/>
    </contour>
    <contour>
      <point x="212" y="143" type="line"/>
      <point x="306" y="145"/>
      <point x="372" y="214" type="qcurve"/>
      <point x="437" y="282"/>
      <point x="437" y="378" type="qcurve"/>
      <point x="437" y="474"/>
      <point x="372" y="542" type="qcurve"/>
      <point x="306" y="610"/>
      <point x="212" y="612" type="qcurve"/>
    </contour>
  </outline>
</glyph>
<glyph name="Dcaron.1" format="2">
  <advance width="630"/>
  <outline>
    <contour>
      <point x="415" y="1001" type="line"/>
      <point x="491" y="1001" type="line"/>
      <point x="519" y="893" type="line"/>
      <point x="539" y="1001" type="line"/>
      <point x="615" y="1001" type="line"/>
      <point x="563" y="833" type="line"/>
      <point x="562" y="833" type="line"/>
      <point x="487" y="833" type="line"/>
      <point x="486" y="833" type="line"/>
    </contour>
    <contour>
      <point x="150" y="768" type="line"/>
      <point x="165" y="763"/>
      <point x="224" y="768" type="qcurve"/>
      <point x="283" y="773"/>
      <point x="298" y="773" type="qcurve"/>
      <point x="456" y="773"/>
      <point x="568" y="658" type="qcurve"/>
      <point x="680" y="543"/>
      <point x="680" y="380" type="qcurve"/>
      <point x="680" y="273"/>
      <point x="630" y="183" type="qcurve"/>
      <point x="579" y="93"/>
      <point x="492" y="40" type="qcurve"/>
      <point x="405" y="-13"/>
      <point x="302" y="-14" type="qcurve"/>
      <point x="150" y="-14" type="line"/>
    </contour>
    <contour>
      <point x="302" y="143" type="line"/>
      <point x="396" y="145"/>
      <point x="462" y="214" type="qcurve"/>
      <point x="527" y="282"/>
      <point x="527" y="378" type="qcurve"/>
      <point x="527" y="474"/>
      <point x="462" y="542" type="qcurve"/>
      <point x="396" y="610"/>
      <point x="302" y="612" type="qcurve"/>
    </contour>
  </outline>
</glyph>
<glyph name="Eacute.0" format="2">
  <advance width="668"/>
  <outline>
    <contour>
      <point x="353" y="838" type="line"/>
      <point x="245" y="945" type="line"/>
      <point x="427" y="1127" type="line"/>
      <point x="535" y="1020" type="line"/>
    </contour>
    <contour>
      <point x="519" y="485" type="line"/>
      <point x="520" y="333" type="line"/>
      <point x="212" y="333" type="line"/>
      <point x="212" y="149" type="line"/>
      <point x="627" y="149" type="line"/>
      <point x="628" y="-3" type="line"/>
      <point x="61" y="-3" type="line"/>
      <point x="61" y="-2" type="line"/>
      <point x="60" y="-2" type="line"/>
      <point x="60" y="774" type="line"/>
      <point x="60" y="778" type="line"/>
      <point x="627" y="778" type="line"/>
      <point x="628" y="626" type="line"/>
      <point x="212" y="626" type="line"/>
      <point x="212" y="485" type="line"/>
    </contour>
  </outline>
</glyph>
<glyph name="Eacute.1" format="2">
  <advance width="668"/>
  <outline>
    <contour>
      <point x="533" y="838" type="line"/>
      <point x="425" y="945" type="line"/>
      <point x="607" y="1127" type="line"/>
      <point x="715" y="1020" type="line"/>
    </contour>
    <contour>
      <point x="609" y="485" type="line"/>
      <point x="610" y="333" type="line"/>
      <point x="302" y="333" type="line"/>
      <point x="302" y="149" type="line"/>
      <point x="717" y="149" type="line"/>
      <point x="718" y="-3" type="line"/>
      <point x="151" y="-3" type="line"/>
      <point x="151" y="-2" type="line"/>
      <point x="150" y="-2" type="line"/>
      <point x="150" y="774" type="line"/>
      <point x="150" y="778" type="line"/>
      <point x="717" y="778" type="line"/>
      <point x="718" y="626" type="line"/>
      <point x="302" y="626" type="line"/>
      <point x="302" y="485" type="line"/>
    </contour>
  </outline>
</glyph>
<glyph name="Ebreve.0" format="2">
  <advance width="668"/>
  <outline>
    <contour>
      <point x="171" y="1029" type="line"/>
      <point x="171" y="979"/>
      <point x="227" y="935" type="qcurve"/>
      <point x="282" y="890"/>
      <point x="354" y="890" type="qcurve"/>
      <point x="427" y="890"/>
      <point x="483" y="935" type="qcurve"/>
      <point x="538" y="979"/>
      <point x="538" y="1029" type="qcurve"/>
      <point x="547" y="1065" type="line"/>
      <point x="550" y="1048"/>
      <point x="550" y="1029" type="qcurve"/>
      <point x="550" y="950"/>
      <point x="493" y="894" type="qcurve"/>
      <point x="435" y="838"/>
      <point x="353" y="838" type="qcurve"/>
      <point x="272" y="838"/>
      <point x="215" y="894" type="qcurve"/>
      <point x="157" y="950"/>
      <point x="157" y="1029" type="qcurve"/>
      <point x="157" y="1048"/>
      <point x="160" y="1065" type="qcurve"/>
    </contour>
    <contour>
      <point x="519" y="485" type="line"/>
      <point x="520" y="333" type="line"/>
      <point x="212" y="333" type="line"/>
      <point x="212" y="149" type="line"/>
      <point x="627" y="149" type="line"/>
      <point x="628" y="-3" type="line"/>
      <point x="61" y="-3" type="line"/>
      <point x="61" y="-2" type="line"/>
      <point x="60" y="-2" type="line"/>
      <point x="60" y="774" type="line"/>
      <point x="60" y="778" type="line"/>
      <point x="627" y="778" type="line"/>
      <point x="628" y="626" type="line"/>
      <point x="212" y="626" type="line"/>
      <point x="212" y="485" type="line"/>
    </contour>
  </outline>
</glyph>
<glyph name="Ebreve.1" format="2">
  <advance width="668"/>
  <outline>
    <contour>
      <point x="351" y="1029" type="line"/>
      <point x="351" y="979"/>
      <point x="407" y="935" type="qcurve"/>
      <point x="462" y="890"/>
      <point x="534" y="890" type="qcurve"/>
      <point x="607" y="890"/>
      <point x="663" y="935" type="qcurve"/>
      <point x="718" y="979"/>
      <point x="718" y="1029" type="qcurve"/>
      <point x="727" y="1065" type="line"/>
      <point x="730" y="1048"/>
      <point x="730" y="1029" type="qcurve"/>
      <point x="730" y="950"/>
      <point x="673" y="894" type="qcurve"/>
      <point x="615" y="838"/>
      <point x="533" y="838" type="qcurve"/>
      <point x="452" y="838"/>
      <point x="395" y="894" type="qcurve"/>
      <point x="337" y="950"/>
      <point x="337" y="1029" type="qcurve"/>
      <point x="337" y="1048"/>
      <point x="340" y="1065" type="qcurve"/>
    </contour>
    <contour>
      <point x="609" y="485" type="line"/>
      <point x="610" y="333" type="line"/>
      <point x="302" y="333" type="line"/>
      <point x="302" y="149" type="line"/>
      <point x="717" y="149" type="line"/>
      <point x="718" y="-3" type="line"/>
      <point x="151" y="-3" type="line"/>
      <point x="151" y="-2" type="line"/>
      <point x="150" y="-2" type="line"/>
      <point x="150" y="774" type="line"/>
      <point x="150" y="778" type="line"/>
      <point x="717" y="778" type="line"/>
      <point x="718" y="626" type="line"/>
      <point x="302" y="626" type="line"/>
      <point x="302" y="485" type="line"/>
    </contour>
  </outline>
</glyph>
<glyph name="Ecaron.1" format="2">
  <advance width="668"/>
  <outline>
    <contour>
      <point x="434" y="1006" type="line"/>
      <point x="510" y="1006" type="line"/>
      <point x="538" y="898" type="line"/>
      <point x="558" y="1006" type="line"/>
      <point x="634" y="1006" type="line"/>
      <point x="582" y="838" type="line"/>
      <point x="581" y="838" type="line"/>
      <point x="506" y="838" type="line"/>
      <point x="505" y="838" type="line"/>
    </contour>
    <contour>
      <point x="609" y="485" type="line"/>
      <point x="610" y="333" type="line"/>
      <point x="302" y="333" type="line"/>
      <point x="302" y="149" type="line"/>
      <point x="717" y="149" type="line"/>
      <point x="718" y="-3" type="line"/>
      <point x="151" y="-3" type="line"/>
      <point x="151" y="-2" type="line"/>
      <point x="150" y="-2" type="line"/>
      <point x="150" y="774" type="line"/>
      <point x="150" y="778" type="line"/>
      <point x="717" y="778" type="line"/>
      <point x="718" y="626" type="line"/>
      <point x="302" y="626" type="line"/>
      <point x="302" y="485" type="line"/>
    </contour>
  </outline>
</glyph>
<glyph name="Edieresis.1" format="2">
  <advance width="668"/>
  <outline>
    <contour>
      <point x="558" y="838" type="line"/>
      <point x="558" y="980" type="line"/>
      <point x="710" y="980" type="line"/>
      <point x="710" y="838" type="line"/>
    </contour>
    <contour>
      <point x="358" y="838" type="line"/>
      <point x="358" y="980" type="line"/>
      <point x="510" y="980" type="line"/>
      <point x="510" y="838" type="line"/>
    </contour>
    <contour>
      <point x="609" y="485" type="line"/>
      <point x="610" y="333" type="line"/>
      <point x="302" y="333" type="line"/>
      <point x="302" y="149" type="line"/>
      <point x="717" y="149" type="line"/>
      <point x="718" y="-3" type="line"/>
      <point x="151" y="-3" type="line"/>
      <point x="151" y="-2" type="line"/>
      <point x="150" y="-2" type="line"/>
      <point x="150" y="774" type="line"/>
      <point x="150" y="778" type="line"/>
      <point x="717" y="778" type="line"/>
      <point x="718" y="626" type="line"/>
      <point x="302" y="626" type="line"/>
      <point x="302" y="485" type="line"/>
    </contour>
  </outline>
</glyph>
<glyph name="Edotaccent.0" format="2">
  <advance width="668"/>
  <outline>
    <contour>
      <point x="278" y="838" type="line"/>
      <point x="278" y="980" type="line"/>
      <point x="430" y="980" type="line"/>
      <point x="430" y="838" type="line"/>
    </contour>
    <contour>
      <point x="519" y="485" type="line"/>
      <point x="520" y="333" type="line"/>
      <point x="212" y="333" type="line"/>
      <point x="212" y="149" type="line"/>
      <point x="627" y="149" type="line"/>
      <point x="628" y="-3" type="line"/>
      <point x="61" y="-3" type="line"/>
      <point x="61" y="-2" type="line"/>
      <point x="60" y="-2" type="line"/>
      <point x="60" y="774" type="line"/>
      <point x="60" y="778" type="line"/>
      <point x="627" y="778" type="line"/>
      <point x="628" y="626" type="line"/>
      <point x="212" y="626" type="line"/>
      <point x="212" y="485" type="line"/>
    </contour>
  </outline>
</glyph>
<glyph name="Emacron.0" format="2">
  <advance width="668"/>
  <outline>
    <contour>
      <point x="490" y="914" type="line"/>
      <point x="490" y="838" type="line"/>
      <point x="218" y="838" type="line"/>
      <point x="218" y="914" type="line"/>
    </contour>
    <contour>
      <point x="519" y="485" type="line"/>
      <point x="520" y="333" type="line"/>
      <point x="212" y="333" type="line"/>
      <point x="212" y="149" type="line"/>
      <point x="627" y="149" type="line"/>
      <point x="628" y="-3" type="line"/>
      <point x="61" y="-3" type="line"/>
      <point x="61" y="-2" type="line"/>
      <point x="60" y="-2" type="line"/>
      <point x="60" y="774" type="line"/>
      <point x="60" y="778" type="line"/>
      <point x="627" y="778" type="line"/>
      <point x="628" y="626" type="line"/>
      <point x="212" y="626" type="line"/>
      <point x="212" y="485" type="line"/>
    </contour>
  </outline>
</glyph>
<glyph name="Emacron.1" format="2">
  <advance width="668"/>
  <outline>
    <contour>
      <point x="670" y="914" type="line"/>
      <point x="670" y="838" type="line"/>
      <point x="398" y="838" type="line"/>
      <point x="398" y="914" type="line"/>
    </contour>
    <contour>
      <point x="609" y="485" type="line"/>
      <point x="610" y="333" type="line"/>
      <point x="302" y="333" type="line"/>
      <point x="302" y="149" type="line"/>
      <point x="717" y="149" type="line"/>
      <point x="718" y="-3" type="line"/>
      <point x="151" y="-3" type="line"/>
      <point x="151" y="-2" type="line"/>
      <point x="150" y="-2" type="line"/>
      <point x="150" y="774" type="line"/>
      <point x="150" y="778" type="line"/>
      <point x="717" y="778" type="line"/>
      <point x="718" y="626" type="line"/>
      <point x="302" y="626" type="line"/>
      <point x="302" y="485" type="line"/>
    </contour>
  </outline>
</glyph>
<glyph name="Eogonek.0" format="2">
  <advance width="668"/>
  <outline>
    <contour>
      <point x="639" y="-263" type="line"/>
      <point x="639" y="-263"/>
      <point x="626" y="-263" type="qcurve"/>
      <point x="572" y="-263"/>
      <point x="535" y="-225" type="qcurve"/>
      <point x="497" y="-188"/>
      <point x="497" y="-135" type="qcurve"/>
      <point x="497" y="-81"/>
      <point x="535" y="-43" type="qcurve"/>
      <point x="572" y="-6"/>
      <point x="626" y="-6" type="qcurve"/>
      <point x="639" y="-6" type="line"/>
      <point x="639" y="-83" type="line"/>
      <point x="631" y="-81"/>
      <point x="626" y="-81" type="qcurve"/>
      <point x="604" y="-81"/>
      <point x="588" y="-97" type="qcurve"/>
      <point x="572" y="-113"/>
      <point x="572" y="-135" type="qcurve"/>
      <point x="572" y="-157"/>
      <point x="588" y="-172" type="qcurve"/>
      <point x="603" y="-188"/>
      <point x="626" y="-188" type="qcurve"/>
      <point x="631" y="-188"/>
      <point x="639" y="-186" type="qcurve"/>
    </contour>
    <contour>
      <point x="519" y="485" type="line"/>
      <point x="520" y="333" type="line"/>
      <point x="212" y="333" type="line"/>
      <point x="212" y="149" type="line"/>
      <point x="627" y="149" type="line"/>
      <point x="628" y="-3" type="line"/>
      <point x="61" y="-3" type="line"/>
      <point x="61" y="-2" type="line"/>
      <point x="60" y="-2" type="line"/>
      <point x="60" y="774" type="line"/>
      <point x="60" y="778" type="line"/>
      <point x="627" y="778" type="line"/>
      <point x="628" y="626" type="line"/>
      <point x="212" y="626" type="line"/>
      <point x="212" y="485" type="line"/>
    </contour>
  </outline>
</glyph>
<glyph name="Eogonek.1" format="2">
  <advance width="668"/>
  <outline>
    <contour>
      <point x="819" y="-263" type="line"/>
      <point x="819" y="-263"/>
      <point x="806" y="-263" type="qcurve"/>
      <point x="752" y="-263"/>
      <point x="715" y="-225" type="qcurve"/>
      <point x="677" y="-188"/>
      <point x="677" y="-135" type="qcurve"/>
      <point x="677" y="-81"/>
      <point x="715" y="-43" type="qcurve"/>
      <point x="752" y="-6"/>
      <point x="806" y="-6" type="qcurve"/>
      <point x="819" y="-6" type="line"/>
      <point x="819" y="-83" type="line"/>
      <point x="811" y="-81"/>
      <point x="806" y="-81" type="qcurve"/>
      <point x="784" y="-81"/>
      <point x="768" y="-97" type="qcurve"/>
      <point x="752" y="-113"/>
      <point x="752" y="-135" type="qcurve"/>
      <point x="752" y="-157"/>
      <point x="768" y="-172" type="qcurve"/>
      <point x="783" y="-188"/>
      <point x="806" y="-188" type="qcurve"/>
      <point x="811" y="-188"/>
      <point x="819" y="-186" type="qcurve"/>
    </contour>
    <contour>
      <point x="609" y="485" type="line"/>
      <point x="610" y="333" type="line"/>
      <point x="302" y="333" type="line"/>
      <point x="302" y="149" type="line"/>
      <point x="717" y="149" type="line"/>
      <point x="718" y="-3" type="line"/>
      <point x="151" y="-3" type="line"/>
      <point x="151" y="-2" type="line"/>
      <point x="150" y="-2" type="line"/>
      <point x="150" y="774" type="line"/>
      <point x="150" y="778" type="line"/>
      <point x="717" y="778" type="line"/>
      <point x="718" y="626" type="line"/>
      <point x="302" y="626" type="line"/>
      <point x="302" y="485" type="line"/>
    </contour>
  </outline>
</glyph>
<glyph name="F.0" format="2">
  <advance width="668"/>
  <outline>
    <contour>
      <point x="519" y="485" type="line"/>
      <point x="520" y="333" type="line"/>
      <point x="212" y="333" type="line"/>
      <point x="212" y="-2" type="line"/>
      <point x="60" y="-2" type="line"/>
      <point x="60" y="774" type="line"/>
      <point x="60" y="778" type="line"/>
      <point x="627" y="778" type="line"/>
      <point x="628" y="626" type="line"/>
      <point x="212" y="626" type="line"/>
      <point x="212" y="485" type="line"/>
    </contour>
  </outline>
</glyph>
<glyph name="G.0" format="2">
  <advance width="651"/>
  <outline>
    <contour>
      <point x="442" y="612" type="qcurve"/>
      <point x="347" y="612"/>
      <point x="280" y="544" type="qcurve"/>
      <point x="213" y="475"/>
      <point x="213" y="378" type="qcurve"/>
      <point x="213" y="280"/>
      <point x="280" y="212" type="qcurve"/>
      <point x="347" y="143"/>
      <point x="442" y="143" type="qcurve"/>
      <point x="451" y="143"/>
      <point x="459" y="144" type="qcurve"/>
      <point x="459" y="313" type="line"/>
      <point x="611" y="313" type="line"/>
      <point x="611" y="-14" type="line"/>
      <point x="459" y="-14" type="line"/>
      <point x="451" y="-14"/>
      <point x="442" y="-14" type="qcurve"/>
      <point x="284" y="-14"/>
      <point x="172" y="102" type="qcurve"/>
      <point x="60" y="217"/>
      <point x="60" y="380" type="qcurve"/>
      <point x="60" y="543"/>
      <point x="172" y="658" type="qcurve"/>
      <point x="284" y="773"/>
      <point x="442" y="773" type="qcurve"/>
      <point x="479" y="773"/>
      <point x="515" y="766" type="qcurve"/>
      <point x="515" y="600" type="line"/>
      <point x="480" y="612"/>
    </contour>
  </outline>
</glyph>
<glyph name="Gbreve.1" format="2">
  <advance width="651"/>
  <outline>
    <contour>
      <point x="449" y="1024" type="line"/>
      <point x="449" y="974"/>
      <point x="505" y="930" type="qcurve"/>
      <point x="560" y="885"/>
      <point x="632" y="885" type="qcurve"/>
      <point x="705" y="885"/>
      <point x="761" y="930" type="qcurve"/>
      <point x="816" y="974"/>
      <point x="816" y="1024" type="qcurve"/>
      <point x="825" y="1060" type="line"/>
      <point x="828" y="1043"/>
      <point x="828" y="1024" type="qcurve"/>
      <point x="828" y="945"/>
      <point x="771" y="889" type="qcurve"/>
      <point x="713" y="833"/>
      <point x="631" y="833" type="qcurve"/>
      <point x="550" y="833"/>
      <point x="493" y="889" type="qcurve"/>
      <point x="435" y="945"/>
      <point x="435" y="1024" type="qcurve"/>
      <point x="435" y="1043"/>
      <point x="438" y="1060" type="qcurve"/>
    </contour>
    <contour>
      <point x="532" y="612" type="qcurve"/>
      <point x="437" y="612"/>
      <point x="370" y="544" type="qcurve"/>
      <point x="303" y="475"/>
      <point x="303" y="378" type="qcurve"/>
      <point x="303" y="280"/>
      <point x="370" y="212" type="qcurve"/>
      <point x="437" y="143"/>
      <point x="532" y="143" type="qcurve"/>
      <point x="541" y="143"/>
      <point x="549" y="144" type="qcurve"/>
      <point x="549" y="313" type="line"/>
      <point x="701" y="313" type="line"/>
      <point x="701" y="-14" type="line"/>
      <point x="549" y="-14" type="line"/>
      <point x="541" y="-14"/>
      <point x="532" y="-14" type="qcurve"/>
      <point x="374" y="-14"/>
      <point x="262" y="102" type="qcurve"/>
      <point x="150" y="217"/>
      <point x="150" y="380" type="qcurve"/>
      <point x="150" y="543"/>
      <point x="262" y="658" type="qcurve"/>
      <point x="374" y="773"/>
      <point x="532" y="773" type="qcurve"/>
      <point x="569" y="773"/>
      <point x="605" y="766" type="qcurve"/>
      <point x="605" y="600" type="line"/>
      <point x="570" y="612"/>
    </contour>
  </outline>
</glyph>
<glyph name="Gdotaccent.1" format="2">
  <advance width="651"/>
  <outline>
    <contour>
      <point x="556" y="833" type="line"/>
      <point x="556" y="975" type="line"/>
      <point x="708" y="975" type="line"/>
      <point x="708" y="833" type="line"/>
    </contour>
    <contour>
      <point x="532" y="612" type="qcurve"/>
      <point x="437" y="612"/>
      <point x="370" y="544" type="qcurve"/>
      <point x="303" y="475"/>
      <point x="303" y="378" type="qcurve"/>
      <point x="303" y="280"/>
      <point x="370" y="212" type="qcurve"/>
      <point x="437" y="143"/>
      <point x="532" y="143" type="qcurve"/>
      <point x="541" y="143"/>
      <point x="549" y="144" type="qcurve"/>
      <point x="549" y="313" type="line"/>
      <point x="701" y="313" type="line"/>
      <point x="701" y="-14" type="line"/>
      <point x="549" y="-14" type="line"/>
      <point x="541" y="-14"/>
      <point x="532" y="-14" type="qcurve"/>
      <point x="374" y="-14"/>
      <point x="262" y="102" type="qcurve"/>
      <point x="150" y="217"/>
      <point x="150" y="380" type="qcurve"/>
      <point x="150" y="543"/>
      <point x="262" y="658" type="qcurve"/>
      <point x="374" y="773"/>
      <point x="532" y="773" type="qcurve"/>
      <point x="569" y="773"/>
      <point x="605" y="766" type="qcurve"/>
      <point x="605" y="600" type="line"/>
      <point x="570" y="612"/>
    </contour>
  </outline>
</glyph>
<glyph name="H.0" format="2">
  <advance width="652"/>
  <outline>
    <contour>
      <point x="460" y="774" type="line"/>
      <point x="612" y="774" type="line"/>
      <point x="612" y="-2" type="line"/>
      <point x="460" y="-2" type="line"/>
      <point x="460" y="333" type="line"/>
      <point x="212" y="333" type="line"/>
      <point x="212" y="-2" type="line"/>
      <point x="60" y="-2" type="line"/>
      <point x="60" y="774" type="line"/>
      <point x="212" y="774" type="line"/>
      <point x="212" y="485" type="line"/>
      <point x="460" y="485" type="line"/>
    </contour>
  </outline>
</glyph>
<glyph name="Hcircumflex.0" format="2">
  <advance width="652"/>
  <outline>
    <contour>
      <point x="246" y="834" type="line"/>
      <point x="317" y="1002" type="line"/>
      <point x="318" y="1002" type="line"/>
      <point x="393" y="1002" type="line"/>
      <point x="394" y="1002" type="line"/>
      <point x="446" y="834" type="line"/>
      <point x="370" y="834" type="line"/>
      <point x="350" y="942" type="line"/>
      <point x="322" y="834" type="line"/>
    </contour>
    <contour>
      <point x="460" y="774" type="line"/>
      <point x="612" y="774" type="line"/>
      <point x="612" y="-2" type="line"/>
      <point x="460" y="-2" type="line"/>
      <point x="460" y="333" type="line"/>
      <point x="212" y="333" type="line"/>
      <point x="212" y="-2" type="line"/>
      <point x="60" y="-2" type="line"/>
      <point x="60" y="774" type="line"/>
      <point x="212" y="774" type="line"/>
      <point x="212" y="485" type="line"/>
      <point x="460" y="485" type="line"/>
    </contour>
  </outline>
</glyph>
<glyph name="Hcircumflex.1" format="2">
  <advance width="652"/>
  <outline>
    <contour>
      <point x="426" y="834" type="line"/>
      <point x="497" y="1002" type="line"/>
      <point x="498" y="1002" type="line"/>
      <point x="573" y="1002" type="line"/>
      <point x="574" y="1002" type="line"/>
      <point x="626" y="834" type="line"/>
      <point x="550" y="834" type="line"/>
      <point x="530" y="942" type="line"/>
      <point x="502" y="834" type="line"/>
    </contour>
    <contour>
      <point x="550" y="774" type="line"/>
      <point x="702" y="774" type="line"/>
      <point x="702" y="-2" type="line"/>
      <point x="550" y="-2" type="line"/>
      <point x="550" y="333" type="line"/>
      <point x="302" y="333" type="line"/>
      <point x="302" y="-2" type="line"/>
      <point x="150" y="-2" type="line"/>
      <point x="150" y="774" type="line"/>
      <point x="302" y="774" type="line"/>
      <point x="302" y="485" type="line"/>
      <point x="550" y="485" type="line"/>
    </contour>
  </outline>
</glyph>
<glyph name="I.1" format="2">
  <advance width="252"/>
  <outline>
    <contour>
      <point x="150" y="774" type="line"/>
      <point x="302" y="774" type="line"/>
      <point x="302" y="-2" type="line"/>
      <point x="150" y="-2" type="line"/>
    </contour>
  </outline>
</glyph>
<glyph name="Iacute.0" format="2">
  <advance width="252"/>
  <outline>
    <contour>
      <point x="146" y="834" type="line"/>
      <point x="38" y="941" type="line"/>
      <point x="220" y="1123" type="line"/>
      <point x="328" y="1016" type="line"/>
    </contour>
    <contour>
      <point x="60" y="774" type="line"/>
      <point x="212" y="774" type="line"/>
      <point x="212" y="-2" type="line"/>
      <point x="60" y="-2" type="line"/>
    </contour>
  </outline>
</glyph>
<glyph name="Ibreve.0" format="2">
  <advance width="252"/>
  <outline>
    <contour>
      <point x="-37" y="1025" type="line"/>
      <point x="-37" y="975"/>
      <point x="19" y="931" type="qcurve"/>
      <point x="74" y="886"/>
      <point x="146" y="886" type="qcurve"/>
      <point x="219" y="886"/>
      <point x="275" y="931" type="qcurve"/>
      <point x="330" y="975"/>
      <point x="330" y="1025" type="qcurve"/>
      <point x="339" y="1061" type="line"/>
      <point x="342" y="1044"/>
      <point x="342" y="1025" type="qcurve"/>
      <point x="342" y="946"/>
      <point x="285" y="890" type="qcurve"/>
      <point x="227" y="834"/>
      <point x="145" y="834" type="qcurve"/>
      <point x="64" y="834"/>
      <point x="7" y="890" type="qcurve"/>
      <point x="-51" y="946"/>
      <point x="-51" y="1025" type="qcurve"/>
      <point x="-51" y="1044"/>
      <point x="-48" y="1061" type="qcurve"/>
    </contour>
    <contour>
      <point x="60" y="774" type="line"/>
      <point x="212" y="774" type="line"/>
      <point x="212" y="-2" type="line"/>
      <point x="60" y="-2" type="line"/>
    </contour>
  </outline>
</glyph>
<glyph name="Ibreve.1" format="2">
  <advance width="252"/>
  <outline>
    <contour>
      <point x="143" y="1025" type="line"/>
      <point x="143" y="975"/>
      <point x="199" y="931" type="qcurve"/>
      <point x="254" y="886"/>
      <point x="326" y="886" type="qcurve"/>
      <point x="399" y="886"/>
      <point x="455" y="931" type="qcurve"/>
      <point x="510" y="975"/>
      <point x="510" y="1025" type="qcurve"/>
      <point x="519" y="1061" type="line"/>
      <point x="522" y="1044"/>
      <point x="522" y="1025" type="qcurve"/>
      <point x="522" y="946"/>
      <point x="465" y="890" type="qcurve"/>
      <point x="407" y="834"/>
      <point x="325" y="834" type="qcurve"/>
      <point x="244" y="834"/>
      <point x="187" y="890" type="qcurve"/>
      <point x="129" y="946"/>
      <point x="129" y="1025" type="qcurve"/>
      <point x="129" y="1044"/>
      <point x="132" y="1061" type="qcurve"/>
    </contour>
    <contour>
      <point x="150" y="774" type="line"/>
      <point x="302" y="774" type="line"/>
      <point x="302" y="-2" type="line"/>
      <point x="150" y="-2" type="line"/>
    </contour>
  </outline>
</glyph>
<glyph name="Icircumflex.0" format="2">
  <advance width="252"/>
  <outline>
    <contour>
      <point x="46" y="834" type="line"/>
      <point x="117" y="1002" type="line"/>
      <point x="118" y="1002" type="line"/>
      <point x="193" y="1002" type="line"/>
      <point x="194" y="1002" type="line"/>
      <point x="246" y="834" type="line"/>
      <point x="170" y="834" type="line"/>
      <point x="150" y="942" type="line"/>
      <point x="122" y="834" type="line"/>
    </contour>
    <contour>
      <point x="60" y="774" type="line"/>
      <point x="212" y="774" type="line"/>
      <point x="212" y="-2" type="line"/>
      <point x="60" y="-2" type="line"/>
    </contour>
  </outline>
</glyph>
<glyph name="Icircumflex.1" format="2">
  <advance width="252"/>
  <outline>
    <contour>
      <point x="226" y="834" type="line"/>
      <point x="297" y="1002" type="line"/>
      <point x="298" y="1002" type="line"/>
      <point x="373" y="1002" type="line"/>
      <point x="374" y="1002" type="line"/>
      <point x="426" y="834" type="line"/>
      <point x="350" y="834" type="line"/>
      <point x="330" y="942" type="line"/>
      <point x="302" y="834" type="line"/>
    </contour>
    <contour>
      <point x="150" y="774" type="line"/>
      <point x="302" y="774" type="line"/>
      <point x="302" y="-2" type="line"/>
      <point x="150" y="-2" type="line"/>
    </contour>
  </outline>
</glyph>
<glyph name="Idieresis.0" format="2">
  <advance width="252"/>
  <outline>
    <contour>
      <point x="170" y="834" type="line"/>
      <point x="170" y="976" type="line"/>
      <point x="322" y="976" type="line"/>
      <point x="322" y="834" type="line"/>
    </contour>
    <contour>
      <point x="-30" y="834" type="line"/>
      <point x="-30" y="976" type="line"/>
      <point x="122" y="976" type="line"/>
      <point x="122" y="834" type="line"/>
    </contour>
    <contour>
      <point x="60" y="774" type="line"/>
      <point x="212" y="774" type="line"/>
      <point x="212" y="-2" type="line"/>
      <point x="60" y="-2" type="line"/>
    </contour>
  </outline>
</glyph>
<glyph name="Idieresis.1" format="2">
  <advance width="252"/>
  <outline>
    <contour>
      <point x="350" y="834" type="line"/>
      <point x="350" y="976" type="line"/>
      <point x="502" y="976" type="line"/>
      <point x="502" y="834" type="line"/>
    </contour>
    <contour>
      <point x="150" y="834" type="line"/>
      <point x="150" y="976" type="line"/>
      <point x="302" y="976" type="line"/>
      <point x="302" y="834" type="line"/>
    </contour>
    <contour>
      <point x="150" y="774" type="line"/>
      <point x="302" y="774" type="line"/>
      <point x="302" y="-2" type="line"/>
      <point x="150" y="-2" type="line"/>
    </contour>
  </outline>
</glyph>
<glyph name="Idotaccent.0" format="2">
  <advance width="252"/>
  <outline>
    <contour>
      <point x="70" y="834" type="line"/>
      <point x="70" y="976" type="line"/>
      <point x="222" y="976" type="line"/>
      <point x="222" y="834" type="line"/>
    </contour>
    <contour>
      <point x="60" y="774" type="line"/>
      <point x="212" y="774" type="line"/>
      <point x="212" y="-2" type="line"/>
      <point x="60" y="-2" type="line"/>
    </contour>
  </outline>
</glyph>
<glyph name="Idotaccent.1" format="2">
  <advance width="252"/>
  <outline>
    <contour>
      <point x="250" y="834" type="line"/>
      <point x="250" y="976" type="line"/>
      <point x="402" y="976" type="line"/>
      <point x="402" y="834" type="line"/>
    </contour>
    <contour>
      <point x="150" y="774" type="line"/>
      <point x="302" y="774" type="line"/>
      <point x="302" y="-2" type="line"/>
      <point x="150" y="-2" type="line"/>
    </contour>
  </outline>
</glyph>
<glyph name="Igrave.0" format="2">
  <advance width="252"/>
  <outline>
    <contour>
      <point x="146" y="834" type="line"/>
      <point x="-36" y="1016" type="line"/>
      <point x="72" y="1123" type="line"/>
      <point x="254" y="941" type="line"/>
    </contour>
    <contour>
      <point x="60" y="774" type="line"/>
      <point x="212" y="774" type="line"/>
      <point x="212" y="-2" type="line"/>
      <point x="60" y="-2" type="line"/>
    </contour>
  </outline>
</glyph>
<glyph name="Igrave.1" format="2">
  <advance width="252"/>
  <outline>
    <contour>
      <point x="326" y="834" type="line"/>
      <point x="144" y="1016" type="line"/>
      <point x="252" y="1123" type="line"/>
      <point x="434" y="941" type="line"/>
    </contour>
    <contour>
      <point x="150" y="774" type="line"/>
      <point x="302" y="774" type="line"/>
      <point x="302" y="-2" type="line"/>
      <point x="150" y="-2" type="line"/>
    </contour>
  </outline>
</glyph>
<glyph name="Imacron.0" format="2">
  <advance width="252"/>
  <outline>
    <contour>
      <point x="282" y="910" type="line"/>
      <point x="282" y="834" type="line"/>
      <point x="10" y="834" type="line"/>
      <point x="10" y="910" type="line"/>
    </contour>
    <contour>
      <point x="60" y="774" type="line"/>
      <point x="212" y="774" type="line"/>
      <point x="212" y="-2" type="line"/>
      <point x="60" y="-2" type="line"/>
    </contour>
  </outline>
</glyph>
<glyph name="Imacron.1" format="2">
  <advance width="252"/>
  <outline>
    <contour>
      <point x="462" y="910" type="line"/>
      <point x="462" y="834" type="line"/>
      <point x="190" y="834" type="line"/>
      <point x="190" y="910" type="line"/>
    </contour>
    <contour>
      <point x="150" y="774" type="line"/>
      <point x="302" y="774" type="line"/>
      <point x="302" y="-2" type="line"/>
      <point x="150" y="-2" type="line"/>
    </contour>
  </outline>
</glyph>
<glyph name="Iogonek.0" format="2">
  <advance width="252"/>
  <outline>
    <contour>
      <point x="153" y="-250" type="line"/>
      <point x="153" y="-250"/>
      <point x="140" y="-250" type="qcurve"/>
      <point x="86" y="-250"/>
      <point x="49" y="-212" type="qcurve"/>
      <point x="11" y="-175"/>
      <point x="11" y="-122" type="qcurve"/>
      <point x="11" y="-68"/>
      <point x="49" y="-30" type="qcurve"/>
      <point x="86" y="7"/>
      <point x="140" y="7" type="qcurve"/>
      <point x="153" y="7" type="line"/>
      <point x="153" y="-70" type="line"/>
      <point x="145" y="-68"/>
      <point x="140" y="-68" type="qcurve"/>
      <point x="118" y="-68"/>
      <point x="102" y="-84" type="qcurve"/>
      <point x="86" y="-100"/>
      <point x="86" y="-122" type="qcurve"/>
      <point x="86" y="-144"/>
      <point x="102" y="-159" type="qcurve"/>
      <point x="117" y="-175"/>
      <point x="140" y="-175" type="qcurve"/>
      <point x="145" y="-175"/>
      <point x="153" y="-173" type="qcurve"/>
    </contour>
    <contour>
      <point x="60" y="774" type="line"/>
      <point x="212" y="774" type="line"/>
      <point x="212" y="-2" type="line"/>
      <point x="60" y="-2" type="line"/>
    </contour>
  </outline>
</glyph>
<glyph name="Itilde.0" format="2">
  <advance width="252"/>
  <outline>
    <contour>
      <point x="271" y="951" type="line"/>
      <point x="271" y="875" type="line"/>
      <point x="270" y="873"/>
      <point x="263" y="864" type="qcurve"/>
      <point x="255" y="855"/>
      <point x="239" y="845" type="qcurve"/>
      <point x="223" y="834"/>
      <point x="207" y="834" type="qcurve"/>
      <point x="157" y="834" type="line"/>
      <point x="141" y="834"/>
      <point x="119" y="848" type="qcurve"/>
      <point x="96" y="862"/>
      <point x="80" y="862" type="qcurve"/>
      <point x="69" y="862"/>
      <point x="54" y="855" type="qcurve"/>
      <point x="39" y="848"/>
      <point x="30" y="841" type="qcurve"/>
      <point x="21" y="834" type="line"/>
      <point x="21" y="910" type="line"/>
      <point x="53" y="938"/>
      <point x="78" y="938" type="qcurve"/>
      <point x="95" y="938"/>
      <point x="119" y="925" type="qcurve"/>
      <point x="142" y="911"/>
      <point x="158" y="911" type="qcurve"/>
      <point x="181" y="911"/>
      <point x="203" y="911" type="qcurve"/>
      <point x="218" y="911"/>
      <point x="235" y="921" type="qcurve"/>
      <point x="252" y="931"/>
      <point x="261" y="941" type="qcurve"/>
    </contour>
    <contour>
      <point x="60" y="774" type="line"/>
      <point x="212" y="774" type="line"/>
      <point x="212" y="-2" type="line"/>
      <point x="60" y="-2" type="line"/>
    </contour>
  </outline>
</glyph>
<glyph name="Itilde.1" format="2">
  <advance width="252"/>
  <outline>
    <contour>
      <point x="451" y="951" type="line"/>
      <point x="451" y="875" type="line"/>
      <point x="450" y="873"/>
      <point x="443" y="864" type="qcurve"/>
      <point x="435" y="855"/>
      <point x="419" y="845" type="qcurve"/>
      <point x="403" y="834"/>
      <point x="387" y="834" type="qcurve"/>
      <point x="337" y="834" type="line"/>
      <point x="321" y="834"/>
      <point x="299" y="848" type="qcurve"/>
      <point x="276" y="862"/>
      <point x="260" y="862" type="qcurve"/>
      <point x="249" y="862"/>
      <point x="234" y="855" type="qcurve"/>
      <point x="219" y="848"/>
      <point x="210" y="841" type="qcurve"/>
      <point x="201" y="834" type="line"/>
      <point x="201" y="910" type="line"/>
      <point x="233" y="938"/>
      <point x="258" y="938" type="qcurve"/>
      <point x="275" y="938"/>
      <point x="299" y="925" type="qcurve"/>
      <point x="322" y="911"/>
      <point x="338" y="911" type="qcurve"/>
      <point x="361" y="911"/>
      <point x="383" y="911" type="qcurve"/>
      <point x="398" y="911"/>
      <point x="415" y="921" type="qcurve"/>
      <point x="432" y="931"/>
      <point x="441" y="941" type="qcurve"/>
    </contour>
    <contour>
      <point x="150" y="774" type="line"/>
      <point x="302" y="774" type="line"/>
      <point x="302" y="-2" type="line"/>
      <point x="150" y="-2" type="line"/>
    </contour>
  </outline>
</glyph>
<glyph name="Jcircumflex.0" format="2">
  <advance width="419"/>
  <outline>
    <contour>
      <point x="206" y="832" type="line"/>
      <point x="277" y="1000" type="line"/>
      <point x="278" y="1000" type="line"/>
      <point x="353" y="1000" type="line"/>
      <point x="354" y="1000" type="line"/>
      <point x="406" y="832" type="line"/>
      <point x="330" y="832" type="line"/>
      <point x="310" y="940" type="line"/>
      <point x="282" y="832" type="line"/>
    </contour>
    <contour>
      <point x="60" y="6" type="qcurve"/>
      <point x="60" y="174" type="line"/>
      <point x="91" y="148"/>
      <point x="131" y="148" type="qcurve"/>
      <point x="180" y="148"/>
      <point x="212" y="185" type="qcurve"/>
      <point x="212" y="761" type="line"/>
      <point x="379" y="761" type="line"/>
      <point x="376" y="184" type="line"/>
      <point x="352" y="101"/>
      <point x="285" y="49" type="qcurve"/>
      <point x="218" y="-3"/>
      <point x="131" y="-3" type="qcurve"/>
      <point x="94" y="-3"/>
    </contour>
  </outline>
</glyph>
<glyph name="Jcircumflex.1" format="2">
  <advance width="419"/>
  <outline>
    <contour>
      <point x="386" y="832" type="line"/>
      <point x="457" y="1000" type="line"/>
      <point x="458" y="1000" type="line"/>
      <point x="533" y="1000" type="line"/>
      <point x="534" y="1000" type="line"/>
      <point x="586" y="832" type="line"/>
      <point x="510" y="832" type="line"/>
      <point x="490" y="940" type="line"/>
      <point x="462" y="832" type="line"/>
    </contour>
    <contour>
      <point x="150" y="6" type="qcurve"/>
      <point x="150" y="174" type="line"/>
      <point x="181" y="148"/>
      <point x="221" y="148" type="qcurve"/>
      <point x="270" y="148"/>
      <point x="302" y="185" type="qcurve"/>
      <point x="302" y="761" type="line"/>
      <point x="469" y="761" type="line"/>
      <point x="466" y="184" type="line"/>
      <point x="442" y="101"/>
      <point x="375" y="49" type="qcurve"/>
      <point x="308" y="-3"/>
      <point x="221" y="-3" type="qcurve"/>
      <point x="184" y="-3"/>
    </contour>
  </outline>
</glyph>
<glyph name="K.0" format="2">
  <advance width="703"/>
  <outline>
    <contour>
      <point x="60" y="774" type="line"/>
      <point x="212" y="774" type="line"/>
      <point x="212" y="433" type="line"/>
      <point x="457" y="770" type="line"/>
      <point x="643" y="768" type="line"/>
      <point x="382" y="387" type="line"/>
      <point x="713" y="-3" type="line"/>
      <point x="521" y="-2" type="line"/>
      <point x="269" y="302" type="line"/>
      <point x="212" y="219" type="line"/>
      <point x="212" y="-2" type="line"/>
      <point x="60" y="-2" type="line"/>
    </contour>
  </outline>
</glyph>
<glyph name="L.0" format="2">
  <advance width="718"/>
  <outline>
    <contour>
      <point x="60" y="774" type="line"/>
      <point x="212" y="774" type="line"/>
      <point x="212" y="149" type="line"/>
      <point x="677" y="149" type="line"/>
      <point x="678" y="-3" type="line"/>
      <point x="61" y="-3" type="line"/>
      <point x="61" y="-2" type="line"/>
      <point x="60" y="-2" type="line"/>
    </contour>
  </outline>
</glyph>
<glyph name="Lacute.1" format="2">
  <advance width="718"/>
  <outline>
    <contour>
      <point x="326" y="834" type="line"/>
      <point x="218" y="941" type="line"/>
      <point x="400" y="1123" type="line"/>
      <point x="508" y="1016" type="line"/>
    </contour>
    <contour>
      <point x="150" y="774" type="line"/>
      <point x="302" y="774" type="line"/>
      <point x="302" y="149" type="line"/>
      <point x="767" y="149" type="line"/>
      <point x="768" y="-3" type="line"/>
      <point x="151" y="-3" type="line"/>
      <point x="151" y="-2" type="line"/>
      <point x="150" y="-2" type="line"/>
    </contour>
  </outline>
</glyph>
<glyph name="M.0" format="2">
  <advance width="1052"/>
  <outline>
    <contour>
      <point x="60" y="768" type="line"/>
      <point x="212" y="768" type="line"/>
      <point x="536" y="146" type="line"/>
      <point x="860" y="768" type="line"/>
      <point x="1012" y="768" type="line"/>
      <point x="1012" y="-2" type="line"/>
      <point x="860" y="-2" type="line"/>
      <point x="860" y="476" type="line"/>
      <point x="612" y="0" type="line"/>
      <point x="460" y="0" type="line"/>
      <point x="212" y="476" type="line"/>
      <point x="212" y="-2" type="line"/>
      <point x="60" y="-2" type="line"/>
    </contour>
  </outline>
</glyph>
<glyph name="N.0" format="2">
  <advance width="852"/>
  <outline>
    <contour>
      <point x="60" y="774" type="line"/>
      <point x="212" y="774" type="line"/>
      <point x="660" y="251" type="line"/>
      <point x="660" y="774" type="line"/>
      <point x="812" y="774" type="line"/>
      <point x="812" y="-2" type="line"/>
      <point x="660" y="-2" type="line"/>
      <point x="212" y="523" type="line"/>
      <point x="212" y="-2" type="line"/>
      <point x="60" y="-2" type="line"/>
    </contour>
  </outline>
</glyph>
<glyph name="Nacute.0" format="2">
  <advance width="852"/>
  <outline>
    <contour>
      <point x="446" y="834" type="line"/>
      <point x="338" y="941" type="line"/>
      <point x="520" y="1123" type="line"/>
      <point x="628" y="1016" type="line"/>
    </contour>
    <contour>
      <point x="60" y="774" type="line"/>
      <point x="212" y="774" type="line"/>
      <point x="660" y="251" type="line"/>
      <point x="660" y="774" type="line"/>
      <point x="812" y="774" type="line"/>
      <point x="812" y="-2" type="line"/>
      <point x="660" y="-2" type="line"/>
      <point x="212" y="523" type="line"/>
      <point x="212" y="-2" type="line"/>
      <point x="60" y="-2" type="line"/>
    </contour>
  </outline>
</glyph>
<glyph name="Nacute.1" format="2">
  <advance width="852"/>
  <outline>
    <contour>
      <point x="626" y="834" type="line"/>
      <point x="518" y="941" type="line"/>
      <point x="700" y="1123" type="line"/>
      <point x="808" y="1016" type="line"/>
    </contour>
    <contour>
      <point x="150" y="774" type="line"/>
      <point x="302" y="774" type="line"/>
      <point x="750" y="251" type="line"/>
      <point x="750" y="774" type="line"/>
      <point x="902" y="774" type="line"/>
      <point x="902" y="-2" type="line"/>
      <point x="750" y="-2" type="line"/>
      <point x="302" y="523" type="line"/>
      <point x="302" y="-2" type="line"/>
      <point x="150" y="-2" type="line"/>
    </contour>
  </outline>
</glyph>
<glyph name="Ncaron.0" format="2">
  <advance width="852"/>
  <outline>
    <contour>
      <point x="346" y="1002" type="line"/>
      <point x="422" y="1002" type="line"/>
      <point x="450" y="894" type="line"/>
      <point x="470" y="1002" type="line"/>
      <point x="546" y="1002" type="line"/>
      <point x="494" y="834" type="line"/>
      <point x="493" y="834" type="line"/>
      <point x="418" y="834" type="line"/>
      <point x="417" y="834" type="line"/>
    </contour>
    <contour>
      <point x="60" y="774" type="line"/>
      <point x="212" y="774" type="line"/>
      <point x="660" y="251" type="line"/>
      <point x="660" y="774" type="line"/>
      <point x="812" y="774" type="line"/>
      <point x="812" y="-2" type="line"/>
      <point x="660" y="-2" type="line"/>
      <point x="212" y="523" type="line"/>
      <point x="212" y="-2" type="line"/>
      <point x="60" y="-2" type="line"/>
    </contour>
  </outline>
</glyph>
<glyph name="Ncaron.1" format="2">
  <advance width="852"/>
  <outline>
    <contour>
      <point x="526" y="1002" type="line"/>
      <point x="602" y="1002" type="line"/>
      <point x="630" y="894" type="line"/>
      <point x="650" y="1002" type="line"/>
      <point x="726" y="1002" type="line"/>
      <point x="674" y="834" type="line"/>
      <point x="673" y="834" type="line"/>
      <point x="598" y="834" type="line"/>
      <point x="597" y="834" type="line"/>
    </contour>
    <contour>
      <point x="150" y="774" type="line"/>
      <point x="302" y="774" type="line"/>
      <point x="750" y="251" type="line"/>
      <point x="750" y="774" type="line"/>
      <point x="902" y="774" type="line"/>
      <point x="902" y="-2" type="line"/>
      <point x="750" y="-2" type="line"/>
      <point x="302" y="523" type="line"/>
      <point x="302" y="-2" type="line"/>
      <point x="150" y="-2" type="line"/>
    </contour>
  </outline>
</glyph>
<glyph name="Ntilde.0" format="2">
  <advance width="852"/>
  <outline>
    <contour>
      <point x="571" y="951" type="line"/>
      <point x="571" y="875" type="line"/>
      <point x="570" y="873"/>
      <point x="563" y="864" type="qcurve"/>
      <point x="555" y="855"/>
      <point x="539" y="845" type="qcurve"/>
      <point x="523" y="834"/>
      <point x="507" y="834" type="qcurve"/>
      <point x="457" y="834" type="line"/>
      <point x="441" y="834"/>
      <point x="419" y="848" type="qcurve"/>
      <point x="396" y="862"/>
      <point x="380" y="862" type="qcurve"/>
      <point x="369" y="862"/>
      <point x="354" y="855" type="qcurve"/>
      <point x="339" y="848"/>
      <point x="330" y="841" type="qcurve"/>
      <point x="321" y="834" type="line"/>
      <point x="321" y="910" type="line"/>
      <point x="353" y="938"/>
      <point x="378" y="938" type="qcurve"/>
      <point x="395" y="938"/>
      <point x="419" y="925" type="qcurve"/>
      <point x="442" y="911"/>
      <point x="458" y="911" type="qcurve"/>
      <point x="481" y="911"/>
      <point x="503" y="911" type="qcurve"/>
      <point x="518" y="911"/>
      <point x="535" y="921" type="qcurve"/>
      <point x="552" y="931"/>
      <point x="561" y="941" type="qcurve"/>
    </contour>
    <contour>
      <point x="60" y="774" type="line"/>
      <point x="212" y="774" type="line"/>
      <point x="660" y="251" type="line"/>
      <point x="660" y="774" type="line"/>
      <point x="812" y="774" type="line"/>
      <point x="812" y="-2" type="line"/>
      <point x="660" y="-2" type="line"/>
      <point x="212" y="523" type="line"/>
      <point x="212" y="-2" type="line"/>
      <point x="60" y="-2" type="line"/>
    </contour>
  </outline>
</glyph>
<glyph name="Ntilde.1" format="2">
  <advance width="852"/>
  <outline>
    <contour>
      <point x="751" y="951" type="line"/>
      <point x="751" y="875" type="line"/>
      <point x="750" y="873"/>
      <point x="743" y="864" type="qcurve"/>
      <point x="735" y="855"/>
      <point x="719" y="845" type="qcurve"/>
      <point x="703" y="834"/>
      <point x="687" y="834" type="qcurve"/>
      <point x="637" y="834" type="line"/>
      <point x="621" y="834"/>
      <point x="599" y="848" type="qcurve"/>
      <point x="576" y="862"/>
      <point x="560" y="862" type="qcurve"/>
      <point x="549" y="862"/>
      <point x="534" y="855" type="qcurve"/>
      <point x="519" y="848"/>
      <point x="510" y="841" type="qcurve"/>
      <point x="501" y="834" type="line"/>
      <point x="501" y="910" type="line"/>
      <point x="533" y="938"/>
      <point x="558" y="938" type="qcurve"/>
      <point x="575" y="938"/>
      <point x="599" y="925" type="qcurve"/>
      <point x="622" y="911"/>
      <point x="638" y="911" type="qcurve"/>
      <point x="661" y="911"/>
      <point x="683" y="911" type="qcurve"/>
      <point x="698" y="911"/>
      <point x="715" y="921" type="qcurve"/>
      <point x="732" y="931"/>
      <point x="741" y="941" type="qcurve"/>
    </contour>
    <contour>
      <point x="150" y="774" type="line"/>
      <point x="302" y="774" type="line"/>
      <point x="750" y="251" type="line"/>
      <point x="750" y="774" type="line"/>
      <point x="902" y="774" type="line"/>
      <point x="902" y="-2" type="line"/>
      <point x="750" y="-2" type="line"/>
      <point x="302" y="523" type="line"/>
      <point x="302" y="-2" type="line"/>
      <point x="150" y="-2" type="line"/>
    </contour>
  </outline>
</glyph>
<glyph name="Obreve.0" format="2">
  <advance width="864"/>
  <outline>
    <contour>
      <point x="269" y="1024" type="line"/>
      <point x="269" y="974"/>
      <point x="325" y="930" type="qcurve"/>
      <point x="380" y="885"/>
      <point x="452" y="885" type="qcurve"/>
      <point x="525" y="885"/>
      <point x="581" y="930" type="qcurve"/>
      <point x="636" y="974"/>
      <point x="636" y="1024" type="qcurve"/>
      <point x="645" y="1060" type="line"/>
      <point x="648" y="1043"/>
      <point x="648" y="1024" type="qcurve"/>
      <point x="648" y="945"/>
      <point x="591" y="889" type="qcurve"/>
      <point x="533" y="833"/>
      <point x="451" y="833" type="qcurve"/>
      <point x="370" y="833"/>
      <point x="313" y="889" type="qcurve"/>
      <point x="255" y="945"/>
      <point x="255" y="1024" type="qcurve"/>
      <point x="255" y="1043"/>
      <point x="258" y="1060" type="qcurve"/>
    </contour>
    <contour>
      <point x="824" y="380" type="qcurve"/>
      <point x="824" y="217"/>
      <point x="712" y="102" type="qcurve"/>
      <point x="600" y="-14"/>
      <point x="442" y="-14" type="qcurve"/>
      <point x="284" y="-14"/>
      <point x="172" y="102" type="qcurve"/>
      <point x="60" y="217"/>
      <point x="60" y="380" type="qcurve"/>
      <point x="60" y="543"/>
      <point x="172" y="658" type="qcurve"/>
      <point x="284" y="773"/>
      <point x="442" y="773" type="qcurve"/>
      <point x="600" y="773"/>
      <point x="712" y="658" type="qcurve"/>
      <point x="824" y="543"/>
    </contour>
    <contour>
      <point x="671" y="378" type="qcurve"/>
      <point x="671" y="475"/>
      <point x="604" y="544" type="qcurve"/>
      <point x="537" y="612"/>
      <point x="442" y="612" type="qcurve"/>
      <point x="347" y="612"/>
      <point x="280" y="544" type="qcurve"/>
      <point x="213" y="475"/>
      <point x="213" y="378" type="qcurve"/>
      <point x="213" y="280"/>
      <point x="280" y="212" type="qcurve"/>
      <point x="347" y="143"/>
      <point x="442" y="143" type="qcurve"/>
      <point x="537" y="143"/>
      <point x="604" y="212" type="qcurve"/>
      <point x="671" y="280"/>
    </contour>
  </outline>
</glyph>
<glyph name="Obreve.1" format="2">
  <advance width="864"/>
  <outline>
    <contour>
      <point x="449" y="1024" type="line"/>
      <point x="449" y="974"/>
      <point x="505" y="930" type="qcurve"/>
      <point x="560" y="885"/>
      <point x="632" y="885" type="qcurve"/>
      <point x="705" y="885"/>
      <point x="761" y="930" type="qcurve"/>
      <point x="816" y="974"/>
      <point x="816" y="1024" type="qcurve"/>
      <point x="825" y="1060" type="line"/>
      <point x="828" y="1043"/>
      <point x="828" y="1024" type="qcurve"/>
      <point x="828" y="945"/>
      <point x="771" y="889" type="qcurve"/>
      <point x="713" y="833"/>
      <point x="631" y="833" type="qcurve"/>
      <point x="550" y="833"/>
      <point x="493" y="889" type="qcurve"/>
      <point x="435" y="945"/>
      <point x="435" y="1024" type="qcurve"/>
      <point x="435" y="1043"/>
      <point x="438" y="1060" type="qcurve"/>
    </contour>
    <contour>
      <point x="914" y="380" type="qcurve"/>
      <point x="914" y="217"/>
      <point x="802" y="102" type="qcurve"/>
      <point x="690" y="-14"/>
      <point x="532" y="-14" type="qcurve"/>
      <point x="374" y="-14"/>
      <point x="262" y="102" type="qcurve"/>
      <point x="150" y="217"/>
      <point x="150" y="380" type="qcurve"/>
      <point x="150" y="543"/>
      <point x="262" y="658" type="qcurve"/>
      <point x="374" y="773"/>
      <point x="532" y="773" type="qcurve"/>
      <point x="690" y="773"/>
      <point x="802" y="658" type="qcurve"/>
      <point x="914" y="543"/>
    </contour>
    <contour>
      <point x="761" y="378" type="qcurve"/>
      <point x="761" y="475"/>
      <point x="694" y="544" type="qcurve"/>
      <point x="627" y="612"/>
      <point x="532" y="612" type="qcurve"/>
      <point x="437" y="612"/>
      <point x="370" y="544" type="qcurve"/>
      <point x="303" y="475"/>
      <point x="303" y="378" type="qcurve"/>
      <point x="303" y="280"/>
      <point x="370" y="212" type="qcurve"/>
      <point x="437" y="143"/>
      <point x="532" y="143" type="qcurve"/>
      <point x="627" y="143"/>
      <point x="694" y="212" type="qcurve"/>
      <point x="761" y="280"/>
    </contour>
  </outline>
</glyph>
<glyph name="Ocircumflex.1" format="2">
  <advance width="864"/>
  <outline>
    <contour>
      <point x="532" y="832" type="line"/>
      <point x="603" y="1000" type="line"/>
      <point x="604" y="1000" type="line"/>
      <point x="679" y="1000" type="line"/>
      <point x="680" y="1000" type="line"/>
      <point x="732" y="832" type="line"/>
      <point x="656" y="832" type="line"/>
      <point x="636" y="940" type="line"/>
      <point x="608" y="832" type="line"/>
    </contour>
    <contour>
      <point x="914" y="380" type="qcurve"/>
      <point x="914" y="217"/>
      <point x="802" y="102" type="qcurve"/>
      <point x="690" y="-14"/>
      <point x="532" y="-14" type="qcurve"/>
      <point x="374" y="-14"/>
      <point x="262" y="102" type="qcurve"/>
      <point x="150" y="217"/>
      <point x="150" y="380" type="qcurve"/>
      <point x="150" y="543"/>
      <point x="262" y="658" type="qcurve"/>
      <point x="374" y="773"/>
      <point x="532" y="773" type="qcurve"/>
      <point x="690" y="773"/>
      <point x="802" y="658" type="qcurve"/>
      <point x="914" y="543"/>
    </contour>
    <contour>
      <point x="761" y="378" type="qcurve"/>
      <point x="761" y="475"/>
      <point x="694" y="544" type="qcurve"/>
      <point x="627" y="612"/>
      <point x="532" y="612" type="qcurve"/>
      <point x="437" y="612"/>
      <point x="370" y="544" type="qcurve"/>
      <point x="303" y="475"/>
      <point x="303" y="378" type="qcurve"/>
      <point x="303" y="280"/>
      <point x="370" y="212" type="qcurve"/>
      <point x="437" y="143"/>
      <point x="532" y="143" type="qcurve"/>
      <point x="627" y="143"/>
      <point x="694" y="212" type="qcurve"/>
      <point x="761" y="280"/>
    </contour>
  </outline>
</glyph>
<glyph name="Odieresis.0" format="2">
  <advance width="864"/>
  <outline>
    <contour>
      <point x="476" y="833" type="line"/>
      <point x="476" y="975" type="line"/>
      <point x="628" y="975" type="line"/>
      <point x="628" y="833" type="line"/>
    </contour>
    <contour>
      <point x="276" y="833" type="line"/>
      <point x="276" y="975" type="line"/>
      <point x="428" y="975" type="line"/>
      <point x="428" y="833" type="line"/>
    </contour>
    <contour>
      <point x="824" y="380" type="qcurve"/>
      <point x="824" y="217"/>
      <point x="712" y="102" type="qcurve"/>
      <point x="600" y="-14"/>
      <point x="442" y="-14" type="qcurve"/>
      <point x="284" y="-14"/>
      <point x="172" y="102" type="qcurve"/>
      <point x="60" y="217"/>
      <point x="60" y="380" type="qcurve"/>
      <point x="60" y="543"/>
      <point x="172" y="658" type="qcurve"/>
      <point x="284" y="773"/>
      <point x="442" y="773" type="qcurve"/>
      <point x="600" y="773"/>
      <point x="712" y="658" type="qcurve"/>
      <point x="824" y="543"/>
    </contour>
    <contour>
      <point x="671" y="378" type="qcurve"/>
      <point x="671" y="475"/>
      <point x="604" y="544" type="qcurve"/>
      <point x="537" y="612"/>
      <point x="442" y="612" type="qcurve"/>
      <point x="347" y="612"/>
      <point x="280" y="544" type="qcurve"/>
      <point x="213" y="475"/>
      <point x="213" y="378" type="qcurve"/>
      <point x="213" y="280"/>
      <point x="280" y="212" type="qcurve"/>
      <point x="347" y="143"/>
      <point x="442" y="143" type="qcurve"/>
      <point x="537" y="143"/>
      <point x="604" y="212" type="qcurve"/>
      <point x="671" y="280"/>
    </contour>
  </outline>
</glyph>
<glyph name="Otilde.0" format="2">
  <advance width="864"/>
  <outline>
    <contour>
      <point x="577" y="950" type="line"/>
      <point x="577" y="874" type="line"/>
      <point x="576" y="872"/>
      <point x="569" y="863" type="qcurve"/>
      <point x="561" y="854"/>
      <point x="545" y="844" type="qcurve"/>
      <point x="529" y="833"/>
      <point x="513" y="833" type="qcurve"/>
      <point x="463" y="833" type="line"/>
      <point x="447" y="833"/>
      <point x="425" y="847" type="qcurve"/>
      <point x="402" y="861"/>
      <point x="386" y="861" type="qcurve"/>
      <point x="375" y="861"/>
      <point x="360" y="854" type="qcurve"/>
      <point x="345" y="847"/>
      <point x="336" y="840" type="qcurve"/>
      <point x="327" y="833" type="line"/>
      <point x="327" y="909" type="line"/>
      <point x="359" y="937"/>
      <point x="384" y="937" type="qcurve"/>
      <point x="401" y="937"/>
      <point x="425" y="924" type="qcurve"/>
      <point x="448" y="910"/>
      <point x="464" y="910" type="qcurve"/>
      <point x="487" y="910"/>
      <point x="509" y="910" type="qcurve"/>
      <point x="524" y="910"/>
      <point x="541" y="920" type="qcurve"/>
      <point x="558" y="930"/>
      <point x="567" y="940" type="qcurve"/>
    </contour>
    <contour>
      <point x="824" y="380" type="qcurve"/>
      <point x="824" y="217"/>
      <point x="712" y="102" type="qcurve"/>
      <point x="600" y="-14"/>
      <point x="442" y="-14" type="qcurve"/>
      <point x="284" y="-14"/>
      <point x="172" y="102" type="qcurve"/>
      <point x="60" y="217"/>
      <point x="60" y="380" type="qcurve"/>
      <point x="60" y="543"/>
      <point x="172" y="658" type="qcurve"/>
      <point x="284" y="773"/>
      <point x="442" y="773" type="qcurve"/>
      <point x="600" y="773"/>
      <point x="712" y="658" type="qcurve"/>
      <point x="824" y="543"/>
    </contour>
    <contour>
      <point x="671" y="378" type="qcurve"/>
      <point x="671" y="475"/>
      <point x="604" y="544" type="qcurve"/>
      <point x="537" y="612"/>
      <point x="442" y="612" type="qcurve"/>
      <point x="347" y="612"/>
      <point x="280" y="544" type="qcurve"/>
      <point x="213" y="475"/>
      <point x="213" y="378" type="qcurve"/>
      <point x="213" y="280"/>
      <point x="280" y="212" type="qcurve"/>
      <point x="347" y="143"/>
      <point x="442" y="143" type="qcurve"/>
      <point x="537" y="143"/>
      <point x="604" y="212" type="qcurve"/>
      <point x="671" y="280"/>
    </contour>
  </outline>
</glyph>
<glyph name="Otilde.1" format="2">
  <advance width="864"/>
  <outline>
    <contour>
      <point x="757" y="950" type="line"/>
      <point x="757" y="874" type="line"/>
      <point x="756" y="872"/>
      <point x="749" y="863" type="qcurve"/>
      <point x="741" y="854"/>
      <point x="725" y="844" type="qcurve"/>
      <point x="709" y="833"/>
      <point x="693" y="833" type="qcurve"/>
      <point x="643" y="833" type="line"/>
      <point x="627" y="833"/>
      <point x="605" y="847" type="qcurve"/>
      <point x="582" y="861"/>
      <point x="566" y="861" type="qcurve"/>
      <point x="555" y="861"/>
      <point x="540" y="854" type="qcurve"/>
      <point x="525" y="847"/>
      <point x="516" y="840" type="qcurve"/>
      <point x="507" y="833" type="line"/>
      <point x="507" y="909" type="line"/>
      <point x="539" y="937"/>
      <point x="564" y="937" type="qcurve"/>
      <point x="581" y="937"/>
      <point x="605" y="924" type="qcurve"/>
      <point x="628" y="910"/>
      <point x="644" y="910" type="qcurve"/>
      <point x="667" y="910"/>
      <point x="689" y="910" type="qcurve"/>
      <point x="704" y="910"/>
      <point x="721" y="920" type="qcurve"/>
      <point x="738" y="930"/>
      <point x="747" y="940" type="qcurve"/>
    </contour>
    <contour>
      <point x="914" y="380" type="qcurve"/>
      <point x="914" y="217"/>
      <point x="802" y="102" type="qcurve"/>
      <point x="690" y="-14"/>
      <point x="532" y="-14" type="qcurve"/>
      <point x="374" y="-14"/>
      <point x="262" y="102" type="qcurve"/>
      <point x="150" y="217"/>
      <point x="150" y="380" type="qcurve"/>
      <point x="150" y="543"/>
      <point x="262" y="658" type="qcurve"/>
      <point x="374" y="773"/>
      <point x="532" y="773" type="qcurve"/>
      <point x="690" y="773"/>
      <point x="802" y="658" type="qcurve"/>
      <point x="914" y="543"/>
    </contour>
    <contour>
      <point x="761" y="378" type="qcurve"/>
      <point x="761" y="475"/>
      <point x="694" y="544" type="qcurve"/>
      <point x="627" y="612"/>
      <point x="532" y="612" type="qcurve"/>
      <point x="437" y="612"/>
      <point x="370" y="544" type="qcurve"/>
      <point x="303" y="475"/>
      <point x="303" y="378" type="qcurve"/>
      <point x="303" y="280"/>
      <point x="370" y="212" type="qcurve"/>
      <point x="437" y="143"/>
      <point x="532" y="143" type="qcurve"/>
      <point x="627" y="143"/>
      <point x="694" y="212" type="qcurve"/>
      <point x="761" y="280"/>
    </contour>
  </outline>
</glyph>
<glyph name="P.0" format="2">
  <advance width="534"/>
  <outline>
    <contour>
      <point x="212" y="3" type="line"/>
      <point x="60" y="3" type="line"/>
      <point x="60" y="779" type="line"/>
      <point x="212" y="779" type="line"/>
      <point x="220" y="780"/>
      <point x="236" y="780" type="qcurve"/>
      <point x="343" y="780"/>
      <point x="419" y="705" type="qcurve"/>
      <point x="494" y="630"/>
      <point x="494" y="523" type="qcurve"/>
      <point x="494" y="416"/>
      <point x="419" y="341" type="qcurve"/>
      <point x="343" y="265"/>
      <point x="236" y="265" type="qcurve"/>
      <point x="220" y="265"/>
      <point x="212" y="266" type="qcurve"/>
    </contour>
    <contour>
      <point x="212" y="626" type="qcurve"/>
      <point x="212" y="419" type="line"/>
      <point x="224" y="416"/>
      <point x="236" y="416" type="qcurve"/>
      <point x="281" y="416"/>
      <point x="312" y="447" type="qcurve"/>
      <point x="343" y="478"/>
      <point x="343" y="523" type="qcurve"/>
      <point x="343" y="567"/>
      <point x="312" y="598" type="qcurve"/>
      <point x="281" y="629"/>
      <point x="236" y="629" type="qcurve"/>
      <point x="224" y="629"/>
    </contour>
  </outline>
</glyph>
<glyph name="R.0" format="2">
  <advance width="512"/>
  <outline>
    <contour>
      <point x="212" y="626" type="qcurve"/>
      <point x="212" y="419" type="line"/>
      <point x="224" y="416"/>
      <point x="236" y="416" type="qcurve"/>
      <point x="281" y="416"/>
      <point x="312" y="447" type="qcurve"/>
      <point x="343" y="478"/>
      <point x="343" y="523" type="qcurve"/>
      <point x="343" y="567"/>
      <point x="312" y="598" type="qcurve"/>
      <point x="281" y="629"/>
      <point x="236" y="629" type="qcurve"/>
      <point x="224" y="629"/>
    </contour>
    <contour>
      <point x="212" y="3" type="line"/>
      <point x="60" y="3" type="line"/>
      <point x="60" y="779" type="line"/>
      <point x="212" y="779" type="line"/>
      <point x="220" y="780"/>
      <point x="236" y="780" type="qcurve"/>
      <point x="343" y="780"/>
      <point x="419" y="705" type="qcurve"/>
      <point x="494" y="630"/>
      <point x="494" y="523" type="qcurve"/>
      <point x="494" y="440"/>
      <point x="447" y="374" type="qcurve"/>
      <point x="399" y="307"/>
      <point x="323" y="280" type="qcurve"/>
      <point x="522" y="-3" type="line"/>
      <point x="382" y="-3" type="line"/>
      <point x="217" y="266" type="line"/>
      <point x="214" y="266"/>
      <point x="212" y="266" type="qcurve"/>
    </contour>
  </outline>
</glyph>
<glyph name="Scaron.1" format="2">
  <advance width="512"/>
  <outline>
    <contour>
      <point x="423" y="1001" type="line"/>
      <point x="499" y="1001" type="line"/>
      <point x="527" y="893" type="line"/>
      <point x="547" y="1001" type="line"/>
      <point x="623" y="1001" type="line"/>
      <point x="571" y="833" type="line"/>
      <point x="570" y="833" type="line"/>
      <point x="495" y="833" type="line"/>
      <point x="494" y="833" type="line"/>
    </contour>
    <contour>
      <point x="155" y="57" type="qcurve"/>
      <point x="230" y="182" type="line"/>
      <point x="242" y="172"/>
      <point x="252" y="167" type="qcurve"/>
      <point x="290" y="145"/>
      <point x="332" y="156" type="qcurve"/>
      <point x="374" y="166"/>
      <point x="397" y="202" type="qcurve"/>
      <point x="419" y="241"/>
      <point x="395" y="275" type="qcurve"/>
      <point x="370" y="308"/>
      <point x="327" y="315" type="qcurve"/>
      <point x="260" y="351"/>
      <point x="220" y="398" type="qcurve"/>
      <point x="179" y="445"/>
      <point x="169" y="508" type="qcurve"/>
      <point x="158" y="570"/>
      <point x="201" y="639" type="qcurve"/>
      <point x="253" y="726"/>
      <point x="356" y="752" type="qcurve"/>
      <point x="459" y="777"/>
      <point x="553" y="727" type="qcurve"/>
      <point x="556" y="724"/>
      <point x="564" y="720" type="qcurve"/>
      <point x="571" y="715"/>
      <point x="574" y="712" type="qcurve"/>
      <point x="499" y="587" type="line"/>
      <point x="487" y="597"/>
      <point x="477" y="602" type="qcurve"/>
      <point x="439" y="623"/>
      <point x="397" y="613" type="qcurve"/>
      <point x="354" y="602"/>
      <point x="332" y="565" type="qcurve"/>
      <point x="307" y="524"/>
      <point x="328" y="475" type="qcurve"/>
      <point x="348" y="426"/>
      <point x="396" y="418" type="qcurve"/>
      <point x="445" y="392"/>
      <point x="479" y="366" type="qcurve"/>
      <point x="512" y="339"/>
      <point x="537" y="304" type="qcurve"/>
      <point x="561" y="268"/>
      <point x="560" y="224" type="qcurve"/>
      <point x="558" y="180"/>
      <point x="527" y="130" type="qcurve"/>
      <point x="475" y="42"/>
      <point x="373" y="17" type="qcurve"/>
      <point x="270" y="-9"/>
      <point x="176" y="42" type="qcurve"/>
      <point x="173" y="45"/>
      <point x="166" y="50" type="qcurve"/>
      <point x="158" y="54"/>
    </contour>
  </outline>
</glyph>
<glyph name="Scircumflex.0" format="2">
  <advance width="512"/>
  <outline>
    <contour>
      <point x="243" y="832" type="line"/>
      <point x="314" y="1000" type="line"/>
      <point x="315" y="1000" type="line"/>
      <point x="390" y="1000" type="line"/>
      <point x="391" y="1000" type="line"/>
      <point x="443" y="832" type="line"/>
      <point x="367" y="832" type="line"/>
      <point x="347" y="940" type="line"/>
      <point x="319" y="832" type="line"/>
    </contour>
    <contour>
      <point x="65" y="57" type="qcurve"/>
      <point x="140" y="182" type="line"/>
      <point x="152" y="172"/>
      <point x="162" y="167" type="qcurve"/>
      <point x="200" y="145"/>
      <point x="242" y="156" type="qcurve"/>
      <point x="284" y="166"/>
      <point x="307" y="202" type="qcurve"/>
      <point x="329" y="241"/>
      <point x="305" y="275" type="qcurve"/>
      <point x="280" y="308"/>
      <point x="237" y="315" type="qcurve"/>
      <point x="170" y="351"/>
      <point x="130" y="398" type="qcurve"/>
      <point x="89" y="445"/>
      <point x="79" y="508" type="qcurve"/>
      <point x="68" y="570"/>
      <point x="111" y="639" type="qcurve"/>
      <point x="163" y="726"/>
      <point x="266" y="752" type="qcurve"/>
      <point x="369" y="777"/>
      <point x="463" y="727" type="qcurve"/>
      <point x="466" y="724"/>
      <point x="474" y="720" type="qcurve"/>
      <point x="481" y="715"/>
      <point x="484" y="712" type="qcurve"/>
      <point x="409" y="587" type="line"/>
      <point x="397" y="597"/>
      <point x="387" y="602" type="qcurve"/>
      <point x="349" y="623"/>
      <point x="307" y="613" type="qcurve"/>
      <point x="264" y="602"/>
      <point x="242" y="565" type="qcurve"/>
      <point x="217" y="524"/>
      <point x="238" y="475" type="qcurve"/>
      <point x="258" y="426"/>
      <point x="306" y="418" type="qcurve"/>
      <point x="355" y="392"/>
      <point x="389" y="366" type="qcurve"/>
      <point x="422" y="339"/>
      <point x="447" y="304" type="qcurve"/>
      <point x="471" y="268"/>
      <point x="470" y="224" type="qcurve"/>
      <point x="468" y="180"/>
      <point x="437" y="130" type="qcurve"/>
      <point x="385" y="42"/>
      <point x="283" y="17" type="qcurve"/>
      <point x="180" y="-9"/>
      <point x="86" y="42" type="qcurve"/>
      <point x="83" y="45"/>
      <point x="76" y="50" type="qcurve"/>
      <point x="68" y="54"/>
    </contour>
  </outline>
</glyph>
<glyph name="T.0" format="2">
  <advance width="676"/>
  <outline>
    <contour>
      <point x="63" y="614" type="line"/>
      <point x="63" y="766" type="line"/>
      <point x="639" y="766" type="line"/>
      <point x="639" y="614" type="line"/>
      <point x="427" y="614" type="line"/>
      <point x="427" y="-2" type="line"/>
      <point x="275" y="-2" type="line"/>
      <point x="275" y="614" type="line"/>
    </contour>
  </outline>
</glyph>
<glyph name="Tcaron.0" format="2">
  <advance width="676"/>
  <outline>
    <contour>
      <point x="261" y="1001" type="line"/>
      <point x="337" y="1001" type="line"/>
      <point x="365" y="893" type="line"/>
      <point x="385" y="1001" type="line"/>
      <point x="461" y="1001" type="line"/>
      <point x="409" y="833" type="line"/>
      <point x="408" y="833" type="line"/>
      <point x="333" y="833" type="line"/>
      <point x="332" y="833" type="line"/>
    </contour>
    <contour>
      <point x="63" y="614" type="line"/>
      <point x="63" y="766" type="line"/>
      <point x="639" y="766" type="line"/>
      <point x="639" y="614" type="line"/>
      <point x="427" y="614" type="line"/>
      <point x="427" y="-2" type="line"/>
      <point x="275" y="-2" type="line"/>
      <point x="275" y="614" type="line"/>
    </contour>
  </outline>
</glyph>
<glyph name="Tcaron.1" format="2">
  <advance width="676"/>
  <outline>
    <contour>
      <point x="441" y="1001" type="line"/>
      <point x="517" y="1001" type="line"/>
      <point x="545" y="893" type="line"/>
      <point x="565" y="1001" type="line"/>
      <point x="641" y="1001" type="line"/>
      <point x="589" y="833" type="line"/>
      <point x="588" y="833" type="line"/>
      <point x="513" y="833" type="line"/>
      <point x="512" y="833" type="line"/>
    </contour>
    <contour>
      <point x="153" y="614" type="line"/>
      <point x="153" y="766" type="line"/>
      <point x="729" y="766" type="line"/>
      <point x="729" y="614" type="line"/>
      <point x="517" y="614" type="line"/>
      <point x="517" y="-2" type="line"/>
      <point x="365" y="-2" type="line"/>
      <point x="365" y="614" type="line"/>
    </contour>
  </outline>
</glyph>
<glyph name="Thorn.0" format="2">
  <advance width="512"/>
  <outline>
    <contour>
      <point x="212" y="3" type="line"/>
      <point x="60" y="3" type="line"/>
      <point x="60" y="903" type="line"/>
      <point x="207" y="903" type="line"/>
      <point x="212" y="714" type="line"/>
      <point x="220" y="715"/>
      <point x="236" y="715" type="qcurve"/>
      <point x="343" y="715"/>
      <point x="419" y="640" type="qcurve"/>
      <point x="494" y="565"/>
      <point x="494" y="458" type="qcurve"/>
      <point x="494" y="351"/>
      <point x="419" y="276" type="qcurve"/>
      <point x="343" y="200"/>
      <point x="236" y="200" type="qcurve"/>
      <point x="220" y="200"/>
      <point x="212" y="201" type="qcurve"/>
    </contour>
    <contour>
      <point x="212" y="561" type="qcurve"/>
      <point x="212" y="354" type="line"/>
      <point x="224" y="351"/>
      <point x="236" y="351" type="qcurve"/>
      <point x="281" y="351"/>
      <point x="312" y="382" type="qcurve"/>
      <point x="343" y="413"/>
      <point x="343" y="458" type="qcurve"/>
      <point x="343" y="502"/>
      <point x="312" y="533" type="qcurve"/>
      <point x="281" y="564"/>
      <point x="236" y="564" type="qcurve"/>
      <point x="224" y="564"/>
    </contour>
  </outline>
</glyph>
<glyph name="Uacute.1" format="2">
  <advance width="669"/>
  <outline>
    <contour>
      <point x="535" y="833" type="line"/>
      <point x="427" y="940" type="line"/>
      <point x="609" y="1122" type="line"/>
      <point x="717" y="1015" type="line"/>
    </contour>
    <contour>
      <point x="716" y="184" type="line"/>
      <point x="700" y="126"/>
      <point x="656" y="85" type="qcurve"/>
      <point x="611" y="43"/>
      <point x="555" y="24" type="qcurve"/>
      <point x="499" y="4"/>
      <point x="435" y="4" type="qcurve"/>
      <point x="371" y="3"/>
      <point x="315" y="22" type="qcurve"/>
      <point x="258" y="41"/>
      <point x="214" y="83" type="qcurve"/>
      <point x="170" y="125"/>
      <point x="153" y="184" type="qcurve"/>
      <point x="150" y="761" type="line"/>
      <point x="317" y="761" type="line"/>
      <point x="317" y="185" type="line"/>
      <point x="346" y="152"/>
      <point x="435" y="152" type="qcurve"/>
      <point x="524" y="151"/>
      <point x="552" y="185" type="qcurve"/>
      <point x="552" y="761" type="line"/>
      <point x="719" y="761" type="line"/>
    </contour>
  </outline>
</glyph>
<glyph name="Ubreve.0" format="2">
  <advance width="669"/>
  <outline>
    <contour>
      <point x="172" y="1024" type="line"/>
      <point x="172" y="974"/>
      <point x="228" y="930" type="qcurve"/>
      <point x="283" y="885"/>
      <point x="355" y="885" type="qcurve"/>
      <point x="428" y="885"/>
      <point x="484" y="930" type="qcurve"/>
      <point x="539" y="974"/>
      <point x="539" y="1024" type="qcurve"/>
      <point x="548" y="1060" type="line"/>
      <point x="551" y="1043"/>
      <point x="551" y="1024" type="qcurve"/>
      <point x="551" y="945"/>
      <point x="494" y="889" type="qcurve"/>
      <point x="436" y="833"/>
      <point x="354" y="833" type="qcurve"/>
      <point x="273" y="833"/>
      <point x="216" y="889" type="qcurve"/>
      <point x="158" y="945"/>
      <point x="158" y="1024" type="qcurve"/>
      <point x="158" y="1043"/>
      <point x="161" y="1060" type="qcurve"/>
    </contour>
    <contour>
      <point x="626" y="184" type="line"/>
      <point x="610" y="126"/>
      <point x="566" y="85" type="qcurve"/>
      <point x="521" y="43"/>
      <point x="465" y="24" type="qcurve"/>
      <point x="409" y="4"/>
      <point x="345" y="4" type="qcurve"/>
      <point x="281" y="3"/>
      <point x="225" y="22" type="qcurve"/>
      <point x="168" y="41"/>
      <point x="124" y="83" type="qcurve"/>
      <point x="80" y="125"/>
      <point x="63" y="184" type="qcurve"/>
      <point x="60" y="761" type="line"/>
      <point x="227" y="761" type="line"/>
      <point x="227" y="185" type="line"/>
      <point x="256" y="152"/>
      <point x="345" y="152" type="qcurve"/>
      <point x="434" y="151"/>
      <point x="462" y="185" type="qcurve"/>
      <point x="462" y="761" type="line"/>
      <point x="629" y="761" type="line"/>
    </contour>
  </outline>
</glyph>
<glyph name="Ubreve.1" format="2">
  <advance width="669"/>
  <outline>
    <contour>
      <point x="352" y="1024" type="line"/>
      <point x="352" y="974"/>
      <point x="408" y="930" type="qcurve"/>
      <point x="463" y="885"/>
      <point x="535" y="885" type="qcurve"/>
      <point x="608" y="885"/>
      <point x="664" y="930" type="qcurve"/>
      <point x="719" y="974"/>
      <point x="719" y="1024" type="qcurve"/>
      <point x="728" y="1060" type="line"/>
      <point x="731" y="1043"/>
      <point x="731" y="1024" type="qcurve"/>
      <point x="731" y="945"/>
      <point x="674" y="889" type="qcurve"/>
      <point x="616" y="833"/>
      <point x="534" y="833" type="qcurve"/>
      <point x="453" y="833"/>
      <point x="396" y="889" type="qcurve"/>
      <point x="338" y="945"/>
      <point x="338" y="1024" type="qcurve"/>
      <point x="338" y="1043"/>
      <point x="341" y="1060" type="qcurve"/>
    </contour>
    <contour>
      <point x="716" y="184" type="line"/>
      <point x="700" y="126"/>
      <point x="656" y="85" type="qcurve"/>
      <point x="611" y="43"/>
      <point x="555" y="24" type="qcurve"/>
      <point x="499" y="4"/>
      <point x="435" y="4" type="qcurve"/>
      <point x="371" y="3"/>
      <point x="315" y="22" type="qcurve"/>
      <point x="258" y="41"/>
      <point x="214" y="83" type="qcurve"/>
      <point x="170" y="125"/>
      <point x="153" y="184" type="qcurve"/>
      <point x="150" y="761" type="line"/>
      <point x="317" y="761" type="line"/>
      <point x="317" y="185" type="line"/>
      <point x="346" y="152"/>
      <point x="435" y="152" type="qcurve"/>
      <point x="524" y="151"/>
      <point x="552" y="185" type="qcurve"/>
      <point x="552" y="761" type="line"/>
      <point x="719" y="761" type="line"/>
    </contour>
  </outline>
</glyph>
<glyph name="Udieresis.0" format="2">
  <advance width="669"/>
  <outline>
    <contour>
      <point x="378" y="833" type="line"/>
      <point x="378" y="975" type="line"/>
      <point x="530" y="975" type="line"/>
      <point x="530" y="833" type="line"/>
    </contour>
    <contour>
      <point x="178" y="833" type="line"/>
      <point x="178" y="975" type="line"/>
      <point x="330" y="975" type="line"/>
      <point x="330" y="833" type="line"/>
    </contour>
    <contour>
      <point x="626" y="184" type="line"/>
      <point x="610" y="126"/>
      <point x="566" y="85" type="qcurve"/>
      <point x="521" y="43"/>
      <point x="465" y="24" type="qcurve"/>
      <point x="409" y="4"/>
      <point x="345" y="4" type="qcurve"/>
      <point x="281" y="3"/>
      <point x="225" y="22" type="qcurve"/>
      <point x="168" y="41"/>
      <point x="124" y="83" type="qcurve"/>
      <point x="80" y="125"/>
      <point x="63" y="184" type="qcurve"/>
      <point x="60" y="761" type="line"/>
      <point x="227" y="761" type="line"/>
      <point x="227" y="185" type="line"/>
      <point x="256" y="152"/>
      <point x="345" y="152" type="qcurve"/>
      <point x="434" y="151"/>
      <point x="462" y="185" type="qcurve"/>
      <point x="462" y="761" type="line"/>
      <point x="629" y="761" type="line"/>
    </contour>
  </outline>
</glyph>
<glyph name="Uhungarumlaut.0" format="2">
  <advance width="669"/>
  <outline>
    <contour>
      <point x="498" y="833" type="line"/>
      <point x="390" y="940" type="line"/>
      <point x="572" y="1122" type="line"/>
      <point x="680" y="1015" type="line"/>
    </contour>
    <contour>
      <point x="212" y="835" type="line"/>
      <point x="104" y="942" type="line"/>
      <point x="286" y="1124" type="line"/>
      <point x="394" y="1017" type="line"/>
    </contour>
    <contour>
      <point x="626" y="184" type="line"/>
      <point x="610" y="126"/>
      <point x="566" y="85" type="qcurve"/>
      <point x="521" y="43"/>
      <point x="465" y="24" type="qcurve"/>
      <point x="409" y="4"/>
      <point x="345" y="4" type="qcurve"/>
      <point x="281" y="3"/>
      <point x="225" y="22" type="qcurve"/>
      <point x="168" y="41"/>
      <point x="124" y="83" type="qcurve"/>
      <point x="80" y="125"/>
      <point x="63" y="184" type="qcurve"/>
      <point x="60" y="761" type="line"/>
      <point x="227" y="761" type="line"/>
      <point x="227" y="185" type="line"/>
      <point x="256" y="152"/>
      <point x="345" y="152" type="qcurve"/>
      <point x="434" y="151"/>
      <point x="462" y="185" type="qcurve"/>
      <point x="462" y="761" type="line"/>
      <point x="629" y="761" type="line"/>
    </contour>
  </outline>
</glyph>
<glyph name="Uhungarumlaut.1" format="2">
  <advance width="669"/>
  <outline>
    <contour>
      <point x="678" y="833" type="line"/>
      <point x="570" y="940" type="line"/>
      <point x="752" y="1122" type="line"/>
      <point x="860" y="1015" type="line"/>
    </contour>
    <contour>
      <point x="392" y="835" type="line"/>
      <point x="284" y="942" type="line"/>
      <point x="466" y="1124" type="line"/>
      <point x="574" y="1017" type="line"/>
    </contour>
    <contour>
      <point x="716" y="184" type="line"/>
      <point x="700" y="126"/>
      <point x="656" y="85" type="qcurve"/>
      <point x="611" y="43"/>
      <point x="555" y="24" type="qcurve"/>
      <point x="499" y="4"/>
      <point x="435" y="4" type="qcurve"/>
      <point x="371" y="3"/>
      <point x="315" y="22" type="qcurve"/>
      <point x="258" y="41"/>
      <point x="214" y="83" type="qcurve"/>
      <point x="170" y="125"/>
      <point x="153" y="184" type="qcurve"/>
      <point x="150" y="761" type="line"/>
      <point x="317" y="761" type="line"/>
      <point x="317" y="185" type="line"/>
      <point x="346" y="152"/>
      <point x="435" y="152" type="qcurve"/>
      <point x="524" y="151"/>
      <point x="552" y="185" type="qcurve"/>
      <point x="552" y="761" type="line"/>
      <point x="719" y="761" type="line"/>
    </contour>
  </outline>
</glyph>
<glyph name="Uogonek.0" format="2">
  <advance width="669"/>
  <outline>
    <contour>
      <point x="361" y="-246" type="line"/>
      <point x="361" y="-246"/>
      <point x="348" y="-246" type="qcurve"/>
      <point x="294" y="-246"/>
      <point x="257" y="-208" type="qcurve"/>
      <point x="219" y="-171"/>
      <point x="219" y="-118" type="qcurve"/>
      <point x="219" y="-64"/>
      <point x="257" y="-26" type="qcurve"/>
      <point x="294" y="11"/>
      <point x="348" y="11" type="qcurve"/>
      <point x="361" y="11" type="line"/>
      <point x="361" y="-66" type="line"/>
      <point x="353" y="-64"/>
      <point x="348" y="-64" type="qcurve"/>
      <point x="326" y="-64"/>
      <point x="310" y="-80" type="qcurve"/>
      <point x="294" y="-96"/>
      <point x="294" y="-118" type="qcurve"/>
      <point x="294" y="-140"/>
      <point x="310" y="-155" type="qcurve"/>
      <point x="325" y="-171"/>
      <point x="348" y="-171" type="qcurve"/>
      <point x="353" y="-171"/>
      <point x="361" y="-169" type="qcurve"/>
    </contour>
    <contour>
      <point x="626" y="184" type="line"/>
      <point x="610" y="126"/>
      <point x="566" y="85" type="qcurve"/>
      <point x="521" y="43"/>
      <point x="465" y="24" type="qcurve"/>
      <point x="409" y="4"/>
      <point x="345" y="4" type="qcurve"/>
      <point x="281" y="3"/>
      <point x="225" y="22" type="qcurve"/>
      <point x="168" y="41"/>
      <point x="124" y="83" type="qcurve"/>
      <point x="80" y="125"/>
      <point x="63" y="184" type="qcurve"/>
      <point x="60" y="761" type="line"/>
      <point x="227" y="761" type="line"/>
      <point x="227" y="185" type="line"/>
      <point x="256" y="152"/>
      <point x="345" y="152" type="qcurve"/>
      <point x="434" y="151"/>
      <point x="462" y="185" type="qcurve"/>
      <point x="462" y="761" type="line"/>
      <point x="629" y="761" type="line"/>
    </contour>
  </outline>
</glyph>
<glyph name="Uogonek.1" format="2">
  <advance width="669"/>
  <outline>
    <contour>
      <point x="541" y="-246" type="line"/>
      <point x="541" y="-246"/>
      <point x="528" y="-246" type="qcurve"/>
      <point x="474" y="-246"/>
      <point x="437" y="-208" type="qcurve"/>
      <point x="399" y="-171"/>
      <point x="399" y="-118" type="qcurve"/>
      <point x="399" y="-64"/>
      <point x="437" y="-26" type="qcurve"/>
      <point x="474" y="11"/>
      <point x="528" y="11" type="qcurve"/>
      <point x="541" y="11" type="line"/>
      <point x="541" y="-66" type="line"/>
      <point x="533" y="-64"/>
      <point x="528" y="-64" type="qcurve"/>
      <point x="506" y="-64"/>
      <point x="490" y="-80" type="qcurve"/>
      <point x="474" y="-96"/>
      <point x="474" y="-118" type="qcurve"/>
      <point x="474" y="-140"/>
      <point x="490" y="-155" type="qcurve"/>
      <point x="505" y="-171"/>
      <point x="528" y="-171" type="qcurve"/>
      <point x="533" y="-171"/>
      <point x="541" y="-169" type="qcurve"/>
    </contour>
    <contour>
      <point x="716" y="184" type="line"/>
      <point x="700" y="126"/>
      <point x="656" y="85" type="qcurve"/>
      <point x="611" y="43"/>
      <point x="555" y="24" type="qcurve"/>
      <point x="499" y="4"/>
      <point x="435" y="4" type="qcurve"/>
      <point x="371" y="3"/>
      <point x="315" y="22" type="qcurve"/>
      <point x="258" y="41"/>
      <point x="214" y="83" type="qcurve"/>
      <point x="170" y="125"/>
      <point x="153" y="184" type="qcurve"/>
      <point x="150" y="761" type="line"/>
      <point x="317" y="761" type="line"/>
      <point x="317" y="185" type="line"/>
      <point x="346" y="152"/>
      <point x="435" y="152" type="qcurve"/>
      <point x="524" y="151"/>
      <point x="552" y="185" type="qcurve"/>
      <point x="552" y="761" type="line"/>
      <point x="719" y="761" type="line"/>
    </contour>
  </outline>
</glyph>
<glyph name="Uring.0" format="2">
  <advance width="669"/>
  <outline>
    <contour>
      <point x="353" y="833" type="line"/>
      <point x="353" y="833"/>
      <point x="351" y="833" type="qcurve"/>
      <point x="351" y="833"/>
      <point x="344" y="833" type="qcurve"/>
      <point x="293" y="837"/>
      <point x="259" y="874" type="qcurve"/>
      <point x="224" y="910"/>
      <point x="224" y="961" type="qcurve"/>
      <point x="224" y="1012"/>
      <point x="259" y="1049" type="qcurve"/>
      <point x="294" y="1086"/>
      <point x="344" y="1090" type="qcurve"/>
      <point x="351" y="1090" type="line"/>
      <point x="351" y="1090"/>
      <point x="353" y="1090" type="qcurve"/>
      <point x="353" y="1090"/>
      <point x="355" y="1090" type="qcurve"/>
      <point x="409" y="1090"/>
      <point x="447" y="1053" type="qcurve"/>
      <point x="484" y="1015"/>
      <point x="484" y="961" type="qcurve"/>
      <point x="484" y="908"/>
      <point x="447" y="871" type="qcurve"/>
      <point x="409" y="833"/>
      <point x="355" y="833" type="qcurve"/>
    </contour>
    <contour>
      <point x="354" y="1015" type="qcurve"/>
      <point x="350" y="1015"/>
      <point x="342" y="1013" type="qcurve"/>
      <point x="342" y="1014" type="line"/>
      <point x="323" y="1010"/>
      <point x="312" y="996" type="qcurve"/>
      <point x="300" y="981"/>
      <point x="300" y="961" type="qcurve"/>
      <point x="300" y="942"/>
      <point x="312" y="928" type="qcurve"/>
      <point x="323" y="913"/>
      <point x="342" y="909" type="qcurve"/>
      <point x="342" y="910" type="line"/>
      <point x="350" y="908"/>
      <point x="354" y="908" type="qcurve"/>
      <point x="358" y="908"/>
      <point x="366" y="910" type="qcurve"/>
      <point x="366" y="909" type="line"/>
      <point x="385" y="913"/>
      <point x="397" y="928" type="qcurve"/>
      <point x="408" y="942"/>
      <point x="408" y="961" type="qcurve"/>
      <point x="408" y="981"/>
      <point x="397" y="996" type="qcurve"/>
      <point x="385" y="1010"/>
      <point x="366" y="1014" type="qcurve"/>
      <point x="366" y="1013" type="line"/>
      <point x="358" y="1015"/>
    </contour>
    <contour>
      <point x="626" y="184" type="line"/>
      <point x="610" y="126"/>
      <point x="566" y="85" type="qcurve"/>
      <point x="521" y="43"/>
      <point x="465" y="24" type="qcurve"/>
      <point x="409" y="4"/>
      <point x="345" y="4" type="qcurve"/>
      <point x="281" y="3"/>
      <point x="225" y="22" type="qcurve"/>
      <point x="168" y="41"/>
      <point x="124" y="83" type="qcurve"/>
      <point x="80" y="125"/>
      <point x="63" y="184" type="qcurve"/>
      <point x="60" y="761" type="line"/>
      <point x="227" y="761" type="line"/>
      <point x="227" y="185" type="line"/>
      <point x="256" y="152"/>
      <point x="345" y="152" type="qcurve"/>
      <point x="434" y="151"/>
      <point x="462" y="185" type="qcurve"/>
      <point x="462" y="761" type="line"/>
      <point x="629" y="761" type="line"/>
    </contour>
  </outline>
</glyph>
<glyph name="Uring.1" format="2">
  <advance width="669"/>
  <outline>
    <contour>
      <point x="533" y="833" type="line"/>
      <point x="533" y="833"/>
      <point x="531" y="833" type="qcurve"/>
      <point x="531" y="833"/>
      <point x="524" y="833" type="qcurve"/>
      <point x="473" y="837"/>
      <point x="439" y="874" type="qcurve"/>
      <point x="404" y="910"/>
      <point x="404" y="961" type="qcurve"/>
      <point x="404" y="1012"/>
      <point x="439" y="1049" type="qcurve"/>
      <point x="474" y="1086"/>
      <point x="524" y="1090" type="qcurve"/>
      <point x="531" y="1090" type="line"/>
      <point x="531" y="1090"/>
      <point x="533" y="1090" type="qcurve"/>
      <point x="533" y="1090"/>
      <point x="535" y="1090" type="qcurve"/>
      <point x="589" y="1090"/>
      <point x="627" y="1053" type="qcurve"/>
      <point x="664" y="1015"/>
      <point x="664" y="961" type="qcurve"/>
      <point x="664" y="908"/>
      <point x="627" y="871" type="qcurve"/>
      <point x="589" y="833"/>
      <point x="535" y="833" type="qcurve"/>
    </contour>
    <contour>
      <point x="534" y="1015" type="qcurve"/>
      <point x="530" y="1015"/>
      <point x="522" y="1013" type="qcurve"/>
      <point x="522" y="1014" type="line"/>
      <point x="503" y="1010"/>
      <point x="492" y="996" type="qcurve"/>
      <point x="480" y="981"/>
      <point x="480" y="961" type="qcurve"/>
      <point x="480" y="942"/>
      <point x="492" y="928" type="qcurve"/>
      <point x="503" y="913"/>
      <point x="522" y="909" type="qcurve"/>
      <point x="522" y="910" type="line"/>
      <point x="530" y="908"/>
      <point x="534" y="908" type="qcurve"/>
      <point x="538" y="908"/>
      <point x="546" y="910" type="qcurve"/>
      <point x="546" y="909" type="line"/>
      <point x="565" y="913"/>
      <point x="577" y="928" type="qcurve"/>
      <point x="588" y="942"/>
      <point x="588" y="961" type="qcurve"/>
      <point x="588" y="981"/>
      <point x="577" y="996" type="qcurve"/>
      <point x="565" y="1010"/>
      <point x="546" y="1014" type="qcurve"/>
      <point x="546" y="1013" type="line"/>
      <point x="538" y="1015"/>
    </contour>
    <contour>
      <point x="716" y="184" type="line"/>
      <point x="700" y="126"/>
      <point x="656" y="85" type="qcurve"/>
      <point x="611" y="43"/>
      <point x="555" y="24" type="qcurve"/>
      <point x="499" y="4"/>
      <point x="435" y="4" type="qcurve"/>
      <point x="371" y="3"/>
      <point x="315" y="22" type="qcurve"/>
      <point x="258" y="41"/>
      <point x="214" y="83" type="qcurve"/>
      <point x="170" y="125"/>
      <point x="153" y="184" type="qcurve"/>
      <point x="150" y="761" type="line"/>
      <point x="317" y="761" type="line"/>
      <point x="317" y="185" type="line"/>
      <point x="346" y="152"/>
      <point x="435" y="152" type="qcurve"/>
      <point x="524" y="151"/>
      <point x="552" y="185" type="qcurve"/>
      <point x="552" y="761" type="line"/>
      <point x="719" y="761" type="line"/>
    </contour>
  </outline>
</glyph>
<glyph name="Utilde.0" format="2">
  <advance width="669"/>
  <outline>
    <contour>
      <point x="479" y="950" type="line"/>
      <point x="479" y="874" type="line"/>
      <point x="478" y="872"/>
      <point x="471" y="863" type="qcurve"/>
      <point x="463" y="854"/>
      <point x="447" y="844" type="qcurve"/>
      <point x="431" y="833"/>
      <point x="415" y="833" type="qcurve"/>
      <point x="365" y="833" type="line"/>
      <point x="349" y="833"/>
      <point x="327" y="847" type="qcurve"/>
      <point x="304" y="861"/>
      <point x="288" y="861" type="qcurve"/>
      <point x="277" y="861"/>
      <point x="262" y="854" type="qcurve"/>
      <point x="247" y="847"/>
      <point x="238" y="840" type="qcurve"/>
      <point x="229" y="833" type="line"/>
      <point x="229" y="909" type="line"/>
      <point x="261" y="937"/>
      <point x="286" y="937" type="qcurve"/>
      <point x="303" y="937"/>
      <point x="327" y="924" type="qcurve"/>
      <point x="350" y="910"/>
      <point x="366" y="910" type="qcurve"/>
      <point x="389" y="910"/>
      <point x="411" y="910" type="qcurve"/>
      <point x="426" y="910"/>
      <point x="443" y="920" type="qcurve"/>
      <point x="460" y="930"/>
      <point x="469" y="940" type="qcurve"/>
    </contour>
    <contour>
      <point x="626" y="184" type="line"/>
      <point x="610" y="126"/>
      <point x="566" y="85" type="qcurve"/>
      <point x="521" y="43"/>
      <point x="465" y="24" type="qcurve"/>
      <point x="409" y="4"/>
      <point x="345" y="4" type="qcurve"/>
      <point x="281" y="3"/>
      <point x="225" y="22" type="qcurve"/>
      <point x="168" y="41"/>
      <point x="124" y="83" type="qcurve"/>
      <point x="80" y="125"/>
      <point x="63" y="184" type="qcurve"/>
      <point x="60" y="761" type="line"/>
      <point x="227" y="761" type="line"/>
      <point x="227" y="185" type="line"/>
      <point x="256" y="152"/>
      <point x="345" y="152" type="qcurve"/>
      <point x="434" y="151"/>
      <point x="462" y="185" type="qcurve"/>
      <point x="462" y="761" type="line"/>
      <point x="629" y="761" type="line"/>
    </contour>
  </outline>
</glyph>
<glyph name="Utilde.1" format="2">
  <advance width="669"/>
  <outline>
    <contour>
      <point x="659" y="950" type="line"/>
      <point x="659" y="874" type="line"/>
      <point x="658" y="872"/>
      <point x="651" y="863" type="qcurve"/>
      <point x="643" y="854"/>
      <point x="627" y="844" type="qcurve"/>
      <point x="611" y="833"/>
      <point x="595" y="833" type="qcurve"/>
      <point x="545" y="833" type="line"/>
      <point x="529" y="833"/>
      <point x="507" y="847" type="qcurve"/>
      <point x="484" y="861"/>
      <point x="468" y="861" type="qcurve"/>
      <point x="457" y="861"/>
      <point x="442" y="854" type="qcurve"/>
      <point x="427" y="847"/>
      <point x="418" y="840" type="qcurve"/>
      <point x="409" y="833" type="line"/>
      <point x="409" y="909" type="line"/>
      <point x="441" y="937"/>
      <point x="466" y="937" type="qcurve"/>
      <point x="483" y="937"/>
      <point x="507" y="924" type="qcurve"/>
      <point x="530" y="910"/>
      <point x="546" y="910" type="qcurve"/>
      <point x="569" y="910"/>
      <point x="591" y="910" type="qcurve"/>
      <point x="606" y="910"/>
      <point x="623" y="920" type="qcurve"/>
      <point x="640" y="930"/>
      <point x="649" y="940" type="qcurve"/>
    </contour>
    <contour>
      <point x="716" y="184" type="line"/>
      <point x="700" y="126"/>
      <point x="656" y="85" type="qcurve"/>
      <point x="611" y="43"/>
      <point x="555" y="24" type="qcurve"/>
      <point x="499" y="4"/>
      <point x="435" y="4" type="qcurve"/>
      <point x="371" y="3"/>
      <point x="315" y="22" type="qcurve"/>
      <point x="258" y="41"/>
      <point x="214" y="83" type="qcurve"/>
      <point x="170" y="125"/>
      <point x="153" y="184" type="qcurve"/>
      <point x="150" y="761" type="line"/>
      <point x="317" y="761" type="line"/>
      <point x="317" y="185" type="line"/>
      <point x="346" y="152"/>
      <point x="435" y="152" type="qcurve"/>
      <point x="524" y="151"/>
      <point x="552" y="185" type="qcurve"/>
      <point x="552" y="761" type="line"/>
      <point x="719" y="761" type="line"/>
    </contour>
  </outline>
</glyph>
<glyph name="V.0" format="2">
  <advance width="652"/>
  <outline>
    <contour>
      <point x="60" y="769" type="line"/>
      <point x="212" y="769" type="line"/>
      <point x="336" y="292" type="line"/>
      <point x="460" y="769" type="line"/>
      <point x="612" y="769" type="line"/>
      <point x="412" y="0" type="line"/>
      <point x="260" y="0" type="line"/>
    </contour>
  </outline>
</glyph>
<glyph name="W.0" format="2">
  <advance width="1000"/>
  <outline>
    <contour>
      <point x="60" y="769" type="line"/>
      <point x="212" y="769" type="line"/>
      <point x="336" y="292" type="line"/>
      <point x="460" y="769" type="line"/>
      <point x="461" y="769" type="line"/>
      <point x="612" y="769" type="line"/>
      <point x="613" y="769" type="line"/>
      <point x="737" y="292" type="line"/>
      <point x="861" y="769" type="line"/>
      <point x="1013" y="769" type="line"/>
      <point x="813" y="0" type="line"/>
      <point x="661" y="0" type="line"/>
      <point x="536" y="479" type="line"/>
      <point x="412" y="0" type="line"/>
      <point x="260" y="0" type="line"/>
    </contour>
  </outline>
</glyph>
<glyph name="Wcircumflex.0" format="2">
  <advance width="1000"/>
  <outline>
    <contour>
      <point x="446" y="832" type="line"/>
      <point x="517" y="1000" type="line"/>
      <point x="518" y="1000" type="line"/>
      <point x="593" y="1000" type="line"/>
      <point x="594" y="1000" type="line"/>
      <point x="646" y="832" type="line"/>
      <point x="570" y="832" type="line"/>
      <point x="550" y="940" type="line"/>
      <point x="522" y="832" type="line"/>
    </contour>
    <contour>
      <point x="60" y="769" type="line"/>
      <point x="212" y="769" type="line"/>
      <point x="336" y="292" type="line"/>
      <point x="460" y="769" type="line"/>
      <point x="461" y="769" type="line"/>
      <point x="612" y="769" type="line"/>
      <point x="613" y="769" type="line"/>
      <point x="737" y="292" type="line"/>
      <point x="861" y="769" type="line"/>
      <point x="1013" y="769" type="line"/>
      <point x="813" y="0" type="line"/>
      <point x="661" y="0" type="line"/>
      <point x="536" y="479" type="line"/>
      <point x="412" y="0" type="line"/>
      <point x="260" y="0" type="line"/>
    </contour>
  </outline>
</glyph>
<glyph name="Wcircumflex.1" format="2">
  <advance width="1000"/>
  <outline>
    <contour>
      <point x="626" y="832" type="line"/>
      <point x="697" y="1000" type="line"/>
      <point x="698" y="1000" type="line"/>
      <point x="773" y="1000" type="line"/>
      <point x="774" y="1000" type="line"/>
      <point x="826" y="832" type="line"/>
      <point x="750" y="832" type="line"/>
      <point x="730" y="940" type="line"/>
      <point x="702" y="832" type="line"/>
    </contour>
    <contour>
      <point x="150" y="769" type="line"/>
      <point x="302" y="769" type="line"/>
      <point x="426" y="292" type="line"/>
      <point x="550" y="769" type="line"/>
      <point x="551" y="769" type="line"/>
      <point x="702" y="769" type="line"/>
      <point x="703" y="769" type="line"/>
      <point x="827" y="292" type="line"/>
      <point x="951" y="769" type="line"/>
      <point x="1103" y="769" type="line"/>
      <point x="903" y="0" type="line"/>
      <point x="751" y="0" type="line"/>
      <point x="626" y="479" type="line"/>
      <point x="502" y="0" type="line"/>
      <point x="350" y="0" type="line"/>
    </contour>
  </outline>
</glyph>
<glyph name="X.0" format="2">
  <advance width="724"/>
  <outline>
    <contour>
      <point x="60" y="770" type="line"/>
      <point x="246" y="768" type="line"/>
      <point x="376" y="541" type="line"/>
      <point x="508" y="769" type="line"/>
      <point x="683" y="768" type="line"/>
      <point x="463" y="388" type="line"/>
      <point x="684" y="0" type="line"/>
      <point x="509" y="-2" type="line"/>
      <point x="373" y="233" type="line"/>
      <point x="239" y="2" type="line"/>
      <point x="61" y="-1" type="line"/>
      <point x="284" y="384" type="line"/>
    </contour>
  </outline>
</glyph>
<glyph name="Y.0" format="2">
  <advance width="512"/>
  <outline>
    <contour>
      <point x="203" y="451" type="line"/>
      <point x="4" y="765" type="line"/>
      <point x="156" y="765" type="line"/>
      <point x="280" y="594" type="line"/>
      <point x="404" y="765" type="line"/>
      <point x="556" y="765" type="line"/>
      <point x="356" y="450" type="line"/>
      <point x="355" y="450" type="line"/>
      <point x="355" y="1" type="line"/>
      <point x="203" y="1" type="line"/>
    </contour>
  </outline>
</glyph>
<glyph name="Yacute.1" format="2">
  <advance width="512"/>
  <outline>
    <contour>
      <point x="470" y="833" type="line"/>
      <point x="362" y="940" type="line"/>
      <point x="544" y="1122" type="line"/>
      <point x="652" y="1015" type="line"/>
    </contour>
    <contour>
      <point x="293" y="451" type="line"/>
      <point x="94" y="765" type="line"/>
      <point x="246" y="765" type="line"/>
      <point x="370" y="594" type="line"/>
      <point x="494" y="765" type="line"/>
      <point x="646" y="765" type="line"/>
      <point x="446" y="450" type="line"/>
      <point x="445" y="450" type="line"/>
      <point x="445" y="1" type="line"/>
      <point x="293" y="1" type="line"/>
    </contour>
  </outline>
</glyph>
<glyph name="Ycircumflex.0" format="2">
  <advance width="512"/>
  <outline>
    <contour>
      <point x="190" y="832" type="line"/>
      <point x="261" y="1000" type="line"/>
      <point x="262" y="1000" type="line"/>
      <point x="337" y="1000" type="line"/>
      <point x="338" y="1000" type="line"/>
      <point x="390" y="832" type="line"/>
      <point x="314" y="832" type="line"/>
      <point x="294" y="940" type="line"/>
      <point x="266" y="832" type="line"/>
    </contour>
    <contour>
      <point x="203" y="451" type="line"/>
      <point x="4" y="765" type="line"/>
      <point x="156" y="765" type="line"/>
      <point x="280" y="594" type="line"/>
      <point x="404" y="765" type="line"/>
      <point x="556" y="765" type="line"/>
      <point x="356" y="450" type="line"/>
      <point x="355" y="450" type="line"/>
      <point x="355" y="1" type="line"/>
      <point x="203" y="1" type="line"/>
    </contour>
  </outline>
</glyph>
<glyph name="Ycircumflex.1" format="2">
  <advance width="512"/>
  <outline>
    <contour>
      <point x="370" y="832" type="line"/>
      <point x="441" y="1000" type="line"/>
      <point x="442" y="1000" type="line"/>
      <point x="517" y="1000" type="line"/>
      <point x="518" y="1000" type="line"/>
      <point x="570" y="832" type="line"/>
      <point x="494" y="832" type="line"/>
      <point x="474" y="940" type="line"/>
      <point x="446" y="832" type="line"/>
    </contour>
    <contour>
      <point x="293" y="451" type="line"/>
      <point x="94" y="765" type="line"/>
      <point x="246" y="765" type="line"/>
      <point x="370" y="594" type="line"/>
      <point x="494" y="765" type="line"/>
      <point x="646" y="765" type="line"/>
      <point x="446" y="450" type="line"/>
      <point x="445" y="450" type="line"/>
      <point x="445" y="1" type="line"/>
      <point x="293" y="1" type="line"/>
    </contour>
  </outline>
</glyph>
<glyph name="Ydieresis.1" format="2">
  <advance width="512"/>
  <outline>
    <contour>
      <point x="494" y="833" type="line"/>
      <point x="494" y="975" type="line"/>
      <point x="646" y="975" type="line"/>
      <point x="646" y="833" type="line"/>
    </contour>
    <contour>
      <point x="294" y="833" type="line"/>
      <point x="294" y="975" type="line"/>
      <point x="446" y="975" type="line"/>
      <point x="446" y="833" type="line"/>
    </contour>
    <contour>
      <point x="293" y="451" type="line"/>
      <point x="94" y="765" type="line"/>
      <point x="246" y="765" type="line"/>
      <point x="370" y="594" type="line"/>
      <point x="494" y="765" type="line"/>
      <point x="646" y="765" type="line"/>
      <point x="446" y="450" type="line"/>
      <point x="445" y="450" type="line"/>
      <point x="445" y="1" type="line"/>
      <point x="293" y="1" type="line"/>
    </contour>
  </outline>
</glyph>
<glyph name="Z.0" format="2">
  <advance width="783"/>
  <outline>
    <contour>
      <point x="60" y="10" type="line"/>
      <point x="60" y="162" type="line"/>
      <point x="490" y="610" type="line"/>
      <point x="60" y="610" type="line"/>
      <point x="60" y="762" type="line"/>
      <point x="743" y="762" type="line"/>
      <point x="743" y="610" type="line"/>
      <point x="311" y="162" type="line"/>
      <point x="743" y="162" type="line"/>
      <point x="743" y="10" type="line"/>
    </contour>
  </outline>
</glyph>
<glyph name="Zacute.1" format="2">
  <advance width="783"/>
  <outline>
    <contour>
      <point x="591" y="833" type="line"/>
      <point x="483" y="940" type="line"/>
      <point x="665" y="1122" type="line"/>
      <point x="773" y="1015" type="line"/>
    </contour>
    <contour>
      <point x="150" y="10" type="line"/>
      <point x="150" y="162" type="line"/>
      <point x="580" y="610" type="line"/>
      <point x="150" y="610" type="line"/>
      <point x="150" y="762" type="line"/>
      <point x="833" y="762" type="line"/>
      <point x="833" y="610" type="line"/>
      <point x="401" y="162" type="line"/>
      <point x="833" y="162" type="line"/>
      <point x="833" y="10" type="line"/>
    </contour>
  </outline>
</glyph>
<glyph name="Zcaron.0" format="2">
  <advance width="783"/>
  <outline>
    <contour>
      <point x="312" y="1001" type="line"/>
      <point x="388" y="1001" type="line"/>
      <point x="416" y="893" type="line"/>
      <point x="436" y="1001" type="line"/>
      <point x="512" y="1001" type="line"/>
      <point x="460" y="833" type="line"/>
      <point x="459" y="833" type="line"/>
      <point x="384" y="833" type="line"/>
      <point x="383" y="833" type="line"/>
    </contour>
    <contour>
      <point x="60" y="10" type="line"/>
      <point x="60" y="162" type="line"/>
      <point x="490" y="610" type="line"/>
      <point x="60" y="610" type="line"/>
      <point x="60" y="762" type="line"/>
      <point x="743" y="762" type="line"/>
      <point x="743" y="610" type="line"/>
      <point x="311" y="162" type="line"/>
      <point x="743" y="162" type="line"/>
      <point x="743" y="10" type="line"/>
    </contour>
  </outline>
</glyph>
<glyph name="Zcaron.1" format="2">
  <advance width="783"/>
  <outline>
    <contour>
      <point x="492" y="1001" type="line"/>
      <point x="568" y="1001" type="line"/>
      <point x="596" y="893" type="line"/>
      <point x="616" y="1001" type="line"/>
      <point x="692" y="1001" type="line"/>
      <point x="640" y="833" type="line"/>
      <point x="639" y="833" type="line"/>
      <point x="564" y="833" type="line"/>
      <point x="563" y="833" type="line"/>
    </contour>
    <contour>
      <point x="150" y="10" type="line"/>
      <point x="150" y="162" type="line"/>
      <point x="580" y="610" type="line"/>
      <point x="150" y="610" type="line"/>
      <point x="150" y="762" type="line"/>
      <point x="833" y="762" type="line"/>
      <point x="833" y="610" type="line"/>
      <point x="401" y="162" type="line"/>
      <point x="833" y="162" type="line"/>
      <point x="833" y="10" type="line"/>
    </contour>
  </outline>
</glyph>
<glyph name="Zdotaccent.0" format="2">
  <advance width="783"/>
  <outline>
    <contour>
      <point x="336" y="833" type="line"/>
      <point x="336" y="975" type="line"/>
      <point x="488" y="975" type="line"/>
      <point x="488" y="833" type="line"/>
    </contour>
    <contour>
      <point x="60" y="10" type="line"/>
      <point x="60" y="162" type="line"/>
      <point x="490" y="610" type="line"/>
      <point x="60" y="610" type="line"/>
      <point x="60" y="762" type="line"/>
      <point x="743" y="762" type="line"/>
      <point x="743" y="610" type="line"/>
      <point x="311" y="162" type="line"/>
      <point x="743" y="162" type="line"/>
      <point x="743" y="10" type="line"/>
    </contour>
  </outline>
</glyph>
<glyph name="Zdotaccent.1" format="2">
  <advance width="783"/>
  <outline>
    <contour>
      <point x="516" y="833" type="line"/>
      <point x="516" y="975" type="line"/>
      <point x="668" y="975" type="line"/>
      <point x="668" y="833" type="line"/>
    </contour>
    <contour>
      <point x="150" y="10" type="line"/>
      <point x="150" y="162" type="line"/>
      <point x="580" y="610" type="line"/>
      <point x="150" y="610" type="line"/>
      <point x="150" y="762" type="line"/>
      <point x="833" y="762" type="line"/>
      <point x="833" y="610" type="line"/>
      <point x="401" y="162" type="line"/>
      <point x="833" y="162" type="line"/>
      <point x="833" y="10" type="line"/>
    </contour>
  </outline>
</glyph>
<glyph name=".notdef" format="2">
  <advance width="1000"/>
  <outline>
    <contour>
      <point x="421" y="206" type="line"/>
      <point x="497" y="206" type="line"/>
      <point x="497" y="277" type="line"/>
      <point x="421" y="277" type="line"/>
    </contour>
    <contour>
      <point x="421" y="621" type="qcurve"/>
      <point x="421" y="544" type="line"/>
      <point x="427" y="546"/>
      <point x="434" y="546" type="qcurve"/>
      <point x="456" y="546"/>
      <point x="488" y="515"/>
      <point x="488" y="493" type="qcurve"/>
      <point x="488" y="470"/>
      <point x="456" y="439"/>
      <point x="434" y="439" type="qcurve"/>
      <point x="427" y="439"/>
      <point x="421" y="441" type="qcurve"/>
      <point x="421" y="427" type="line"/>
      <point x="421" y="364" type="line"/>
      <point x="421" y="322" type="line"/>
      <point x="497" y="322" type="line"/>
      <point x="497" y="380" type="line"/>
      <point x="527" y="397"/>
      <point x="563" y="457"/>
      <point x="563" y="493" type="qcurve"/>
      <point x="563" y="546"/>
      <point x="488" y="621"/>
      <point x="434" y="621" type="qcurve"/>
      <point x="426" y="621"/>
    </contour>
    <contour>
      <point x="308" y="732" type="qcurve"/>
      <point x="670" y="732" type="line"/>
      <point x="676" y="732"/>
      <point x="685" y="723"/>
      <point x="685" y="717" type="qcurve"/>
      <point x="685" y="81" type="line"/>
      <point x="685" y="75"/>
      <point x="676" y="66"/>
      <point x="670" y="66" type="qcurve"/>
      <point x="308" y="66" type="line"/>
      <point x="302" y="66"/>
      <point x="293" y="75"/>
      <point x="293" y="81" type="qcurve"/>
      <point x="293" y="717" type="line"/>
      <point x="293" y="723"/>
      <point x="302" y="732"/>
    </contour>
    <contour>
      <point x="258" y="794" type="line"/>
      <point x="252" y="794"/>
      <point x="243" y="785"/>
      <point x="243" y="779" type="qcurve"/>
      <point x="243" y="15" type="line"/>
      <point x="243" y="9"/>
      <point x="252" y="0"/>
      <point x="258" y="0" type="qcurve"/>
      <point x="718" y="0" type="line"/>
      <point x="724" y="0"/>
      <point x="733" y="9"/>
      <point x="733" y="15" type="qcurve"/>
      <point x="733" y="779" type="line"/>
      <point x="733" y="785"/>
      <point x="724" y="794"/>
      <point x="718" y="794" type="qcurve"/>
    </contour>
  </outline>
</glyph>
<glyph name="abreve.0" format="2">
  <advance width="512"/>
  <outline>
    <contour>
      <point x="145" y="769" type="line"/>
      <point x="145" y="719"/>
      <point x="201" y="675" type="qcurve"/>
      <point x="256" y="630"/>
      <point x="328" y="630" type="qcurve"/>
      <point x="401" y="630"/>
      <point x="457" y="675" type="qcurve"/>
      <point x="512" y="719"/>
      <point x="512" y="769" type="qcurve"/>
      <point x="521" y="805" type="line"/>
      <point x="524" y="788"/>
      <point x="524" y="769" type="qcurve"/>
      <point x="524" y="690"/>
      <point x="467" y="634" type="qcurve"/>
      <point x="409" y="578"/>
      <point x="327" y="578" type="qcurve"/>
      <point x="246" y="578"/>
      <point x="189" y="634" type="qcurve"/>
      <point x="131" y="690"/>
      <point x="131" y="769" type="qcurve"/>
      <point x="131" y="788"/>
      <point x="134" y="805" type="qcurve"/>
    </contour>
    <contour>
      <point x="342" y="1" type="line"/>
      <point x="342" y="9" type="line"/>
      <point x="334" y="8"/>
      <point x="318" y="8" type="qcurve"/>
      <point x="211" y="8"/>
      <point x="136" y="84" type="qcurve"/>
      <point x="60" y="159"/>
      <point x="60" y="266" type="qcurve"/>
      <point x="60" y="372"/>
      <point x="135" y="444" type="qcurve"/>
      <point x="210" y="515"/>
      <point x="318" y="515" type="qcurve"/>
      <point x="334" y="515"/>
      <point x="342" y="514" type="qcurve"/>
      <point x="494" y="514" type="line"/>
      <point x="494" y="1" type="line"/>
    </contour>
    <contour>
      <point x="342" y="369" type="line"/>
      <point x="330" y="372"/>
      <point x="318" y="372" type="qcurve"/>
      <point x="273" y="372"/>
      <point x="242" y="341" type="qcurve"/>
      <point x="211" y="310"/>
      <point x="211" y="266" type="qcurve"/>
      <point x="211" y="221"/>
      <point x="242" y="190" type="qcurve"/>
      <point x="273" y="159"/>
      <point x="318" y="159" type="qcurve"/>
      <point x="330" y="159"/>
      <point x="342" y="162" type="qcurve"/>
    </contour>
  </outline>
</glyph>
<glyph name="abreve.1" format="2">
  <advance width="512"/>
  <outline>
    <contour>
      <point x="325" y="769" type="line"/>
      <point x="325" y="719"/>
      <point x="381" y="675" type="qcurve"/>
      <point x="436" y="630"/>
      <point x="508" y="630" type="qcurve"/>
      <point x="581" y="630"/>
      <point x="637" y="675" type="qcurve"/>
      <point x="692" y="719"/>
      <point x="692" y="769" type="qcurve"/>
      <point x="701" y="805" type="line"/>
      <point x="704" y="788"/>
      <point x="704" y="769" type="qcurve"/>
      <point x="704" y="690"/>
      <point x="647" y="634" type="qcurve"/>
      <point x="589" y="578"/>
      <point x="507" y="578" type="qcurve"/>
      <point x="426" y="578"/>
      <point x="369" y="634" type="qcurve"/>
      <point x="311" y="690"/>
      <point x="311" y="769" type="qcurve"/>
      <point x="311" y="788"/>
      <point x="314" y="805" type="qcurve"/>
    </contour>
    <contour>
      <point x="432" y="1" type="line"/>
      <point x="432" y="9" type="line"/>
      <point x="424" y="8"/>
      <point x="408" y="8" type="qcurve"/>
      <point x="301" y="8"/>
      <point x="226" y="84" type="qcurve"/>
      <point x="150" y="159"/>
      <point x="150" y="266" type="qcurve"/>
      <point x="150" y="372"/>
      <point x="225" y="444" type="qcurve"/>
      <point x="300" y="515"/>
      <point x="408" y="515" type="qcurve"/>
      <point x="424" y="515"/>
      <point x="432" y="514" type="qcurve"/>
      <point x="584" y="514" type="line"/>
      <point x="584" y="1" type="line"/>
    </contour>
    <contour>
      <point x="432" y="369" type="line"/>
      <point x="420" y="372"/>
      <point x="408" y="372" type="qcurve"/>
      <point x="363" y="372"/>
      <point x="332" y="341" type="qcurve"/>
      <point x="301" y="310"/>
      <point x="301" y="266" type="qcurve"/>
      <point x="301" y="221"/>
      <point x="332" y="190" type="qcurve"/>
      <point x="363" y="159"/>
      <point x="408" y="159" type="qcurve"/>
      <point x="420" y="159"/>
      <point x="432" y="162" type="qcurve"/>
    </contour>
  </outline>
</glyph>
